M48
; DRILL file {KiCad 7.0.2-0} date 2023 July 06, Thursday 00:56:29
; FORMAT={-:-/ absolute / metric / decimal}
; #@! TF.CreationDate,2023-07-06T00:56:29-07:00
; #@! TF.GenerationSoftware,Kicad,Pcbnew,7.0.2-0
; #@! TF.FileFunction,Plated,1,2,PTH
FMAT,2
METRIC
; #@! TA.AperFunction,Plated,PTH,ViaDrill
T1C0.400
; #@! TA.AperFunction,Plated,PTH,ViaDrill
T2C0.600
; #@! TA.AperFunction,Plated,PTH,ComponentDrill
T3C0.700
; #@! TA.AperFunction,Plated,PTH,ComponentDrill
T4C0.800
; #@! TA.AperFunction,Plated,PTH,ComponentDrill
T5C0.900
; #@! TA.AperFunction,Plated,PTH,ComponentDrill
T6C0.920
; #@! TA.AperFunction,Plated,PTH,ComponentDrill
T7C1.000
; #@! TA.AperFunction,Plated,PTH,ComponentDrill
T8C1.100
; #@! TA.AperFunction,Plated,PTH,ComponentDrill
T9C2.330
%
G90
G05
T1
X97.536Y-38.862
X110.363Y-72.771
X111.506Y-73.533
X115.316Y-37.084
X117.856Y-37.084
X129.794Y-37.084
X130.81Y-37.084
X130.81Y-74.93
X131.318Y-46.99
X131.499Y-44.45
X131.826Y-37.084
X131.826Y-41.656
X132.08Y-53.34
X132.08Y-74.93
X132.842Y-37.846
X134.366Y-38.608
X135.128Y-37.084
X135.89Y-62.23
X138.557Y-76.2
X138.684Y-70.866
X138.811Y-46.99
X139.065Y-69.469
X139.192Y-74.041
X139.7Y-67.945
X140.97Y-60.198
T2
X97.79Y-43.18
X115.57Y-59.69
X131.209Y-60.96
T3
X78.74Y-36.83
X78.74Y-57.15
X83.82Y-36.83
X83.82Y-57.15
X104.14Y-63.5
X104.14Y-68.58
X104.14Y-73.66
X109.22Y-63.5
X110.49Y-50.8
X110.49Y-55.88
X113.86Y-50.8
X113.86Y-55.88
X116.4Y-50.8
X116.4Y-55.88
X118.11Y-43.18
X118.11Y-45.72
X123.19Y-43.18
X123.19Y-45.72
T4
X91.44Y-73.68
X91.44Y-76.18
X93.98Y-40.645
X93.98Y-43.185
X93.98Y-45.725
X93.98Y-48.265
X93.98Y-50.805
X93.98Y-53.345
X93.98Y-55.885
X97.81Y-59.69
X97.81Y-65.405
X100.31Y-59.69
X100.31Y-65.405
X101.6Y-40.645
X101.6Y-43.185
X101.6Y-45.725
X101.6Y-48.265
X101.6Y-50.805
X101.6Y-53.345
X101.6Y-55.885
X106.68Y-54.63
X106.68Y-57.13
X119.38Y-73.66
X119.42Y-58.42
X120.65Y-50.82
X120.65Y-53.32
X120.65Y-63.5
X120.65Y-68.38
X120.67Y-40.64
X121.88Y-73.66
X121.92Y-58.42
X123.17Y-40.64
X127.0Y-40.64
X127.0Y-43.18
X127.0Y-45.72
X127.0Y-48.26
X127.0Y-50.8
X127.0Y-53.34
X127.0Y-55.88
X127.0Y-58.42
X127.0Y-60.96
X127.0Y-63.5
X127.0Y-66.04
X127.0Y-68.58
X127.0Y-71.12
X127.0Y-73.66
X134.62Y-40.64
X134.62Y-43.18
X134.62Y-45.72
X134.62Y-48.26
X134.62Y-50.8
X134.62Y-53.34
X134.62Y-55.88
X134.62Y-58.42
X134.62Y-60.96
X134.62Y-63.5
X134.62Y-66.04
X134.62Y-68.58
X134.62Y-71.12
X134.62Y-73.66
X139.7Y-63.5
X139.7Y-66.0
T5
X86.36Y-57.15
X88.9Y-57.15
X111.76Y-46.482
X111.76Y-63.5
X111.765Y-42.418
X114.3Y-46.482
X114.3Y-63.5
X114.305Y-42.418
T6
X86.53Y-45.72
X86.53Y-48.22
X88.53Y-45.72
X88.53Y-48.22
T7
X94.996Y-33.02
X95.25Y-73.66
X95.25Y-76.2
X95.25Y-78.74
X95.25Y-81.28
X97.536Y-33.02
X97.79Y-73.66
X97.79Y-76.2
X97.79Y-78.74
X97.79Y-81.28
X100.076Y-33.02
X100.33Y-73.66
X100.33Y-76.2
X100.33Y-78.74
X100.33Y-81.28
X102.616Y-33.02
X104.14Y-81.28
X105.156Y-33.02
X106.68Y-40.64
X106.68Y-43.18
X106.68Y-45.72
X106.68Y-48.26
X106.68Y-50.8
X106.68Y-81.28
X107.696Y-33.02
X109.22Y-81.28
X110.236Y-33.02
X111.76Y-81.28
X112.776Y-33.02
X114.3Y-81.28
X115.316Y-33.02
X116.84Y-81.28
X117.856Y-33.02
X119.38Y-81.28
X121.92Y-33.02
X121.92Y-81.28
X124.46Y-33.02
X127.0Y-33.02
X127.0Y-81.28
X129.54Y-33.02
X129.54Y-81.28
X132.08Y-33.02
X132.08Y-81.28
X134.62Y-33.02
X134.62Y-81.28
X137.16Y-33.02
X137.16Y-81.28
X139.7Y-33.02
X139.7Y-53.34
X139.7Y-55.88
X139.7Y-58.42
X139.7Y-81.28
X142.24Y-53.34
X142.24Y-55.88
X142.24Y-58.42
T8
X78.74Y-33.02
X86.36Y-33.02
X93.98Y-62.865
X93.98Y-65.405
X93.98Y-67.945
X108.51Y-68.87
X108.51Y-73.37
X115.01Y-68.87
X115.01Y-73.37
T9
X83.82Y-40.95
X83.82Y-52.99
T7
X80.36Y-75.58G85X80.36Y-77.58
G05
X82.36Y-81.28G85X84.36Y-81.28
G05
X86.36Y-75.58G85X86.36Y-77.58
G05
T0
M30
