%TF.GenerationSoftware,KiCad,Pcbnew,7.0.2-0*%
%TF.CreationDate,2023-06-19T15:55:23-07:00*%
%TF.ProjectId,DIPduino,44495064-7569-46e6-9f2e-6b696361645f,rev?*%
%TF.SameCoordinates,Original*%
%TF.FileFunction,Soldermask,Top*%
%TF.FilePolarity,Negative*%
%FSLAX46Y46*%
G04 Gerber Fmt 4.6, Leading zero omitted, Abs format (unit mm)*
G04 Created by KiCad (PCBNEW 7.0.2-0) date 2023-06-19 15:55:23*
%MOMM*%
%LPD*%
G01*
G04 APERTURE LIST*
G04 Aperture macros list*
%AMRoundRect*
0 Rectangle with rounded corners*
0 $1 Rounding radius*
0 $2 $3 $4 $5 $6 $7 $8 $9 X,Y pos of 4 corners*
0 Add a 4 corners polygon primitive as box body*
4,1,4,$2,$3,$4,$5,$6,$7,$8,$9,$2,$3,0*
0 Add four circle primitives for the rounded corners*
1,1,$1+$1,$2,$3*
1,1,$1+$1,$4,$5*
1,1,$1+$1,$6,$7*
1,1,$1+$1,$8,$9*
0 Add four rect primitives between the rounded corners*
20,1,$1+$1,$2,$3,$4,$5,0*
20,1,$1+$1,$4,$5,$6,$7,0*
20,1,$1+$1,$6,$7,$8,$9,0*
20,1,$1+$1,$8,$9,$2,$3,0*%
G04 Aperture macros list end*
%ADD10O,1.500000X1.050000*%
%ADD11R,1.500000X1.050000*%
%ADD12C,1.400000*%
%ADD13O,1.400000X1.400000*%
%ADD14O,1.700000X2.400000*%
%ADD15R,1.800000X1.800000*%
%ADD16C,1.800000*%
%ADD17R,1.700000X1.700000*%
%ADD18O,1.700000X1.700000*%
%ADD19C,1.600000*%
%ADD20R,2.400000X1.600000*%
%ADD21O,2.400000X1.600000*%
%ADD22R,2.200000X2.200000*%
%ADD23O,2.200000X2.200000*%
%ADD24C,3.200000*%
%ADD25C,1.700000*%
%ADD26O,5.000000X3.500000*%
%ADD27C,2.000000*%
%ADD28RoundRect,0.875000X-0.875000X-0.875000X0.875000X-0.875000X0.875000X0.875000X-0.875000X0.875000X0*%
%ADD29RoundRect,0.750000X-0.750000X-1.000000X0.750000X-1.000000X0.750000X1.000000X-0.750000X1.000000X0*%
%ADD30R,3.500000X3.500000*%
%ADD31C,1.524000*%
%ADD32C,1.500000*%
G04 APERTURE END LIST*
D10*
%TO.C,U3*%
X81280000Y-63500000D03*
X81280000Y-64770000D03*
D11*
X81280000Y-66040000D03*
D10*
X81280000Y-67310000D03*
X81280000Y-68580000D03*
%TD*%
D12*
%TO.C,R8*%
X106680000Y-58420000D03*
D13*
X106680000Y-53340000D03*
%TD*%
D14*
%TO.C,J6*%
X127000000Y-81280000D03*
X129540000Y-81280000D03*
X132080000Y-81280000D03*
X134620000Y-81280000D03*
X137160000Y-81280000D03*
X139700000Y-81280000D03*
%TD*%
%TO.C,J8*%
X104140000Y-81280000D03*
X106680000Y-81280000D03*
X109220000Y-81280000D03*
X111760000Y-81280000D03*
X114300000Y-81280000D03*
X116840000Y-81280000D03*
X119380000Y-81280000D03*
X121920000Y-81280000D03*
%TD*%
D15*
%TO.C,D1*%
X114300000Y-63500000D03*
D16*
X111760000Y-63500000D03*
%TD*%
D17*
%TO.C,J3*%
X139700000Y-53340000D03*
D18*
X142240000Y-53340000D03*
X139700000Y-55880000D03*
X142240000Y-55880000D03*
X139700000Y-58420000D03*
X142240000Y-58420000D03*
%TD*%
D19*
%TO.C,C8*%
X86400000Y-63500000D03*
X88900000Y-63500000D03*
%TD*%
D12*
%TO.C,F1*%
X83820000Y-36830000D03*
D13*
X78740000Y-36830000D03*
%TD*%
D12*
%TO.C,R4*%
X114300000Y-55880000D03*
D13*
X114300000Y-50800000D03*
%TD*%
D20*
%TO.C,U1*%
X127000000Y-40640000D03*
D21*
X127000000Y-43180000D03*
X127000000Y-45720000D03*
X127000000Y-48260000D03*
X127000000Y-50800000D03*
X127000000Y-53340000D03*
X127000000Y-55880000D03*
X127000000Y-58420000D03*
X127000000Y-60960000D03*
X127000000Y-63500000D03*
X127000000Y-66040000D03*
X127000000Y-68580000D03*
X127000000Y-71120000D03*
X127000000Y-73660000D03*
X134620000Y-73660000D03*
X134620000Y-71120000D03*
X134620000Y-68580000D03*
X134620000Y-66040000D03*
X134620000Y-63500000D03*
X134620000Y-60960000D03*
X134620000Y-58420000D03*
X134620000Y-55880000D03*
X134620000Y-53340000D03*
X134620000Y-50800000D03*
X134620000Y-48260000D03*
X134620000Y-45720000D03*
X134620000Y-43180000D03*
X134620000Y-40640000D03*
%TD*%
D22*
%TO.C,D4*%
X86360000Y-33020000D03*
D23*
X78740000Y-33020000D03*
%TD*%
D12*
%TO.C,R3*%
X111760000Y-55880000D03*
D13*
X111760000Y-50800000D03*
%TD*%
D14*
%TO.C,J7*%
X139700000Y-33020000D03*
X137160000Y-33020000D03*
X134620000Y-33020000D03*
X132080000Y-33020000D03*
X129540000Y-33020000D03*
X127000000Y-33020000D03*
X124460000Y-33020000D03*
X121920000Y-33020000D03*
%TD*%
D24*
%TO.C,REF\u002A\u002A*%
X91440000Y-33020000D03*
X91440000Y-33020000D03*
%TD*%
D12*
%TO.C,R7*%
X78740000Y-58420000D03*
D13*
X83820000Y-58420000D03*
%TD*%
D14*
%TO.C,J9*%
X117856000Y-33020000D03*
X115316000Y-33020000D03*
X112776000Y-33020000D03*
X110236000Y-33020000D03*
X107696000Y-33020000D03*
X105156000Y-33020000D03*
X102616000Y-33020000D03*
X100076000Y-33020000D03*
X97536000Y-33020000D03*
X94996000Y-33020000D03*
%TD*%
D12*
%TO.C,R6*%
X118110000Y-43180000D03*
D13*
X123190000Y-43180000D03*
%TD*%
D17*
%TO.C,J5*%
X106680000Y-50800000D03*
D18*
X106680000Y-48260000D03*
X106680000Y-45720000D03*
X106680000Y-43180000D03*
X106680000Y-40640000D03*
%TD*%
D17*
%TO.C,J1*%
X88530000Y-48220000D03*
D25*
X88530000Y-45720000D03*
X86530000Y-45720000D03*
X86530000Y-48220000D03*
D26*
X83820000Y-52990000D03*
X83820000Y-40950000D03*
%TD*%
D19*
%TO.C,C4*%
X120670000Y-40640000D03*
X123170000Y-40640000D03*
%TD*%
%TO.C,C1*%
X139700000Y-63500000D03*
X139700000Y-66000000D03*
%TD*%
%TO.C,C2*%
X99060000Y-60960000D03*
X101560000Y-60960000D03*
%TD*%
D12*
%TO.C,R2*%
X104140000Y-63500000D03*
D13*
X109220000Y-63500000D03*
%TD*%
D27*
%TO.C,SW1*%
X108510000Y-68870000D03*
X115010000Y-68870000D03*
X108510000Y-73370000D03*
X115010000Y-73370000D03*
%TD*%
D19*
%TO.C,C9*%
X121920000Y-53340000D03*
X119420000Y-53340000D03*
%TD*%
D25*
%TO.C,J4*%
X93980000Y-73660000D03*
D18*
X93980000Y-76200000D03*
X93980000Y-78740000D03*
X93980000Y-81280000D03*
%TD*%
D15*
%TO.C,D5*%
X88900000Y-58420000D03*
D16*
X86360000Y-58420000D03*
%TD*%
D19*
%TO.C,C7*%
X86400000Y-68580000D03*
X88900000Y-68580000D03*
%TD*%
D15*
%TO.C,D2*%
X114300000Y-46482000D03*
D16*
X111760000Y-46482000D03*
%TD*%
D28*
%TO.C,J2*%
X83360000Y-81280000D03*
D29*
X80360000Y-76580000D03*
D30*
X86360000Y-76580000D03*
%TD*%
D19*
%TO.C,C3*%
X96520000Y-60960000D03*
X94020000Y-60960000D03*
%TD*%
D24*
%TO.C,REF\u002A\u002A*%
X142240000Y-76200000D03*
X142240000Y-76200000D03*
%TD*%
D25*
%TO.C,J10*%
X96520000Y-73660000D03*
D18*
X96520000Y-76200000D03*
X96520000Y-78740000D03*
X96520000Y-81280000D03*
%TD*%
D19*
%TO.C,C5*%
X119380000Y-73660000D03*
X121880000Y-73660000D03*
%TD*%
D12*
%TO.C,R1*%
X104140000Y-73660000D03*
D13*
X104140000Y-68580000D03*
%TD*%
D20*
%TO.C,U2*%
X101600000Y-55885000D03*
D21*
X101600000Y-53345000D03*
X101600000Y-50805000D03*
X101600000Y-48265000D03*
X101600000Y-45725000D03*
X101600000Y-43185000D03*
X101600000Y-40645000D03*
X93980000Y-40645000D03*
X93980000Y-43185000D03*
X93980000Y-45725000D03*
X93980000Y-48265000D03*
X93980000Y-50805000D03*
X93980000Y-53345000D03*
X93980000Y-55885000D03*
%TD*%
D15*
%TO.C,D3*%
X114305000Y-42418000D03*
D16*
X111765000Y-42418000D03*
%TD*%
D31*
%TO.C,Y1*%
X120650000Y-66040000D03*
D32*
X120650000Y-68380000D03*
X120650000Y-63500000D03*
%TD*%
D19*
%TO.C,C6*%
X119420000Y-58420000D03*
X121920000Y-58420000D03*
%TD*%
D24*
%TO.C,REF\u002A\u002A*%
X142240000Y-48260000D03*
X142240000Y-48260000D03*
%TD*%
D12*
%TO.C,R5*%
X118110000Y-45720000D03*
D13*
X123190000Y-45720000D03*
%TD*%
D24*
%TO.C,REF\u002A\u002A*%
X90170000Y-81280000D03*
%TD*%
D25*
%TO.C,J11*%
X99060000Y-73660000D03*
D18*
X99060000Y-76200000D03*
X99060000Y-78740000D03*
X99060000Y-81280000D03*
%TD*%
M02*
