%TF.GenerationSoftware,KiCad,Pcbnew,7.0.2-0*%
%TF.CreationDate,2023-06-19T14:56:50-07:00*%
%TF.ProjectId,DIPduino,44495064-7569-46e6-9f2e-6b696361645f,rev?*%
%TF.SameCoordinates,Original*%
%TF.FileFunction,Drillmap*%
%TF.FilePolarity,Positive*%
%FSLAX45Y45*%
G04 Gerber Fmt 4.5, Leading zero omitted, Abs format (unit mm)*
G04 Created by KiCad (PCBNEW 7.0.2-0) date 2023-06-19 14:56:50*
%MOMM*%
%LPD*%
G01*
G04 APERTURE LIST*
%ADD10C,0.100000*%
%ADD11C,0.200000*%
%ADD12C,0.040000*%
%ADD13C,0.070000*%
%ADD14C,0.075000*%
%ADD15C,0.076200*%
%ADD16C,0.080000*%
%ADD17C,0.090000*%
%ADD18C,0.092000*%
%ADD19C,0.110000*%
%ADD20C,0.233000*%
G04 APERTURE END LIST*
D10*
X14224000Y-3200400D02*
X14224000Y-4343400D01*
X14478000Y-4597400D01*
X14478000Y-7874000D01*
X14224000Y-8128000D01*
X14224000Y-8382000D01*
X7620000Y-8382000D01*
X7620000Y-3048000D01*
X14071600Y-3048000D01*
X14224000Y-3200400D01*
D11*
D12*
X9733600Y-3866200D02*
X9773600Y-3906200D01*
X9773600Y-3866200D02*
X9733600Y-3906200D01*
X11016300Y-7257100D02*
X11056300Y-7297100D01*
X11056300Y-7257100D02*
X11016300Y-7297100D01*
X11130600Y-7333300D02*
X11170600Y-7373300D01*
X11170600Y-7333300D02*
X11130600Y-7373300D01*
X11511600Y-3688400D02*
X11551600Y-3728400D01*
X11551600Y-3688400D02*
X11511600Y-3728400D01*
X11765600Y-3688400D02*
X11805600Y-3728400D01*
X11805600Y-3688400D02*
X11765600Y-3728400D01*
X12959400Y-3688400D02*
X12999400Y-3728400D01*
X12999400Y-3688400D02*
X12959400Y-3728400D01*
X13061000Y-3688400D02*
X13101000Y-3728400D01*
X13101000Y-3688400D02*
X13061000Y-3728400D01*
X13061000Y-7473000D02*
X13101000Y-7513000D01*
X13101000Y-7473000D02*
X13061000Y-7513000D01*
X13111800Y-4679000D02*
X13151800Y-4719000D01*
X13151800Y-4679000D02*
X13111800Y-4719000D01*
X13129950Y-4425000D02*
X13169950Y-4465000D01*
X13169950Y-4425000D02*
X13129950Y-4465000D01*
X13162600Y-3688400D02*
X13202600Y-3728400D01*
X13202600Y-3688400D02*
X13162600Y-3728400D01*
X13162600Y-4145600D02*
X13202600Y-4185600D01*
X13202600Y-4145600D02*
X13162600Y-4185600D01*
X13188000Y-5314000D02*
X13228000Y-5354000D01*
X13228000Y-5314000D02*
X13188000Y-5354000D01*
X13188000Y-7473000D02*
X13228000Y-7513000D01*
X13228000Y-7473000D02*
X13188000Y-7513000D01*
X13264200Y-3764600D02*
X13304200Y-3804600D01*
X13304200Y-3764600D02*
X13264200Y-3804600D01*
X13416600Y-3840800D02*
X13456600Y-3880800D01*
X13456600Y-3840800D02*
X13416600Y-3880800D01*
X13492800Y-3688400D02*
X13532800Y-3728400D01*
X13532800Y-3688400D02*
X13492800Y-3728400D01*
X13569000Y-6203000D02*
X13609000Y-6243000D01*
X13609000Y-6203000D02*
X13569000Y-6243000D01*
X13835700Y-7600000D02*
X13875700Y-7640000D01*
X13875700Y-7600000D02*
X13835700Y-7640000D01*
X13848400Y-7066600D02*
X13888400Y-7106600D01*
X13888400Y-7066600D02*
X13848400Y-7106600D01*
X13861100Y-4679000D02*
X13901100Y-4719000D01*
X13901100Y-4679000D02*
X13861100Y-4719000D01*
X13886500Y-6926900D02*
X13926500Y-6966900D01*
X13926500Y-6926900D02*
X13886500Y-6966900D01*
X13899200Y-7384100D02*
X13939200Y-7424100D01*
X13939200Y-7384100D02*
X13899200Y-7424100D01*
X13950000Y-6774500D02*
X13990000Y-6814500D01*
X13990000Y-6774500D02*
X13950000Y-6814500D01*
X14077000Y-5999800D02*
X14117000Y-6039800D01*
X14117000Y-5999800D02*
X14077000Y-6039800D01*
D13*
X7909000Y-3683000D02*
G75*
G03*
X7909000Y-3683000I-35000J0D01*
G01*
X7909000Y-5842000D02*
G75*
G03*
X7909000Y-5842000I-35000J0D01*
G01*
X8417000Y-3683000D02*
G75*
G03*
X8417000Y-3683000I-35000J0D01*
G01*
X8417000Y-5842000D02*
G75*
G03*
X8417000Y-5842000I-35000J0D01*
G01*
X10449000Y-6350000D02*
G75*
G03*
X10449000Y-6350000I-35000J0D01*
G01*
X10449000Y-6858000D02*
G75*
G03*
X10449000Y-6858000I-35000J0D01*
G01*
X10449000Y-7366000D02*
G75*
G03*
X10449000Y-7366000I-35000J0D01*
G01*
X10703000Y-5334000D02*
G75*
G03*
X10703000Y-5334000I-35000J0D01*
G01*
X10703000Y-5842000D02*
G75*
G03*
X10703000Y-5842000I-35000J0D01*
G01*
X10957000Y-6350000D02*
G75*
G03*
X10957000Y-6350000I-35000J0D01*
G01*
X11211000Y-5080000D02*
G75*
G03*
X11211000Y-5080000I-35000J0D01*
G01*
X11211000Y-5588000D02*
G75*
G03*
X11211000Y-5588000I-35000J0D01*
G01*
X11465000Y-5080000D02*
G75*
G03*
X11465000Y-5080000I-35000J0D01*
G01*
X11465000Y-5588000D02*
G75*
G03*
X11465000Y-5588000I-35000J0D01*
G01*
X11846000Y-4318000D02*
G75*
G03*
X11846000Y-4318000I-35000J0D01*
G01*
X11846000Y-4572000D02*
G75*
G03*
X11846000Y-4572000I-35000J0D01*
G01*
X12354000Y-4318000D02*
G75*
G03*
X12354000Y-4318000I-35000J0D01*
G01*
X12354000Y-4572000D02*
G75*
G03*
X12354000Y-4572000I-35000J0D01*
G01*
D14*
X8128000Y-6439500D02*
X8128000Y-6514500D01*
X8090500Y-6477000D02*
X8165500Y-6477000D01*
X8128000Y-6566500D02*
X8128000Y-6641500D01*
X8090500Y-6604000D02*
X8165500Y-6604000D01*
X8128000Y-6693500D02*
X8128000Y-6768500D01*
X8090500Y-6731000D02*
X8165500Y-6731000D01*
D15*
X8154941Y-6376941D02*
X8154941Y-6323059D01*
X8101059Y-6323059D01*
X8101059Y-6376941D01*
X8154941Y-6376941D01*
X8154941Y-6884941D02*
X8154941Y-6831059D01*
X8101059Y-6831059D01*
X8101059Y-6884941D01*
X8154941Y-6884941D01*
X12091941Y-6630941D02*
X12091941Y-6577059D01*
X12038059Y-6577059D01*
X12038059Y-6630941D01*
X12091941Y-6630941D01*
D16*
X9522950Y-7128943D02*
X9562950Y-7088943D01*
X9522950Y-7048943D01*
X9482950Y-7088943D01*
X9522950Y-7128943D01*
X9779000Y-4358000D02*
X9819000Y-4318000D01*
X9779000Y-4278000D01*
X9739000Y-4318000D01*
X9779000Y-4358000D01*
X9906000Y-6644000D02*
X9946000Y-6604000D01*
X9906000Y-6564000D01*
X9866000Y-6604000D01*
X9906000Y-6644000D01*
X10541000Y-6644000D02*
X10581000Y-6604000D01*
X10541000Y-6564000D01*
X10501000Y-6604000D01*
X10541000Y-6644000D01*
X11176000Y-6644000D02*
X11216000Y-6604000D01*
X11176000Y-6564000D01*
X11136000Y-6604000D01*
X11176000Y-6644000D01*
X13120950Y-6136000D02*
X13160950Y-6096000D01*
X13120950Y-6056000D01*
X13080950Y-6096000D01*
X13120950Y-6136000D01*
X8600000Y-6310000D02*
X8680000Y-6390000D01*
X8680000Y-6310000D02*
X8600000Y-6390000D01*
X8680000Y-6350000D02*
G75*
G03*
X8680000Y-6350000I-40000J0D01*
G01*
X8600000Y-6818000D02*
X8680000Y-6898000D01*
X8680000Y-6818000D02*
X8600000Y-6898000D01*
X8680000Y-6858000D02*
G75*
G03*
X8680000Y-6858000I-40000J0D01*
G01*
X8850000Y-6310000D02*
X8930000Y-6390000D01*
X8930000Y-6310000D02*
X8850000Y-6390000D01*
X8930000Y-6350000D02*
G75*
G03*
X8930000Y-6350000I-40000J0D01*
G01*
X8850000Y-6818000D02*
X8930000Y-6898000D01*
X8930000Y-6818000D02*
X8850000Y-6898000D01*
X8930000Y-6858000D02*
G75*
G03*
X8930000Y-6858000I-40000J0D01*
G01*
X9358000Y-4024500D02*
X9438000Y-4104500D01*
X9438000Y-4024500D02*
X9358000Y-4104500D01*
X9438000Y-4064500D02*
G75*
G03*
X9438000Y-4064500I-40000J0D01*
G01*
X9358000Y-4278500D02*
X9438000Y-4358500D01*
X9438000Y-4278500D02*
X9358000Y-4358500D01*
X9438000Y-4318500D02*
G75*
G03*
X9438000Y-4318500I-40000J0D01*
G01*
X9358000Y-4532500D02*
X9438000Y-4612500D01*
X9438000Y-4532500D02*
X9358000Y-4612500D01*
X9438000Y-4572500D02*
G75*
G03*
X9438000Y-4572500I-40000J0D01*
G01*
X9358000Y-4786500D02*
X9438000Y-4866500D01*
X9438000Y-4786500D02*
X9358000Y-4866500D01*
X9438000Y-4826500D02*
G75*
G03*
X9438000Y-4826500I-40000J0D01*
G01*
X9358000Y-5040500D02*
X9438000Y-5120500D01*
X9438000Y-5040500D02*
X9358000Y-5120500D01*
X9438000Y-5080500D02*
G75*
G03*
X9438000Y-5080500I-40000J0D01*
G01*
X9358000Y-5294500D02*
X9438000Y-5374500D01*
X9438000Y-5294500D02*
X9358000Y-5374500D01*
X9438000Y-5334500D02*
G75*
G03*
X9438000Y-5334500I-40000J0D01*
G01*
X9358000Y-5548500D02*
X9438000Y-5628500D01*
X9438000Y-5548500D02*
X9358000Y-5628500D01*
X9438000Y-5588500D02*
G75*
G03*
X9438000Y-5588500I-40000J0D01*
G01*
X9362000Y-6056000D02*
X9442000Y-6136000D01*
X9442000Y-6056000D02*
X9362000Y-6136000D01*
X9442000Y-6096000D02*
G75*
G03*
X9442000Y-6096000I-40000J0D01*
G01*
X9612000Y-6056000D02*
X9692000Y-6136000D01*
X9692000Y-6056000D02*
X9612000Y-6136000D01*
X9692000Y-6096000D02*
G75*
G03*
X9692000Y-6096000I-40000J0D01*
G01*
X9866000Y-6056000D02*
X9946000Y-6136000D01*
X9946000Y-6056000D02*
X9866000Y-6136000D01*
X9946000Y-6096000D02*
G75*
G03*
X9946000Y-6096000I-40000J0D01*
G01*
X10116000Y-6056000D02*
X10196000Y-6136000D01*
X10196000Y-6056000D02*
X10116000Y-6136000D01*
X10196000Y-6096000D02*
G75*
G03*
X10196000Y-6096000I-40000J0D01*
G01*
X10120000Y-4024500D02*
X10200000Y-4104500D01*
X10200000Y-4024500D02*
X10120000Y-4104500D01*
X10200000Y-4064500D02*
G75*
G03*
X10200000Y-4064500I-40000J0D01*
G01*
X10120000Y-4278500D02*
X10200000Y-4358500D01*
X10200000Y-4278500D02*
X10120000Y-4358500D01*
X10200000Y-4318500D02*
G75*
G03*
X10200000Y-4318500I-40000J0D01*
G01*
X10120000Y-4532500D02*
X10200000Y-4612500D01*
X10200000Y-4532500D02*
X10120000Y-4612500D01*
X10200000Y-4572500D02*
G75*
G03*
X10200000Y-4572500I-40000J0D01*
G01*
X10120000Y-4786500D02*
X10200000Y-4866500D01*
X10200000Y-4786500D02*
X10120000Y-4866500D01*
X10200000Y-4826500D02*
G75*
G03*
X10200000Y-4826500I-40000J0D01*
G01*
X10120000Y-5040500D02*
X10200000Y-5120500D01*
X10200000Y-5040500D02*
X10120000Y-5120500D01*
X10200000Y-5080500D02*
G75*
G03*
X10200000Y-5080500I-40000J0D01*
G01*
X10120000Y-5294500D02*
X10200000Y-5374500D01*
X10200000Y-5294500D02*
X10120000Y-5374500D01*
X10200000Y-5334500D02*
G75*
G03*
X10200000Y-5334500I-40000J0D01*
G01*
X10120000Y-5548500D02*
X10200000Y-5628500D01*
X10200000Y-5548500D02*
X10120000Y-5628500D01*
X10200000Y-5588500D02*
G75*
G03*
X10200000Y-5588500I-40000J0D01*
G01*
X11898000Y-7326000D02*
X11978000Y-7406000D01*
X11978000Y-7326000D02*
X11898000Y-7406000D01*
X11978000Y-7366000D02*
G75*
G03*
X11978000Y-7366000I-40000J0D01*
G01*
X11902000Y-5294000D02*
X11982000Y-5374000D01*
X11982000Y-5294000D02*
X11902000Y-5374000D01*
X11982000Y-5334000D02*
G75*
G03*
X11982000Y-5334000I-40000J0D01*
G01*
X11902000Y-5802000D02*
X11982000Y-5882000D01*
X11982000Y-5802000D02*
X11902000Y-5882000D01*
X11982000Y-5842000D02*
G75*
G03*
X11982000Y-5842000I-40000J0D01*
G01*
X12025000Y-6310000D02*
X12105000Y-6390000D01*
X12105000Y-6310000D02*
X12025000Y-6390000D01*
X12105000Y-6350000D02*
G75*
G03*
X12105000Y-6350000I-40000J0D01*
G01*
X12025000Y-6798000D02*
X12105000Y-6878000D01*
X12105000Y-6798000D02*
X12025000Y-6878000D01*
X12105000Y-6838000D02*
G75*
G03*
X12105000Y-6838000I-40000J0D01*
G01*
X12027000Y-4024000D02*
X12107000Y-4104000D01*
X12107000Y-4024000D02*
X12027000Y-4104000D01*
X12107000Y-4064000D02*
G75*
G03*
X12107000Y-4064000I-40000J0D01*
G01*
X12148000Y-7326000D02*
X12228000Y-7406000D01*
X12228000Y-7326000D02*
X12148000Y-7406000D01*
X12228000Y-7366000D02*
G75*
G03*
X12228000Y-7366000I-40000J0D01*
G01*
X12152000Y-5294000D02*
X12232000Y-5374000D01*
X12232000Y-5294000D02*
X12152000Y-5374000D01*
X12232000Y-5334000D02*
G75*
G03*
X12232000Y-5334000I-40000J0D01*
G01*
X12152000Y-5802000D02*
X12232000Y-5882000D01*
X12232000Y-5802000D02*
X12152000Y-5882000D01*
X12232000Y-5842000D02*
G75*
G03*
X12232000Y-5842000I-40000J0D01*
G01*
X12277000Y-4024000D02*
X12357000Y-4104000D01*
X12357000Y-4024000D02*
X12277000Y-4104000D01*
X12357000Y-4064000D02*
G75*
G03*
X12357000Y-4064000I-40000J0D01*
G01*
X12660000Y-4024000D02*
X12740000Y-4104000D01*
X12740000Y-4024000D02*
X12660000Y-4104000D01*
X12740000Y-4064000D02*
G75*
G03*
X12740000Y-4064000I-40000J0D01*
G01*
X12660000Y-4278000D02*
X12740000Y-4358000D01*
X12740000Y-4278000D02*
X12660000Y-4358000D01*
X12740000Y-4318000D02*
G75*
G03*
X12740000Y-4318000I-40000J0D01*
G01*
X12660000Y-4532000D02*
X12740000Y-4612000D01*
X12740000Y-4532000D02*
X12660000Y-4612000D01*
X12740000Y-4572000D02*
G75*
G03*
X12740000Y-4572000I-40000J0D01*
G01*
X12660000Y-4786000D02*
X12740000Y-4866000D01*
X12740000Y-4786000D02*
X12660000Y-4866000D01*
X12740000Y-4826000D02*
G75*
G03*
X12740000Y-4826000I-40000J0D01*
G01*
X12660000Y-5040000D02*
X12740000Y-5120000D01*
X12740000Y-5040000D02*
X12660000Y-5120000D01*
X12740000Y-5080000D02*
G75*
G03*
X12740000Y-5080000I-40000J0D01*
G01*
X12660000Y-5294000D02*
X12740000Y-5374000D01*
X12740000Y-5294000D02*
X12660000Y-5374000D01*
X12740000Y-5334000D02*
G75*
G03*
X12740000Y-5334000I-40000J0D01*
G01*
X12660000Y-5548000D02*
X12740000Y-5628000D01*
X12740000Y-5548000D02*
X12660000Y-5628000D01*
X12740000Y-5588000D02*
G75*
G03*
X12740000Y-5588000I-40000J0D01*
G01*
X12660000Y-5802000D02*
X12740000Y-5882000D01*
X12740000Y-5802000D02*
X12660000Y-5882000D01*
X12740000Y-5842000D02*
G75*
G03*
X12740000Y-5842000I-40000J0D01*
G01*
X12660000Y-6056000D02*
X12740000Y-6136000D01*
X12740000Y-6056000D02*
X12660000Y-6136000D01*
X12740000Y-6096000D02*
G75*
G03*
X12740000Y-6096000I-40000J0D01*
G01*
X12660000Y-6310000D02*
X12740000Y-6390000D01*
X12740000Y-6310000D02*
X12660000Y-6390000D01*
X12740000Y-6350000D02*
G75*
G03*
X12740000Y-6350000I-40000J0D01*
G01*
X12660000Y-6564000D02*
X12740000Y-6644000D01*
X12740000Y-6564000D02*
X12660000Y-6644000D01*
X12740000Y-6604000D02*
G75*
G03*
X12740000Y-6604000I-40000J0D01*
G01*
X12660000Y-6818000D02*
X12740000Y-6898000D01*
X12740000Y-6818000D02*
X12660000Y-6898000D01*
X12740000Y-6858000D02*
G75*
G03*
X12740000Y-6858000I-40000J0D01*
G01*
X12660000Y-7072000D02*
X12740000Y-7152000D01*
X12740000Y-7072000D02*
X12660000Y-7152000D01*
X12740000Y-7112000D02*
G75*
G03*
X12740000Y-7112000I-40000J0D01*
G01*
X12660000Y-7326000D02*
X12740000Y-7406000D01*
X12740000Y-7326000D02*
X12660000Y-7406000D01*
X12740000Y-7366000D02*
G75*
G03*
X12740000Y-7366000I-40000J0D01*
G01*
X13422000Y-4024000D02*
X13502000Y-4104000D01*
X13502000Y-4024000D02*
X13422000Y-4104000D01*
X13502000Y-4064000D02*
G75*
G03*
X13502000Y-4064000I-40000J0D01*
G01*
X13422000Y-4278000D02*
X13502000Y-4358000D01*
X13502000Y-4278000D02*
X13422000Y-4358000D01*
X13502000Y-4318000D02*
G75*
G03*
X13502000Y-4318000I-40000J0D01*
G01*
X13422000Y-4532000D02*
X13502000Y-4612000D01*
X13502000Y-4532000D02*
X13422000Y-4612000D01*
X13502000Y-4572000D02*
G75*
G03*
X13502000Y-4572000I-40000J0D01*
G01*
X13422000Y-4786000D02*
X13502000Y-4866000D01*
X13502000Y-4786000D02*
X13422000Y-4866000D01*
X13502000Y-4826000D02*
G75*
G03*
X13502000Y-4826000I-40000J0D01*
G01*
X13422000Y-5040000D02*
X13502000Y-5120000D01*
X13502000Y-5040000D02*
X13422000Y-5120000D01*
X13502000Y-5080000D02*
G75*
G03*
X13502000Y-5080000I-40000J0D01*
G01*
X13422000Y-5294000D02*
X13502000Y-5374000D01*
X13502000Y-5294000D02*
X13422000Y-5374000D01*
X13502000Y-5334000D02*
G75*
G03*
X13502000Y-5334000I-40000J0D01*
G01*
X13422000Y-5548000D02*
X13502000Y-5628000D01*
X13502000Y-5548000D02*
X13422000Y-5628000D01*
X13502000Y-5588000D02*
G75*
G03*
X13502000Y-5588000I-40000J0D01*
G01*
X13422000Y-5802000D02*
X13502000Y-5882000D01*
X13502000Y-5802000D02*
X13422000Y-5882000D01*
X13502000Y-5842000D02*
G75*
G03*
X13502000Y-5842000I-40000J0D01*
G01*
X13422000Y-6056000D02*
X13502000Y-6136000D01*
X13502000Y-6056000D02*
X13422000Y-6136000D01*
X13502000Y-6096000D02*
G75*
G03*
X13502000Y-6096000I-40000J0D01*
G01*
X13422000Y-6310000D02*
X13502000Y-6390000D01*
X13502000Y-6310000D02*
X13422000Y-6390000D01*
X13502000Y-6350000D02*
G75*
G03*
X13502000Y-6350000I-40000J0D01*
G01*
X13422000Y-6564000D02*
X13502000Y-6644000D01*
X13502000Y-6564000D02*
X13422000Y-6644000D01*
X13502000Y-6604000D02*
G75*
G03*
X13502000Y-6604000I-40000J0D01*
G01*
X13422000Y-6818000D02*
X13502000Y-6898000D01*
X13502000Y-6818000D02*
X13422000Y-6898000D01*
X13502000Y-6858000D02*
G75*
G03*
X13502000Y-6858000I-40000J0D01*
G01*
X13422000Y-7072000D02*
X13502000Y-7152000D01*
X13502000Y-7072000D02*
X13422000Y-7152000D01*
X13502000Y-7112000D02*
G75*
G03*
X13502000Y-7112000I-40000J0D01*
G01*
X13422000Y-7326000D02*
X13502000Y-7406000D01*
X13502000Y-7326000D02*
X13422000Y-7406000D01*
X13502000Y-7366000D02*
G75*
G03*
X13502000Y-7366000I-40000J0D01*
G01*
X13930000Y-6310000D02*
X14010000Y-6390000D01*
X14010000Y-6310000D02*
X13930000Y-6390000D01*
X14010000Y-6350000D02*
G75*
G03*
X14010000Y-6350000I-40000J0D01*
G01*
X13930000Y-6560000D02*
X14010000Y-6640000D01*
X14010000Y-6560000D02*
X13930000Y-6640000D01*
X14010000Y-6600000D02*
G75*
G03*
X14010000Y-6600000I-40000J0D01*
G01*
D17*
X8591000Y-5797000D02*
X8681000Y-5887000D01*
X8681000Y-5797000D02*
X8591000Y-5887000D01*
X8636000Y-5797000D02*
X8636000Y-5887000D01*
X8591000Y-5842000D02*
X8681000Y-5842000D01*
X8845000Y-5797000D02*
X8935000Y-5887000D01*
X8935000Y-5797000D02*
X8845000Y-5887000D01*
X8890000Y-5797000D02*
X8890000Y-5887000D01*
X8845000Y-5842000D02*
X8935000Y-5842000D01*
X11131000Y-4603200D02*
X11221000Y-4693200D01*
X11221000Y-4603200D02*
X11131000Y-4693200D01*
X11176000Y-4603200D02*
X11176000Y-4693200D01*
X11131000Y-4648200D02*
X11221000Y-4648200D01*
X11131000Y-6305000D02*
X11221000Y-6395000D01*
X11221000Y-6305000D02*
X11131000Y-6395000D01*
X11176000Y-6305000D02*
X11176000Y-6395000D01*
X11131000Y-6350000D02*
X11221000Y-6350000D01*
X11131500Y-4196800D02*
X11221500Y-4286800D01*
X11221500Y-4196800D02*
X11131500Y-4286800D01*
X11176500Y-4196800D02*
X11176500Y-4286800D01*
X11131500Y-4241800D02*
X11221500Y-4241800D01*
X11385000Y-4603200D02*
X11475000Y-4693200D01*
X11475000Y-4603200D02*
X11385000Y-4693200D01*
X11430000Y-4603200D02*
X11430000Y-4693200D01*
X11385000Y-4648200D02*
X11475000Y-4648200D01*
X11385000Y-6305000D02*
X11475000Y-6395000D01*
X11475000Y-6305000D02*
X11385000Y-6395000D01*
X11430000Y-6305000D02*
X11430000Y-6395000D01*
X11385000Y-6350000D02*
X11475000Y-6350000D01*
X11385500Y-4196800D02*
X11475500Y-4286800D01*
X11475500Y-4196800D02*
X11385500Y-4286800D01*
X11430500Y-4196800D02*
X11430500Y-4286800D01*
X11385500Y-4241800D02*
X11475500Y-4241800D01*
D18*
X8607000Y-4526000D02*
X8699000Y-4618000D01*
X8699000Y-4526000D02*
X8607000Y-4618000D01*
X8685527Y-4604527D02*
X8685527Y-4539473D01*
X8620473Y-4539473D01*
X8620473Y-4604527D01*
X8685527Y-4604527D01*
X8607000Y-4776000D02*
X8699000Y-4868000D01*
X8699000Y-4776000D02*
X8607000Y-4868000D01*
X8685527Y-4854527D02*
X8685527Y-4789473D01*
X8620473Y-4789473D01*
X8620473Y-4854527D01*
X8685527Y-4854527D01*
X8807000Y-4526000D02*
X8899000Y-4618000D01*
X8899000Y-4526000D02*
X8807000Y-4618000D01*
X8885527Y-4604527D02*
X8885527Y-4539473D01*
X8820473Y-4539473D01*
X8820473Y-4604527D01*
X8885527Y-4604527D01*
X8807000Y-4776000D02*
X8899000Y-4868000D01*
X8899000Y-4776000D02*
X8807000Y-4868000D01*
X8885527Y-4854527D02*
X8885527Y-4789473D01*
X8820473Y-4789473D01*
X8820473Y-4854527D01*
X8885527Y-4854527D01*
D10*
X7986000Y-7608000D02*
X8086000Y-7708000D01*
X8086000Y-7608000D02*
X7986000Y-7708000D01*
X8036000Y-7708000D02*
X8086000Y-7658000D01*
X8036000Y-7608000D01*
X7986000Y-7658000D01*
X8036000Y-7708000D01*
D11*
X7986000Y-7558000D02*
X7986000Y-7758000D01*
X7986000Y-7758000D02*
G75*
G03*
X8086000Y-7758000I50000J0D01*
G01*
X8086000Y-7758000D02*
X8086000Y-7558000D01*
X8086000Y-7558000D02*
G75*
G03*
X7986000Y-7558000I-50000J0D01*
G01*
D10*
X8286000Y-8078000D02*
X8386000Y-8178000D01*
X8386000Y-8078000D02*
X8286000Y-8178000D01*
X8336000Y-8178000D02*
X8386000Y-8128000D01*
X8336000Y-8078000D01*
X8286000Y-8128000D01*
X8336000Y-8178000D01*
D11*
X8236000Y-8178000D02*
X8436000Y-8178000D01*
X8436000Y-8178000D02*
G75*
G03*
X8436000Y-8078000I0J50000D01*
G01*
X8436000Y-8078000D02*
X8236000Y-8078000D01*
X8236000Y-8078000D02*
G75*
G03*
X8236000Y-8178000I0J-50000D01*
G01*
D10*
X8586000Y-7608000D02*
X8686000Y-7708000D01*
X8686000Y-7608000D02*
X8586000Y-7708000D01*
X8636000Y-7708000D02*
X8686000Y-7658000D01*
X8636000Y-7608000D01*
X8586000Y-7658000D01*
X8636000Y-7708000D01*
D11*
X8586000Y-7558000D02*
X8586000Y-7758000D01*
X8586000Y-7758000D02*
G75*
G03*
X8686000Y-7758000I50000J0D01*
G01*
X8686000Y-7758000D02*
X8686000Y-7558000D01*
X8686000Y-7558000D02*
G75*
G03*
X8586000Y-7558000I-50000J0D01*
G01*
D10*
X9348000Y-7316000D02*
X9448000Y-7416000D01*
X9448000Y-7316000D02*
X9348000Y-7416000D01*
X9398000Y-7416000D02*
X9448000Y-7366000D01*
X9398000Y-7316000D01*
X9348000Y-7366000D01*
X9398000Y-7416000D01*
X9348000Y-7570000D02*
X9448000Y-7670000D01*
X9448000Y-7570000D02*
X9348000Y-7670000D01*
X9398000Y-7670000D02*
X9448000Y-7620000D01*
X9398000Y-7570000D01*
X9348000Y-7620000D01*
X9398000Y-7670000D01*
X9348000Y-7824000D02*
X9448000Y-7924000D01*
X9448000Y-7824000D02*
X9348000Y-7924000D01*
X9398000Y-7924000D02*
X9448000Y-7874000D01*
X9398000Y-7824000D01*
X9348000Y-7874000D01*
X9398000Y-7924000D01*
X9348000Y-8078000D02*
X9448000Y-8178000D01*
X9448000Y-8078000D02*
X9348000Y-8178000D01*
X9398000Y-8178000D02*
X9448000Y-8128000D01*
X9398000Y-8078000D01*
X9348000Y-8128000D01*
X9398000Y-8178000D01*
X9449600Y-3252000D02*
X9549600Y-3352000D01*
X9549600Y-3252000D02*
X9449600Y-3352000D01*
X9499600Y-3352000D02*
X9549600Y-3302000D01*
X9499600Y-3252000D01*
X9449600Y-3302000D01*
X9499600Y-3352000D01*
X9602000Y-7316000D02*
X9702000Y-7416000D01*
X9702000Y-7316000D02*
X9602000Y-7416000D01*
X9652000Y-7416000D02*
X9702000Y-7366000D01*
X9652000Y-7316000D01*
X9602000Y-7366000D01*
X9652000Y-7416000D01*
X9602000Y-7570000D02*
X9702000Y-7670000D01*
X9702000Y-7570000D02*
X9602000Y-7670000D01*
X9652000Y-7670000D02*
X9702000Y-7620000D01*
X9652000Y-7570000D01*
X9602000Y-7620000D01*
X9652000Y-7670000D01*
X9602000Y-7824000D02*
X9702000Y-7924000D01*
X9702000Y-7824000D02*
X9602000Y-7924000D01*
X9652000Y-7924000D02*
X9702000Y-7874000D01*
X9652000Y-7824000D01*
X9602000Y-7874000D01*
X9652000Y-7924000D01*
X9602000Y-8078000D02*
X9702000Y-8178000D01*
X9702000Y-8078000D02*
X9602000Y-8178000D01*
X9652000Y-8178000D02*
X9702000Y-8128000D01*
X9652000Y-8078000D01*
X9602000Y-8128000D01*
X9652000Y-8178000D01*
X9703600Y-3252000D02*
X9803600Y-3352000D01*
X9803600Y-3252000D02*
X9703600Y-3352000D01*
X9753600Y-3352000D02*
X9803600Y-3302000D01*
X9753600Y-3252000D01*
X9703600Y-3302000D01*
X9753600Y-3352000D01*
X9856000Y-7316000D02*
X9956000Y-7416000D01*
X9956000Y-7316000D02*
X9856000Y-7416000D01*
X9906000Y-7416000D02*
X9956000Y-7366000D01*
X9906000Y-7316000D01*
X9856000Y-7366000D01*
X9906000Y-7416000D01*
X9856000Y-7570000D02*
X9956000Y-7670000D01*
X9956000Y-7570000D02*
X9856000Y-7670000D01*
X9906000Y-7670000D02*
X9956000Y-7620000D01*
X9906000Y-7570000D01*
X9856000Y-7620000D01*
X9906000Y-7670000D01*
X9856000Y-7824000D02*
X9956000Y-7924000D01*
X9956000Y-7824000D02*
X9856000Y-7924000D01*
X9906000Y-7924000D02*
X9956000Y-7874000D01*
X9906000Y-7824000D01*
X9856000Y-7874000D01*
X9906000Y-7924000D01*
X9856000Y-8078000D02*
X9956000Y-8178000D01*
X9956000Y-8078000D02*
X9856000Y-8178000D01*
X9906000Y-8178000D02*
X9956000Y-8128000D01*
X9906000Y-8078000D01*
X9856000Y-8128000D01*
X9906000Y-8178000D01*
X9957600Y-3252000D02*
X10057600Y-3352000D01*
X10057600Y-3252000D02*
X9957600Y-3352000D01*
X10007600Y-3352000D02*
X10057600Y-3302000D01*
X10007600Y-3252000D01*
X9957600Y-3302000D01*
X10007600Y-3352000D01*
X10211600Y-3252000D02*
X10311600Y-3352000D01*
X10311600Y-3252000D02*
X10211600Y-3352000D01*
X10261600Y-3352000D02*
X10311600Y-3302000D01*
X10261600Y-3252000D01*
X10211600Y-3302000D01*
X10261600Y-3352000D01*
X10364000Y-8078000D02*
X10464000Y-8178000D01*
X10464000Y-8078000D02*
X10364000Y-8178000D01*
X10414000Y-8178000D02*
X10464000Y-8128000D01*
X10414000Y-8078000D01*
X10364000Y-8128000D01*
X10414000Y-8178000D01*
X10465600Y-3252000D02*
X10565600Y-3352000D01*
X10565600Y-3252000D02*
X10465600Y-3352000D01*
X10515600Y-3352000D02*
X10565600Y-3302000D01*
X10515600Y-3252000D01*
X10465600Y-3302000D01*
X10515600Y-3352000D01*
X10618000Y-4014000D02*
X10718000Y-4114000D01*
X10718000Y-4014000D02*
X10618000Y-4114000D01*
X10668000Y-4114000D02*
X10718000Y-4064000D01*
X10668000Y-4014000D01*
X10618000Y-4064000D01*
X10668000Y-4114000D01*
X10618000Y-4268000D02*
X10718000Y-4368000D01*
X10718000Y-4268000D02*
X10618000Y-4368000D01*
X10668000Y-4368000D02*
X10718000Y-4318000D01*
X10668000Y-4268000D01*
X10618000Y-4318000D01*
X10668000Y-4368000D01*
X10618000Y-4522000D02*
X10718000Y-4622000D01*
X10718000Y-4522000D02*
X10618000Y-4622000D01*
X10668000Y-4622000D02*
X10718000Y-4572000D01*
X10668000Y-4522000D01*
X10618000Y-4572000D01*
X10668000Y-4622000D01*
X10618000Y-4776000D02*
X10718000Y-4876000D01*
X10718000Y-4776000D02*
X10618000Y-4876000D01*
X10668000Y-4876000D02*
X10718000Y-4826000D01*
X10668000Y-4776000D01*
X10618000Y-4826000D01*
X10668000Y-4876000D01*
X10618000Y-5030000D02*
X10718000Y-5130000D01*
X10718000Y-5030000D02*
X10618000Y-5130000D01*
X10668000Y-5130000D02*
X10718000Y-5080000D01*
X10668000Y-5030000D01*
X10618000Y-5080000D01*
X10668000Y-5130000D01*
X10618000Y-8078000D02*
X10718000Y-8178000D01*
X10718000Y-8078000D02*
X10618000Y-8178000D01*
X10668000Y-8178000D02*
X10718000Y-8128000D01*
X10668000Y-8078000D01*
X10618000Y-8128000D01*
X10668000Y-8178000D01*
X10719600Y-3252000D02*
X10819600Y-3352000D01*
X10819600Y-3252000D02*
X10719600Y-3352000D01*
X10769600Y-3352000D02*
X10819600Y-3302000D01*
X10769600Y-3252000D01*
X10719600Y-3302000D01*
X10769600Y-3352000D01*
X10872000Y-8078000D02*
X10972000Y-8178000D01*
X10972000Y-8078000D02*
X10872000Y-8178000D01*
X10922000Y-8178000D02*
X10972000Y-8128000D01*
X10922000Y-8078000D01*
X10872000Y-8128000D01*
X10922000Y-8178000D01*
X10973600Y-3252000D02*
X11073600Y-3352000D01*
X11073600Y-3252000D02*
X10973600Y-3352000D01*
X11023600Y-3352000D02*
X11073600Y-3302000D01*
X11023600Y-3252000D01*
X10973600Y-3302000D01*
X11023600Y-3352000D01*
X11126000Y-8078000D02*
X11226000Y-8178000D01*
X11226000Y-8078000D02*
X11126000Y-8178000D01*
X11176000Y-8178000D02*
X11226000Y-8128000D01*
X11176000Y-8078000D01*
X11126000Y-8128000D01*
X11176000Y-8178000D01*
X11227600Y-3252000D02*
X11327600Y-3352000D01*
X11327600Y-3252000D02*
X11227600Y-3352000D01*
X11277600Y-3352000D02*
X11327600Y-3302000D01*
X11277600Y-3252000D01*
X11227600Y-3302000D01*
X11277600Y-3352000D01*
X11380000Y-8078000D02*
X11480000Y-8178000D01*
X11480000Y-8078000D02*
X11380000Y-8178000D01*
X11430000Y-8178000D02*
X11480000Y-8128000D01*
X11430000Y-8078000D01*
X11380000Y-8128000D01*
X11430000Y-8178000D01*
X11481600Y-3252000D02*
X11581600Y-3352000D01*
X11581600Y-3252000D02*
X11481600Y-3352000D01*
X11531600Y-3352000D02*
X11581600Y-3302000D01*
X11531600Y-3252000D01*
X11481600Y-3302000D01*
X11531600Y-3352000D01*
X11634000Y-8078000D02*
X11734000Y-8178000D01*
X11734000Y-8078000D02*
X11634000Y-8178000D01*
X11684000Y-8178000D02*
X11734000Y-8128000D01*
X11684000Y-8078000D01*
X11634000Y-8128000D01*
X11684000Y-8178000D01*
X11735600Y-3252000D02*
X11835600Y-3352000D01*
X11835600Y-3252000D02*
X11735600Y-3352000D01*
X11785600Y-3352000D02*
X11835600Y-3302000D01*
X11785600Y-3252000D01*
X11735600Y-3302000D01*
X11785600Y-3352000D01*
X11888000Y-8078000D02*
X11988000Y-8178000D01*
X11988000Y-8078000D02*
X11888000Y-8178000D01*
X11938000Y-8178000D02*
X11988000Y-8128000D01*
X11938000Y-8078000D01*
X11888000Y-8128000D01*
X11938000Y-8178000D01*
X12142000Y-3252000D02*
X12242000Y-3352000D01*
X12242000Y-3252000D02*
X12142000Y-3352000D01*
X12192000Y-3352000D02*
X12242000Y-3302000D01*
X12192000Y-3252000D01*
X12142000Y-3302000D01*
X12192000Y-3352000D01*
X12142000Y-8078000D02*
X12242000Y-8178000D01*
X12242000Y-8078000D02*
X12142000Y-8178000D01*
X12192000Y-8178000D02*
X12242000Y-8128000D01*
X12192000Y-8078000D01*
X12142000Y-8128000D01*
X12192000Y-8178000D01*
X12396000Y-3252000D02*
X12496000Y-3352000D01*
X12496000Y-3252000D02*
X12396000Y-3352000D01*
X12446000Y-3352000D02*
X12496000Y-3302000D01*
X12446000Y-3252000D01*
X12396000Y-3302000D01*
X12446000Y-3352000D01*
X12650000Y-3252000D02*
X12750000Y-3352000D01*
X12750000Y-3252000D02*
X12650000Y-3352000D01*
X12700000Y-3352000D02*
X12750000Y-3302000D01*
X12700000Y-3252000D01*
X12650000Y-3302000D01*
X12700000Y-3352000D01*
X12650000Y-8078000D02*
X12750000Y-8178000D01*
X12750000Y-8078000D02*
X12650000Y-8178000D01*
X12700000Y-8178000D02*
X12750000Y-8128000D01*
X12700000Y-8078000D01*
X12650000Y-8128000D01*
X12700000Y-8178000D01*
X12904000Y-3252000D02*
X13004000Y-3352000D01*
X13004000Y-3252000D02*
X12904000Y-3352000D01*
X12954000Y-3352000D02*
X13004000Y-3302000D01*
X12954000Y-3252000D01*
X12904000Y-3302000D01*
X12954000Y-3352000D01*
X12904000Y-8078000D02*
X13004000Y-8178000D01*
X13004000Y-8078000D02*
X12904000Y-8178000D01*
X12954000Y-8178000D02*
X13004000Y-8128000D01*
X12954000Y-8078000D01*
X12904000Y-8128000D01*
X12954000Y-8178000D01*
X13158000Y-3252000D02*
X13258000Y-3352000D01*
X13258000Y-3252000D02*
X13158000Y-3352000D01*
X13208000Y-3352000D02*
X13258000Y-3302000D01*
X13208000Y-3252000D01*
X13158000Y-3302000D01*
X13208000Y-3352000D01*
X13158000Y-8078000D02*
X13258000Y-8178000D01*
X13258000Y-8078000D02*
X13158000Y-8178000D01*
X13208000Y-8178000D02*
X13258000Y-8128000D01*
X13208000Y-8078000D01*
X13158000Y-8128000D01*
X13208000Y-8178000D01*
X13412000Y-3252000D02*
X13512000Y-3352000D01*
X13512000Y-3252000D02*
X13412000Y-3352000D01*
X13462000Y-3352000D02*
X13512000Y-3302000D01*
X13462000Y-3252000D01*
X13412000Y-3302000D01*
X13462000Y-3352000D01*
X13412000Y-8078000D02*
X13512000Y-8178000D01*
X13512000Y-8078000D02*
X13412000Y-8178000D01*
X13462000Y-8178000D02*
X13512000Y-8128000D01*
X13462000Y-8078000D01*
X13412000Y-8128000D01*
X13462000Y-8178000D01*
X13666000Y-3252000D02*
X13766000Y-3352000D01*
X13766000Y-3252000D02*
X13666000Y-3352000D01*
X13716000Y-3352000D02*
X13766000Y-3302000D01*
X13716000Y-3252000D01*
X13666000Y-3302000D01*
X13716000Y-3352000D01*
X13666000Y-8078000D02*
X13766000Y-8178000D01*
X13766000Y-8078000D02*
X13666000Y-8178000D01*
X13716000Y-8178000D02*
X13766000Y-8128000D01*
X13716000Y-8078000D01*
X13666000Y-8128000D01*
X13716000Y-8178000D01*
X13920000Y-3252000D02*
X14020000Y-3352000D01*
X14020000Y-3252000D02*
X13920000Y-3352000D01*
X13970000Y-3352000D02*
X14020000Y-3302000D01*
X13970000Y-3252000D01*
X13920000Y-3302000D01*
X13970000Y-3352000D01*
X13920000Y-5284000D02*
X14020000Y-5384000D01*
X14020000Y-5284000D02*
X13920000Y-5384000D01*
X13970000Y-5384000D02*
X14020000Y-5334000D01*
X13970000Y-5284000D01*
X13920000Y-5334000D01*
X13970000Y-5384000D01*
X13920000Y-5538000D02*
X14020000Y-5638000D01*
X14020000Y-5538000D02*
X13920000Y-5638000D01*
X13970000Y-5638000D02*
X14020000Y-5588000D01*
X13970000Y-5538000D01*
X13920000Y-5588000D01*
X13970000Y-5638000D01*
X13920000Y-5792000D02*
X14020000Y-5892000D01*
X14020000Y-5792000D02*
X13920000Y-5892000D01*
X13970000Y-5892000D02*
X14020000Y-5842000D01*
X13970000Y-5792000D01*
X13920000Y-5842000D01*
X13970000Y-5892000D01*
X13920000Y-8078000D02*
X14020000Y-8178000D01*
X14020000Y-8078000D02*
X13920000Y-8178000D01*
X13970000Y-8178000D02*
X14020000Y-8128000D01*
X13970000Y-8078000D01*
X13920000Y-8128000D01*
X13970000Y-8178000D01*
X14174000Y-5284000D02*
X14274000Y-5384000D01*
X14274000Y-5284000D02*
X14174000Y-5384000D01*
X14224000Y-5384000D02*
X14274000Y-5334000D01*
X14224000Y-5284000D01*
X14174000Y-5334000D01*
X14224000Y-5384000D01*
X14174000Y-5538000D02*
X14274000Y-5638000D01*
X14274000Y-5538000D02*
X14174000Y-5638000D01*
X14224000Y-5638000D02*
X14274000Y-5588000D01*
X14224000Y-5538000D01*
X14174000Y-5588000D01*
X14224000Y-5638000D01*
X14174000Y-5792000D02*
X14274000Y-5892000D01*
X14274000Y-5792000D02*
X14174000Y-5892000D01*
X14224000Y-5892000D02*
X14274000Y-5842000D01*
X14224000Y-5792000D01*
X14174000Y-5842000D01*
X14224000Y-5892000D01*
D19*
X7874000Y-3247000D02*
X7874000Y-3357000D01*
X7819000Y-3302000D02*
X7929000Y-3302000D01*
X7929000Y-3302000D02*
G75*
G03*
X7929000Y-3302000I-55000J0D01*
G01*
X8636000Y-3247000D02*
X8636000Y-3357000D01*
X8581000Y-3302000D02*
X8691000Y-3302000D01*
X8691000Y-3302000D02*
G75*
G03*
X8691000Y-3302000I-55000J0D01*
G01*
X10851000Y-6832000D02*
X10851000Y-6942000D01*
X10796000Y-6887000D02*
X10906000Y-6887000D01*
X10906000Y-6887000D02*
G75*
G03*
X10906000Y-6887000I-55000J0D01*
G01*
X10851000Y-7282000D02*
X10851000Y-7392000D01*
X10796000Y-7337000D02*
X10906000Y-7337000D01*
X10906000Y-7337000D02*
G75*
G03*
X10906000Y-7337000I-55000J0D01*
G01*
X11501000Y-6832000D02*
X11501000Y-6942000D01*
X11446000Y-6887000D02*
X11556000Y-6887000D01*
X11556000Y-6887000D02*
G75*
G03*
X11556000Y-6887000I-55000J0D01*
G01*
X11501000Y-7282000D02*
X11501000Y-7392000D01*
X11446000Y-7337000D02*
X11556000Y-7337000D01*
X11556000Y-7337000D02*
G75*
G03*
X11556000Y-7337000I-55000J0D01*
G01*
D20*
X8464379Y-4177379D02*
X8464379Y-4012621D01*
X8299621Y-4012621D01*
X8299621Y-4177379D01*
X8464379Y-4177379D01*
X8498500Y-4095000D02*
G75*
G03*
X8498500Y-4095000I-116500J0D01*
G01*
X8464379Y-5381379D02*
X8464379Y-5216621D01*
X8299621Y-5216621D01*
X8299621Y-5381379D01*
X8464379Y-5381379D01*
X8498500Y-5299000D02*
G75*
G03*
X8498500Y-5299000I-116500J0D01*
G01*
D11*
X7862619Y-8699524D02*
X7862619Y-8499524D01*
X7862619Y-8499524D02*
X7910238Y-8499524D01*
X7910238Y-8499524D02*
X7938809Y-8509048D01*
X7938809Y-8509048D02*
X7957857Y-8528095D01*
X7957857Y-8528095D02*
X7967381Y-8547143D01*
X7967381Y-8547143D02*
X7976905Y-8585238D01*
X7976905Y-8585238D02*
X7976905Y-8613810D01*
X7976905Y-8613810D02*
X7967381Y-8651905D01*
X7967381Y-8651905D02*
X7957857Y-8670952D01*
X7957857Y-8670952D02*
X7938809Y-8690000D01*
X7938809Y-8690000D02*
X7910238Y-8699524D01*
X7910238Y-8699524D02*
X7862619Y-8699524D01*
X8062619Y-8699524D02*
X8062619Y-8566190D01*
X8062619Y-8604286D02*
X8072143Y-8585238D01*
X8072143Y-8585238D02*
X8081667Y-8575714D01*
X8081667Y-8575714D02*
X8100714Y-8566190D01*
X8100714Y-8566190D02*
X8119762Y-8566190D01*
X8186428Y-8699524D02*
X8186428Y-8566190D01*
X8186428Y-8499524D02*
X8176905Y-8509048D01*
X8176905Y-8509048D02*
X8186428Y-8518571D01*
X8186428Y-8518571D02*
X8195952Y-8509048D01*
X8195952Y-8509048D02*
X8186428Y-8499524D01*
X8186428Y-8499524D02*
X8186428Y-8518571D01*
X8310238Y-8699524D02*
X8291190Y-8690000D01*
X8291190Y-8690000D02*
X8281667Y-8670952D01*
X8281667Y-8670952D02*
X8281667Y-8499524D01*
X8415000Y-8699524D02*
X8395952Y-8690000D01*
X8395952Y-8690000D02*
X8386428Y-8670952D01*
X8386428Y-8670952D02*
X8386428Y-8499524D01*
X8643571Y-8699524D02*
X8643571Y-8499524D01*
X8643571Y-8499524D02*
X8710238Y-8642381D01*
X8710238Y-8642381D02*
X8776905Y-8499524D01*
X8776905Y-8499524D02*
X8776905Y-8699524D01*
X8957857Y-8699524D02*
X8957857Y-8594762D01*
X8957857Y-8594762D02*
X8948333Y-8575714D01*
X8948333Y-8575714D02*
X8929286Y-8566190D01*
X8929286Y-8566190D02*
X8891190Y-8566190D01*
X8891190Y-8566190D02*
X8872143Y-8575714D01*
X8957857Y-8690000D02*
X8938810Y-8699524D01*
X8938810Y-8699524D02*
X8891190Y-8699524D01*
X8891190Y-8699524D02*
X8872143Y-8690000D01*
X8872143Y-8690000D02*
X8862619Y-8670952D01*
X8862619Y-8670952D02*
X8862619Y-8651905D01*
X8862619Y-8651905D02*
X8872143Y-8632857D01*
X8872143Y-8632857D02*
X8891190Y-8623333D01*
X8891190Y-8623333D02*
X8938810Y-8623333D01*
X8938810Y-8623333D02*
X8957857Y-8613810D01*
X9053095Y-8566190D02*
X9053095Y-8766190D01*
X9053095Y-8575714D02*
X9072143Y-8566190D01*
X9072143Y-8566190D02*
X9110238Y-8566190D01*
X9110238Y-8566190D02*
X9129286Y-8575714D01*
X9129286Y-8575714D02*
X9138810Y-8585238D01*
X9138810Y-8585238D02*
X9148333Y-8604286D01*
X9148333Y-8604286D02*
X9148333Y-8661429D01*
X9148333Y-8661429D02*
X9138810Y-8680476D01*
X9138810Y-8680476D02*
X9129286Y-8690000D01*
X9129286Y-8690000D02*
X9110238Y-8699524D01*
X9110238Y-8699524D02*
X9072143Y-8699524D01*
X9072143Y-8699524D02*
X9053095Y-8690000D01*
X9234048Y-8680476D02*
X9243571Y-8690000D01*
X9243571Y-8690000D02*
X9234048Y-8699524D01*
X9234048Y-8699524D02*
X9224524Y-8690000D01*
X9224524Y-8690000D02*
X9234048Y-8680476D01*
X9234048Y-8680476D02*
X9234048Y-8699524D01*
X9234048Y-8575714D02*
X9243571Y-8585238D01*
X9243571Y-8585238D02*
X9234048Y-8594762D01*
X9234048Y-8594762D02*
X9224524Y-8585238D01*
X9224524Y-8585238D02*
X9234048Y-8575714D01*
X9234048Y-8575714D02*
X9234048Y-8594762D01*
D12*
X7575000Y-9007000D02*
X7615000Y-9047000D01*
X7615000Y-9007000D02*
X7575000Y-9047000D01*
D11*
X7900714Y-8919524D02*
X7919762Y-8919524D01*
X7919762Y-8919524D02*
X7938809Y-8929048D01*
X7938809Y-8929048D02*
X7948333Y-8938571D01*
X7948333Y-8938571D02*
X7957857Y-8957619D01*
X7957857Y-8957619D02*
X7967381Y-8995714D01*
X7967381Y-8995714D02*
X7967381Y-9043333D01*
X7967381Y-9043333D02*
X7957857Y-9081429D01*
X7957857Y-9081429D02*
X7948333Y-9100476D01*
X7948333Y-9100476D02*
X7938809Y-9110000D01*
X7938809Y-9110000D02*
X7919762Y-9119524D01*
X7919762Y-9119524D02*
X7900714Y-9119524D01*
X7900714Y-9119524D02*
X7881667Y-9110000D01*
X7881667Y-9110000D02*
X7872143Y-9100476D01*
X7872143Y-9100476D02*
X7862619Y-9081429D01*
X7862619Y-9081429D02*
X7853095Y-9043333D01*
X7853095Y-9043333D02*
X7853095Y-8995714D01*
X7853095Y-8995714D02*
X7862619Y-8957619D01*
X7862619Y-8957619D02*
X7872143Y-8938571D01*
X7872143Y-8938571D02*
X7881667Y-8929048D01*
X7881667Y-8929048D02*
X7900714Y-8919524D01*
X8053095Y-9100476D02*
X8062619Y-9110000D01*
X8062619Y-9110000D02*
X8053095Y-9119524D01*
X8053095Y-9119524D02*
X8043571Y-9110000D01*
X8043571Y-9110000D02*
X8053095Y-9100476D01*
X8053095Y-9100476D02*
X8053095Y-9119524D01*
X8234048Y-8986190D02*
X8234048Y-9119524D01*
X8186428Y-8910000D02*
X8138809Y-9052857D01*
X8138809Y-9052857D02*
X8262619Y-9052857D01*
X8376905Y-8919524D02*
X8395952Y-8919524D01*
X8395952Y-8919524D02*
X8415000Y-8929048D01*
X8415000Y-8929048D02*
X8424524Y-8938571D01*
X8424524Y-8938571D02*
X8434048Y-8957619D01*
X8434048Y-8957619D02*
X8443571Y-8995714D01*
X8443571Y-8995714D02*
X8443571Y-9043333D01*
X8443571Y-9043333D02*
X8434048Y-9081429D01*
X8434048Y-9081429D02*
X8424524Y-9100476D01*
X8424524Y-9100476D02*
X8415000Y-9110000D01*
X8415000Y-9110000D02*
X8395952Y-9119524D01*
X8395952Y-9119524D02*
X8376905Y-9119524D01*
X8376905Y-9119524D02*
X8357857Y-9110000D01*
X8357857Y-9110000D02*
X8348333Y-9100476D01*
X8348333Y-9100476D02*
X8338809Y-9081429D01*
X8338809Y-9081429D02*
X8329286Y-9043333D01*
X8329286Y-9043333D02*
X8329286Y-8995714D01*
X8329286Y-8995714D02*
X8338809Y-8957619D01*
X8338809Y-8957619D02*
X8348333Y-8938571D01*
X8348333Y-8938571D02*
X8357857Y-8929048D01*
X8357857Y-8929048D02*
X8376905Y-8919524D01*
X8567381Y-8919524D02*
X8586429Y-8919524D01*
X8586429Y-8919524D02*
X8605476Y-8929048D01*
X8605476Y-8929048D02*
X8615000Y-8938571D01*
X8615000Y-8938571D02*
X8624524Y-8957619D01*
X8624524Y-8957619D02*
X8634048Y-8995714D01*
X8634048Y-8995714D02*
X8634048Y-9043333D01*
X8634048Y-9043333D02*
X8624524Y-9081429D01*
X8624524Y-9081429D02*
X8615000Y-9100476D01*
X8615000Y-9100476D02*
X8605476Y-9110000D01*
X8605476Y-9110000D02*
X8586429Y-9119524D01*
X8586429Y-9119524D02*
X8567381Y-9119524D01*
X8567381Y-9119524D02*
X8548333Y-9110000D01*
X8548333Y-9110000D02*
X8538810Y-9100476D01*
X8538810Y-9100476D02*
X8529286Y-9081429D01*
X8529286Y-9081429D02*
X8519762Y-9043333D01*
X8519762Y-9043333D02*
X8519762Y-8995714D01*
X8519762Y-8995714D02*
X8529286Y-8957619D01*
X8529286Y-8957619D02*
X8538810Y-8938571D01*
X8538810Y-8938571D02*
X8548333Y-8929048D01*
X8548333Y-8929048D02*
X8567381Y-8919524D01*
X8719762Y-9119524D02*
X8719762Y-8986190D01*
X8719762Y-9005238D02*
X8729286Y-8995714D01*
X8729286Y-8995714D02*
X8748333Y-8986190D01*
X8748333Y-8986190D02*
X8776905Y-8986190D01*
X8776905Y-8986190D02*
X8795952Y-8995714D01*
X8795952Y-8995714D02*
X8805476Y-9014762D01*
X8805476Y-9014762D02*
X8805476Y-9119524D01*
X8805476Y-9014762D02*
X8815000Y-8995714D01*
X8815000Y-8995714D02*
X8834048Y-8986190D01*
X8834048Y-8986190D02*
X8862619Y-8986190D01*
X8862619Y-8986190D02*
X8881667Y-8995714D01*
X8881667Y-8995714D02*
X8891191Y-9014762D01*
X8891191Y-9014762D02*
X8891191Y-9119524D01*
X8986429Y-9119524D02*
X8986429Y-8986190D01*
X8986429Y-9005238D02*
X8995952Y-8995714D01*
X8995952Y-8995714D02*
X9015000Y-8986190D01*
X9015000Y-8986190D02*
X9043572Y-8986190D01*
X9043572Y-8986190D02*
X9062619Y-8995714D01*
X9062619Y-8995714D02*
X9072143Y-9014762D01*
X9072143Y-9014762D02*
X9072143Y-9119524D01*
X9072143Y-9014762D02*
X9081667Y-8995714D01*
X9081667Y-8995714D02*
X9100714Y-8986190D01*
X9100714Y-8986190D02*
X9129286Y-8986190D01*
X9129286Y-8986190D02*
X9148333Y-8995714D01*
X9148333Y-8995714D02*
X9157857Y-9014762D01*
X9157857Y-9014762D02*
X9157857Y-9119524D01*
X9548333Y-8910000D02*
X9376905Y-9167143D01*
X9805476Y-8919524D02*
X9824524Y-8919524D01*
X9824524Y-8919524D02*
X9843572Y-8929048D01*
X9843572Y-8929048D02*
X9853095Y-8938571D01*
X9853095Y-8938571D02*
X9862619Y-8957619D01*
X9862619Y-8957619D02*
X9872143Y-8995714D01*
X9872143Y-8995714D02*
X9872143Y-9043333D01*
X9872143Y-9043333D02*
X9862619Y-9081429D01*
X9862619Y-9081429D02*
X9853095Y-9100476D01*
X9853095Y-9100476D02*
X9843572Y-9110000D01*
X9843572Y-9110000D02*
X9824524Y-9119524D01*
X9824524Y-9119524D02*
X9805476Y-9119524D01*
X9805476Y-9119524D02*
X9786429Y-9110000D01*
X9786429Y-9110000D02*
X9776905Y-9100476D01*
X9776905Y-9100476D02*
X9767381Y-9081429D01*
X9767381Y-9081429D02*
X9757857Y-9043333D01*
X9757857Y-9043333D02*
X9757857Y-8995714D01*
X9757857Y-8995714D02*
X9767381Y-8957619D01*
X9767381Y-8957619D02*
X9776905Y-8938571D01*
X9776905Y-8938571D02*
X9786429Y-8929048D01*
X9786429Y-8929048D02*
X9805476Y-8919524D01*
X9957857Y-9100476D02*
X9967381Y-9110000D01*
X9967381Y-9110000D02*
X9957857Y-9119524D01*
X9957857Y-9119524D02*
X9948334Y-9110000D01*
X9948334Y-9110000D02*
X9957857Y-9100476D01*
X9957857Y-9100476D02*
X9957857Y-9119524D01*
X10091191Y-8919524D02*
X10110238Y-8919524D01*
X10110238Y-8919524D02*
X10129286Y-8929048D01*
X10129286Y-8929048D02*
X10138810Y-8938571D01*
X10138810Y-8938571D02*
X10148334Y-8957619D01*
X10148334Y-8957619D02*
X10157857Y-8995714D01*
X10157857Y-8995714D02*
X10157857Y-9043333D01*
X10157857Y-9043333D02*
X10148334Y-9081429D01*
X10148334Y-9081429D02*
X10138810Y-9100476D01*
X10138810Y-9100476D02*
X10129286Y-9110000D01*
X10129286Y-9110000D02*
X10110238Y-9119524D01*
X10110238Y-9119524D02*
X10091191Y-9119524D01*
X10091191Y-9119524D02*
X10072143Y-9110000D01*
X10072143Y-9110000D02*
X10062619Y-9100476D01*
X10062619Y-9100476D02*
X10053095Y-9081429D01*
X10053095Y-9081429D02*
X10043572Y-9043333D01*
X10043572Y-9043333D02*
X10043572Y-8995714D01*
X10043572Y-8995714D02*
X10053095Y-8957619D01*
X10053095Y-8957619D02*
X10062619Y-8938571D01*
X10062619Y-8938571D02*
X10072143Y-8929048D01*
X10072143Y-8929048D02*
X10091191Y-8919524D01*
X10348334Y-9119524D02*
X10234048Y-9119524D01*
X10291191Y-9119524D02*
X10291191Y-8919524D01*
X10291191Y-8919524D02*
X10272143Y-8948095D01*
X10272143Y-8948095D02*
X10253095Y-8967143D01*
X10253095Y-8967143D02*
X10234048Y-8976667D01*
X10529286Y-8919524D02*
X10434048Y-8919524D01*
X10434048Y-8919524D02*
X10424524Y-9014762D01*
X10424524Y-9014762D02*
X10434048Y-9005238D01*
X10434048Y-9005238D02*
X10453095Y-8995714D01*
X10453095Y-8995714D02*
X10500715Y-8995714D01*
X10500715Y-8995714D02*
X10519762Y-9005238D01*
X10519762Y-9005238D02*
X10529286Y-9014762D01*
X10529286Y-9014762D02*
X10538810Y-9033810D01*
X10538810Y-9033810D02*
X10538810Y-9081429D01*
X10538810Y-9081429D02*
X10529286Y-9100476D01*
X10529286Y-9100476D02*
X10519762Y-9110000D01*
X10519762Y-9110000D02*
X10500715Y-9119524D01*
X10500715Y-9119524D02*
X10453095Y-9119524D01*
X10453095Y-9119524D02*
X10434048Y-9110000D01*
X10434048Y-9110000D02*
X10424524Y-9100476D01*
X10605476Y-8919524D02*
X10738810Y-8919524D01*
X10738810Y-8919524D02*
X10653095Y-9119524D01*
X10805476Y-8919524D02*
X10805476Y-8957619D01*
X10881667Y-8919524D02*
X10881667Y-8957619D01*
X11176905Y-9195714D02*
X11167381Y-9186190D01*
X11167381Y-9186190D02*
X11148334Y-9157619D01*
X11148334Y-9157619D02*
X11138810Y-9138571D01*
X11138810Y-9138571D02*
X11129286Y-9110000D01*
X11129286Y-9110000D02*
X11119762Y-9062381D01*
X11119762Y-9062381D02*
X11119762Y-9024286D01*
X11119762Y-9024286D02*
X11129286Y-8976667D01*
X11129286Y-8976667D02*
X11138810Y-8948095D01*
X11138810Y-8948095D02*
X11148334Y-8929048D01*
X11148334Y-8929048D02*
X11167381Y-8900476D01*
X11167381Y-8900476D02*
X11176905Y-8890952D01*
X11243572Y-8938571D02*
X11253095Y-8929048D01*
X11253095Y-8929048D02*
X11272143Y-8919524D01*
X11272143Y-8919524D02*
X11319762Y-8919524D01*
X11319762Y-8919524D02*
X11338810Y-8929048D01*
X11338810Y-8929048D02*
X11348334Y-8938571D01*
X11348334Y-8938571D02*
X11357857Y-8957619D01*
X11357857Y-8957619D02*
X11357857Y-8976667D01*
X11357857Y-8976667D02*
X11348334Y-9005238D01*
X11348334Y-9005238D02*
X11234048Y-9119524D01*
X11234048Y-9119524D02*
X11357857Y-9119524D01*
X11538810Y-8919524D02*
X11443572Y-8919524D01*
X11443572Y-8919524D02*
X11434048Y-9014762D01*
X11434048Y-9014762D02*
X11443572Y-9005238D01*
X11443572Y-9005238D02*
X11462619Y-8995714D01*
X11462619Y-8995714D02*
X11510238Y-8995714D01*
X11510238Y-8995714D02*
X11529286Y-9005238D01*
X11529286Y-9005238D02*
X11538810Y-9014762D01*
X11538810Y-9014762D02*
X11548334Y-9033810D01*
X11548334Y-9033810D02*
X11548334Y-9081429D01*
X11548334Y-9081429D02*
X11538810Y-9100476D01*
X11538810Y-9100476D02*
X11529286Y-9110000D01*
X11529286Y-9110000D02*
X11510238Y-9119524D01*
X11510238Y-9119524D02*
X11462619Y-9119524D01*
X11462619Y-9119524D02*
X11443572Y-9110000D01*
X11443572Y-9110000D02*
X11434048Y-9100476D01*
X11786429Y-9119524D02*
X11786429Y-8919524D01*
X11872143Y-9119524D02*
X11872143Y-9014762D01*
X11872143Y-9014762D02*
X11862619Y-8995714D01*
X11862619Y-8995714D02*
X11843572Y-8986190D01*
X11843572Y-8986190D02*
X11815000Y-8986190D01*
X11815000Y-8986190D02*
X11795953Y-8995714D01*
X11795953Y-8995714D02*
X11786429Y-9005238D01*
X11995953Y-9119524D02*
X11976905Y-9110000D01*
X11976905Y-9110000D02*
X11967381Y-9100476D01*
X11967381Y-9100476D02*
X11957857Y-9081429D01*
X11957857Y-9081429D02*
X11957857Y-9024286D01*
X11957857Y-9024286D02*
X11967381Y-9005238D01*
X11967381Y-9005238D02*
X11976905Y-8995714D01*
X11976905Y-8995714D02*
X11995953Y-8986190D01*
X11995953Y-8986190D02*
X12024524Y-8986190D01*
X12024524Y-8986190D02*
X12043572Y-8995714D01*
X12043572Y-8995714D02*
X12053096Y-9005238D01*
X12053096Y-9005238D02*
X12062619Y-9024286D01*
X12062619Y-9024286D02*
X12062619Y-9081429D01*
X12062619Y-9081429D02*
X12053096Y-9100476D01*
X12053096Y-9100476D02*
X12043572Y-9110000D01*
X12043572Y-9110000D02*
X12024524Y-9119524D01*
X12024524Y-9119524D02*
X11995953Y-9119524D01*
X12176905Y-9119524D02*
X12157857Y-9110000D01*
X12157857Y-9110000D02*
X12148334Y-9090952D01*
X12148334Y-9090952D02*
X12148334Y-8919524D01*
X12329286Y-9110000D02*
X12310238Y-9119524D01*
X12310238Y-9119524D02*
X12272143Y-9119524D01*
X12272143Y-9119524D02*
X12253096Y-9110000D01*
X12253096Y-9110000D02*
X12243572Y-9090952D01*
X12243572Y-9090952D02*
X12243572Y-9014762D01*
X12243572Y-9014762D02*
X12253096Y-8995714D01*
X12253096Y-8995714D02*
X12272143Y-8986190D01*
X12272143Y-8986190D02*
X12310238Y-8986190D01*
X12310238Y-8986190D02*
X12329286Y-8995714D01*
X12329286Y-8995714D02*
X12338810Y-9014762D01*
X12338810Y-9014762D02*
X12338810Y-9033810D01*
X12338810Y-9033810D02*
X12243572Y-9052857D01*
X12415000Y-9110000D02*
X12434048Y-9119524D01*
X12434048Y-9119524D02*
X12472143Y-9119524D01*
X12472143Y-9119524D02*
X12491191Y-9110000D01*
X12491191Y-9110000D02*
X12500715Y-9090952D01*
X12500715Y-9090952D02*
X12500715Y-9081429D01*
X12500715Y-9081429D02*
X12491191Y-9062381D01*
X12491191Y-9062381D02*
X12472143Y-9052857D01*
X12472143Y-9052857D02*
X12443572Y-9052857D01*
X12443572Y-9052857D02*
X12424524Y-9043333D01*
X12424524Y-9043333D02*
X12415000Y-9024286D01*
X12415000Y-9024286D02*
X12415000Y-9014762D01*
X12415000Y-9014762D02*
X12424524Y-8995714D01*
X12424524Y-8995714D02*
X12443572Y-8986190D01*
X12443572Y-8986190D02*
X12472143Y-8986190D01*
X12472143Y-8986190D02*
X12491191Y-8995714D01*
X12567381Y-9195714D02*
X12576905Y-9186190D01*
X12576905Y-9186190D02*
X12595953Y-9157619D01*
X12595953Y-9157619D02*
X12605477Y-9138571D01*
X12605477Y-9138571D02*
X12615000Y-9110000D01*
X12615000Y-9110000D02*
X12624524Y-9062381D01*
X12624524Y-9062381D02*
X12624524Y-9024286D01*
X12624524Y-9024286D02*
X12615000Y-8976667D01*
X12615000Y-8976667D02*
X12605477Y-8948095D01*
X12605477Y-8948095D02*
X12595953Y-8929048D01*
X12595953Y-8929048D02*
X12576905Y-8900476D01*
X12576905Y-8900476D02*
X12567381Y-8890952D01*
D13*
X7615000Y-9291000D02*
G75*
G03*
X7615000Y-9291000I-35000J0D01*
G01*
D11*
X7900714Y-9183524D02*
X7919762Y-9183524D01*
X7919762Y-9183524D02*
X7938809Y-9193048D01*
X7938809Y-9193048D02*
X7948333Y-9202571D01*
X7948333Y-9202571D02*
X7957857Y-9221619D01*
X7957857Y-9221619D02*
X7967381Y-9259714D01*
X7967381Y-9259714D02*
X7967381Y-9307333D01*
X7967381Y-9307333D02*
X7957857Y-9345429D01*
X7957857Y-9345429D02*
X7948333Y-9364476D01*
X7948333Y-9364476D02*
X7938809Y-9374000D01*
X7938809Y-9374000D02*
X7919762Y-9383524D01*
X7919762Y-9383524D02*
X7900714Y-9383524D01*
X7900714Y-9383524D02*
X7881667Y-9374000D01*
X7881667Y-9374000D02*
X7872143Y-9364476D01*
X7872143Y-9364476D02*
X7862619Y-9345429D01*
X7862619Y-9345429D02*
X7853095Y-9307333D01*
X7853095Y-9307333D02*
X7853095Y-9259714D01*
X7853095Y-9259714D02*
X7862619Y-9221619D01*
X7862619Y-9221619D02*
X7872143Y-9202571D01*
X7872143Y-9202571D02*
X7881667Y-9193048D01*
X7881667Y-9193048D02*
X7900714Y-9183524D01*
X8053095Y-9364476D02*
X8062619Y-9374000D01*
X8062619Y-9374000D02*
X8053095Y-9383524D01*
X8053095Y-9383524D02*
X8043571Y-9374000D01*
X8043571Y-9374000D02*
X8053095Y-9364476D01*
X8053095Y-9364476D02*
X8053095Y-9383524D01*
X8129286Y-9183524D02*
X8262619Y-9183524D01*
X8262619Y-9183524D02*
X8176905Y-9383524D01*
X8376905Y-9183524D02*
X8395952Y-9183524D01*
X8395952Y-9183524D02*
X8415000Y-9193048D01*
X8415000Y-9193048D02*
X8424524Y-9202571D01*
X8424524Y-9202571D02*
X8434048Y-9221619D01*
X8434048Y-9221619D02*
X8443571Y-9259714D01*
X8443571Y-9259714D02*
X8443571Y-9307333D01*
X8443571Y-9307333D02*
X8434048Y-9345429D01*
X8434048Y-9345429D02*
X8424524Y-9364476D01*
X8424524Y-9364476D02*
X8415000Y-9374000D01*
X8415000Y-9374000D02*
X8395952Y-9383524D01*
X8395952Y-9383524D02*
X8376905Y-9383524D01*
X8376905Y-9383524D02*
X8357857Y-9374000D01*
X8357857Y-9374000D02*
X8348333Y-9364476D01*
X8348333Y-9364476D02*
X8338809Y-9345429D01*
X8338809Y-9345429D02*
X8329286Y-9307333D01*
X8329286Y-9307333D02*
X8329286Y-9259714D01*
X8329286Y-9259714D02*
X8338809Y-9221619D01*
X8338809Y-9221619D02*
X8348333Y-9202571D01*
X8348333Y-9202571D02*
X8357857Y-9193048D01*
X8357857Y-9193048D02*
X8376905Y-9183524D01*
X8567381Y-9183524D02*
X8586429Y-9183524D01*
X8586429Y-9183524D02*
X8605476Y-9193048D01*
X8605476Y-9193048D02*
X8615000Y-9202571D01*
X8615000Y-9202571D02*
X8624524Y-9221619D01*
X8624524Y-9221619D02*
X8634048Y-9259714D01*
X8634048Y-9259714D02*
X8634048Y-9307333D01*
X8634048Y-9307333D02*
X8624524Y-9345429D01*
X8624524Y-9345429D02*
X8615000Y-9364476D01*
X8615000Y-9364476D02*
X8605476Y-9374000D01*
X8605476Y-9374000D02*
X8586429Y-9383524D01*
X8586429Y-9383524D02*
X8567381Y-9383524D01*
X8567381Y-9383524D02*
X8548333Y-9374000D01*
X8548333Y-9374000D02*
X8538810Y-9364476D01*
X8538810Y-9364476D02*
X8529286Y-9345429D01*
X8529286Y-9345429D02*
X8519762Y-9307333D01*
X8519762Y-9307333D02*
X8519762Y-9259714D01*
X8519762Y-9259714D02*
X8529286Y-9221619D01*
X8529286Y-9221619D02*
X8538810Y-9202571D01*
X8538810Y-9202571D02*
X8548333Y-9193048D01*
X8548333Y-9193048D02*
X8567381Y-9183524D01*
X8719762Y-9383524D02*
X8719762Y-9250190D01*
X8719762Y-9269238D02*
X8729286Y-9259714D01*
X8729286Y-9259714D02*
X8748333Y-9250190D01*
X8748333Y-9250190D02*
X8776905Y-9250190D01*
X8776905Y-9250190D02*
X8795952Y-9259714D01*
X8795952Y-9259714D02*
X8805476Y-9278762D01*
X8805476Y-9278762D02*
X8805476Y-9383524D01*
X8805476Y-9278762D02*
X8815000Y-9259714D01*
X8815000Y-9259714D02*
X8834048Y-9250190D01*
X8834048Y-9250190D02*
X8862619Y-9250190D01*
X8862619Y-9250190D02*
X8881667Y-9259714D01*
X8881667Y-9259714D02*
X8891191Y-9278762D01*
X8891191Y-9278762D02*
X8891191Y-9383524D01*
X8986429Y-9383524D02*
X8986429Y-9250190D01*
X8986429Y-9269238D02*
X8995952Y-9259714D01*
X8995952Y-9259714D02*
X9015000Y-9250190D01*
X9015000Y-9250190D02*
X9043572Y-9250190D01*
X9043572Y-9250190D02*
X9062619Y-9259714D01*
X9062619Y-9259714D02*
X9072143Y-9278762D01*
X9072143Y-9278762D02*
X9072143Y-9383524D01*
X9072143Y-9278762D02*
X9081667Y-9259714D01*
X9081667Y-9259714D02*
X9100714Y-9250190D01*
X9100714Y-9250190D02*
X9129286Y-9250190D01*
X9129286Y-9250190D02*
X9148333Y-9259714D01*
X9148333Y-9259714D02*
X9157857Y-9278762D01*
X9157857Y-9278762D02*
X9157857Y-9383524D01*
X9548333Y-9174000D02*
X9376905Y-9431143D01*
X9805476Y-9183524D02*
X9824524Y-9183524D01*
X9824524Y-9183524D02*
X9843572Y-9193048D01*
X9843572Y-9193048D02*
X9853095Y-9202571D01*
X9853095Y-9202571D02*
X9862619Y-9221619D01*
X9862619Y-9221619D02*
X9872143Y-9259714D01*
X9872143Y-9259714D02*
X9872143Y-9307333D01*
X9872143Y-9307333D02*
X9862619Y-9345429D01*
X9862619Y-9345429D02*
X9853095Y-9364476D01*
X9853095Y-9364476D02*
X9843572Y-9374000D01*
X9843572Y-9374000D02*
X9824524Y-9383524D01*
X9824524Y-9383524D02*
X9805476Y-9383524D01*
X9805476Y-9383524D02*
X9786429Y-9374000D01*
X9786429Y-9374000D02*
X9776905Y-9364476D01*
X9776905Y-9364476D02*
X9767381Y-9345429D01*
X9767381Y-9345429D02*
X9757857Y-9307333D01*
X9757857Y-9307333D02*
X9757857Y-9259714D01*
X9757857Y-9259714D02*
X9767381Y-9221619D01*
X9767381Y-9221619D02*
X9776905Y-9202571D01*
X9776905Y-9202571D02*
X9786429Y-9193048D01*
X9786429Y-9193048D02*
X9805476Y-9183524D01*
X9957857Y-9364476D02*
X9967381Y-9374000D01*
X9967381Y-9374000D02*
X9957857Y-9383524D01*
X9957857Y-9383524D02*
X9948334Y-9374000D01*
X9948334Y-9374000D02*
X9957857Y-9364476D01*
X9957857Y-9364476D02*
X9957857Y-9383524D01*
X10091191Y-9183524D02*
X10110238Y-9183524D01*
X10110238Y-9183524D02*
X10129286Y-9193048D01*
X10129286Y-9193048D02*
X10138810Y-9202571D01*
X10138810Y-9202571D02*
X10148334Y-9221619D01*
X10148334Y-9221619D02*
X10157857Y-9259714D01*
X10157857Y-9259714D02*
X10157857Y-9307333D01*
X10157857Y-9307333D02*
X10148334Y-9345429D01*
X10148334Y-9345429D02*
X10138810Y-9364476D01*
X10138810Y-9364476D02*
X10129286Y-9374000D01*
X10129286Y-9374000D02*
X10110238Y-9383524D01*
X10110238Y-9383524D02*
X10091191Y-9383524D01*
X10091191Y-9383524D02*
X10072143Y-9374000D01*
X10072143Y-9374000D02*
X10062619Y-9364476D01*
X10062619Y-9364476D02*
X10053095Y-9345429D01*
X10053095Y-9345429D02*
X10043572Y-9307333D01*
X10043572Y-9307333D02*
X10043572Y-9259714D01*
X10043572Y-9259714D02*
X10053095Y-9221619D01*
X10053095Y-9221619D02*
X10062619Y-9202571D01*
X10062619Y-9202571D02*
X10072143Y-9193048D01*
X10072143Y-9193048D02*
X10091191Y-9183524D01*
X10234048Y-9202571D02*
X10243572Y-9193048D01*
X10243572Y-9193048D02*
X10262619Y-9183524D01*
X10262619Y-9183524D02*
X10310238Y-9183524D01*
X10310238Y-9183524D02*
X10329286Y-9193048D01*
X10329286Y-9193048D02*
X10338810Y-9202571D01*
X10338810Y-9202571D02*
X10348334Y-9221619D01*
X10348334Y-9221619D02*
X10348334Y-9240667D01*
X10348334Y-9240667D02*
X10338810Y-9269238D01*
X10338810Y-9269238D02*
X10224524Y-9383524D01*
X10224524Y-9383524D02*
X10348334Y-9383524D01*
X10415000Y-9183524D02*
X10548334Y-9183524D01*
X10548334Y-9183524D02*
X10462619Y-9383524D01*
X10710238Y-9183524D02*
X10672143Y-9183524D01*
X10672143Y-9183524D02*
X10653095Y-9193048D01*
X10653095Y-9193048D02*
X10643572Y-9202571D01*
X10643572Y-9202571D02*
X10624524Y-9231143D01*
X10624524Y-9231143D02*
X10615000Y-9269238D01*
X10615000Y-9269238D02*
X10615000Y-9345429D01*
X10615000Y-9345429D02*
X10624524Y-9364476D01*
X10624524Y-9364476D02*
X10634048Y-9374000D01*
X10634048Y-9374000D02*
X10653095Y-9383524D01*
X10653095Y-9383524D02*
X10691191Y-9383524D01*
X10691191Y-9383524D02*
X10710238Y-9374000D01*
X10710238Y-9374000D02*
X10719762Y-9364476D01*
X10719762Y-9364476D02*
X10729286Y-9345429D01*
X10729286Y-9345429D02*
X10729286Y-9297810D01*
X10729286Y-9297810D02*
X10719762Y-9278762D01*
X10719762Y-9278762D02*
X10710238Y-9269238D01*
X10710238Y-9269238D02*
X10691191Y-9259714D01*
X10691191Y-9259714D02*
X10653095Y-9259714D01*
X10653095Y-9259714D02*
X10634048Y-9269238D01*
X10634048Y-9269238D02*
X10624524Y-9278762D01*
X10624524Y-9278762D02*
X10615000Y-9297810D01*
X10805476Y-9183524D02*
X10805476Y-9221619D01*
X10881667Y-9183524D02*
X10881667Y-9221619D01*
X11176905Y-9459714D02*
X11167381Y-9450190D01*
X11167381Y-9450190D02*
X11148334Y-9421619D01*
X11148334Y-9421619D02*
X11138810Y-9402571D01*
X11138810Y-9402571D02*
X11129286Y-9374000D01*
X11129286Y-9374000D02*
X11119762Y-9326381D01*
X11119762Y-9326381D02*
X11119762Y-9288286D01*
X11119762Y-9288286D02*
X11129286Y-9240667D01*
X11129286Y-9240667D02*
X11138810Y-9212095D01*
X11138810Y-9212095D02*
X11148334Y-9193048D01*
X11148334Y-9193048D02*
X11167381Y-9164476D01*
X11167381Y-9164476D02*
X11176905Y-9154952D01*
X11357857Y-9383524D02*
X11243572Y-9383524D01*
X11300714Y-9383524D02*
X11300714Y-9183524D01*
X11300714Y-9183524D02*
X11281667Y-9212095D01*
X11281667Y-9212095D02*
X11262619Y-9231143D01*
X11262619Y-9231143D02*
X11243572Y-9240667D01*
X11472143Y-9269238D02*
X11453095Y-9259714D01*
X11453095Y-9259714D02*
X11443572Y-9250190D01*
X11443572Y-9250190D02*
X11434048Y-9231143D01*
X11434048Y-9231143D02*
X11434048Y-9221619D01*
X11434048Y-9221619D02*
X11443572Y-9202571D01*
X11443572Y-9202571D02*
X11453095Y-9193048D01*
X11453095Y-9193048D02*
X11472143Y-9183524D01*
X11472143Y-9183524D02*
X11510238Y-9183524D01*
X11510238Y-9183524D02*
X11529286Y-9193048D01*
X11529286Y-9193048D02*
X11538810Y-9202571D01*
X11538810Y-9202571D02*
X11548334Y-9221619D01*
X11548334Y-9221619D02*
X11548334Y-9231143D01*
X11548334Y-9231143D02*
X11538810Y-9250190D01*
X11538810Y-9250190D02*
X11529286Y-9259714D01*
X11529286Y-9259714D02*
X11510238Y-9269238D01*
X11510238Y-9269238D02*
X11472143Y-9269238D01*
X11472143Y-9269238D02*
X11453095Y-9278762D01*
X11453095Y-9278762D02*
X11443572Y-9288286D01*
X11443572Y-9288286D02*
X11434048Y-9307333D01*
X11434048Y-9307333D02*
X11434048Y-9345429D01*
X11434048Y-9345429D02*
X11443572Y-9364476D01*
X11443572Y-9364476D02*
X11453095Y-9374000D01*
X11453095Y-9374000D02*
X11472143Y-9383524D01*
X11472143Y-9383524D02*
X11510238Y-9383524D01*
X11510238Y-9383524D02*
X11529286Y-9374000D01*
X11529286Y-9374000D02*
X11538810Y-9364476D01*
X11538810Y-9364476D02*
X11548334Y-9345429D01*
X11548334Y-9345429D02*
X11548334Y-9307333D01*
X11548334Y-9307333D02*
X11538810Y-9288286D01*
X11538810Y-9288286D02*
X11529286Y-9278762D01*
X11529286Y-9278762D02*
X11510238Y-9269238D01*
X11786429Y-9383524D02*
X11786429Y-9183524D01*
X11872143Y-9383524D02*
X11872143Y-9278762D01*
X11872143Y-9278762D02*
X11862619Y-9259714D01*
X11862619Y-9259714D02*
X11843572Y-9250190D01*
X11843572Y-9250190D02*
X11815000Y-9250190D01*
X11815000Y-9250190D02*
X11795953Y-9259714D01*
X11795953Y-9259714D02*
X11786429Y-9269238D01*
X11995953Y-9383524D02*
X11976905Y-9374000D01*
X11976905Y-9374000D02*
X11967381Y-9364476D01*
X11967381Y-9364476D02*
X11957857Y-9345429D01*
X11957857Y-9345429D02*
X11957857Y-9288286D01*
X11957857Y-9288286D02*
X11967381Y-9269238D01*
X11967381Y-9269238D02*
X11976905Y-9259714D01*
X11976905Y-9259714D02*
X11995953Y-9250190D01*
X11995953Y-9250190D02*
X12024524Y-9250190D01*
X12024524Y-9250190D02*
X12043572Y-9259714D01*
X12043572Y-9259714D02*
X12053096Y-9269238D01*
X12053096Y-9269238D02*
X12062619Y-9288286D01*
X12062619Y-9288286D02*
X12062619Y-9345429D01*
X12062619Y-9345429D02*
X12053096Y-9364476D01*
X12053096Y-9364476D02*
X12043572Y-9374000D01*
X12043572Y-9374000D02*
X12024524Y-9383524D01*
X12024524Y-9383524D02*
X11995953Y-9383524D01*
X12176905Y-9383524D02*
X12157857Y-9374000D01*
X12157857Y-9374000D02*
X12148334Y-9354952D01*
X12148334Y-9354952D02*
X12148334Y-9183524D01*
X12329286Y-9374000D02*
X12310238Y-9383524D01*
X12310238Y-9383524D02*
X12272143Y-9383524D01*
X12272143Y-9383524D02*
X12253096Y-9374000D01*
X12253096Y-9374000D02*
X12243572Y-9354952D01*
X12243572Y-9354952D02*
X12243572Y-9278762D01*
X12243572Y-9278762D02*
X12253096Y-9259714D01*
X12253096Y-9259714D02*
X12272143Y-9250190D01*
X12272143Y-9250190D02*
X12310238Y-9250190D01*
X12310238Y-9250190D02*
X12329286Y-9259714D01*
X12329286Y-9259714D02*
X12338810Y-9278762D01*
X12338810Y-9278762D02*
X12338810Y-9297810D01*
X12338810Y-9297810D02*
X12243572Y-9316857D01*
X12415000Y-9374000D02*
X12434048Y-9383524D01*
X12434048Y-9383524D02*
X12472143Y-9383524D01*
X12472143Y-9383524D02*
X12491191Y-9374000D01*
X12491191Y-9374000D02*
X12500715Y-9354952D01*
X12500715Y-9354952D02*
X12500715Y-9345429D01*
X12500715Y-9345429D02*
X12491191Y-9326381D01*
X12491191Y-9326381D02*
X12472143Y-9316857D01*
X12472143Y-9316857D02*
X12443572Y-9316857D01*
X12443572Y-9316857D02*
X12424524Y-9307333D01*
X12424524Y-9307333D02*
X12415000Y-9288286D01*
X12415000Y-9288286D02*
X12415000Y-9278762D01*
X12415000Y-9278762D02*
X12424524Y-9259714D01*
X12424524Y-9259714D02*
X12443572Y-9250190D01*
X12443572Y-9250190D02*
X12472143Y-9250190D01*
X12472143Y-9250190D02*
X12491191Y-9259714D01*
X12567381Y-9459714D02*
X12576905Y-9450190D01*
X12576905Y-9450190D02*
X12595953Y-9421619D01*
X12595953Y-9421619D02*
X12605477Y-9402571D01*
X12605477Y-9402571D02*
X12615000Y-9374000D01*
X12615000Y-9374000D02*
X12624524Y-9326381D01*
X12624524Y-9326381D02*
X12624524Y-9288286D01*
X12624524Y-9288286D02*
X12615000Y-9240667D01*
X12615000Y-9240667D02*
X12605477Y-9212095D01*
X12605477Y-9212095D02*
X12595953Y-9193048D01*
X12595953Y-9193048D02*
X12576905Y-9164476D01*
X12576905Y-9164476D02*
X12567381Y-9154952D01*
D14*
X7577500Y-9517500D02*
X7577500Y-9592500D01*
X7540000Y-9555000D02*
X7615000Y-9555000D01*
D11*
X7900714Y-9447524D02*
X7919762Y-9447524D01*
X7919762Y-9447524D02*
X7938809Y-9457048D01*
X7938809Y-9457048D02*
X7948333Y-9466571D01*
X7948333Y-9466571D02*
X7957857Y-9485619D01*
X7957857Y-9485619D02*
X7967381Y-9523714D01*
X7967381Y-9523714D02*
X7967381Y-9571333D01*
X7967381Y-9571333D02*
X7957857Y-9609429D01*
X7957857Y-9609429D02*
X7948333Y-9628476D01*
X7948333Y-9628476D02*
X7938809Y-9638000D01*
X7938809Y-9638000D02*
X7919762Y-9647524D01*
X7919762Y-9647524D02*
X7900714Y-9647524D01*
X7900714Y-9647524D02*
X7881667Y-9638000D01*
X7881667Y-9638000D02*
X7872143Y-9628476D01*
X7872143Y-9628476D02*
X7862619Y-9609429D01*
X7862619Y-9609429D02*
X7853095Y-9571333D01*
X7853095Y-9571333D02*
X7853095Y-9523714D01*
X7853095Y-9523714D02*
X7862619Y-9485619D01*
X7862619Y-9485619D02*
X7872143Y-9466571D01*
X7872143Y-9466571D02*
X7881667Y-9457048D01*
X7881667Y-9457048D02*
X7900714Y-9447524D01*
X8053095Y-9628476D02*
X8062619Y-9638000D01*
X8062619Y-9638000D02*
X8053095Y-9647524D01*
X8053095Y-9647524D02*
X8043571Y-9638000D01*
X8043571Y-9638000D02*
X8053095Y-9628476D01*
X8053095Y-9628476D02*
X8053095Y-9647524D01*
X8129286Y-9447524D02*
X8262619Y-9447524D01*
X8262619Y-9447524D02*
X8176905Y-9647524D01*
X8434048Y-9447524D02*
X8338809Y-9447524D01*
X8338809Y-9447524D02*
X8329286Y-9542762D01*
X8329286Y-9542762D02*
X8338809Y-9533238D01*
X8338809Y-9533238D02*
X8357857Y-9523714D01*
X8357857Y-9523714D02*
X8405476Y-9523714D01*
X8405476Y-9523714D02*
X8424524Y-9533238D01*
X8424524Y-9533238D02*
X8434048Y-9542762D01*
X8434048Y-9542762D02*
X8443571Y-9561810D01*
X8443571Y-9561810D02*
X8443571Y-9609429D01*
X8443571Y-9609429D02*
X8434048Y-9628476D01*
X8434048Y-9628476D02*
X8424524Y-9638000D01*
X8424524Y-9638000D02*
X8405476Y-9647524D01*
X8405476Y-9647524D02*
X8357857Y-9647524D01*
X8357857Y-9647524D02*
X8338809Y-9638000D01*
X8338809Y-9638000D02*
X8329286Y-9628476D01*
X8567381Y-9447524D02*
X8586429Y-9447524D01*
X8586429Y-9447524D02*
X8605476Y-9457048D01*
X8605476Y-9457048D02*
X8615000Y-9466571D01*
X8615000Y-9466571D02*
X8624524Y-9485619D01*
X8624524Y-9485619D02*
X8634048Y-9523714D01*
X8634048Y-9523714D02*
X8634048Y-9571333D01*
X8634048Y-9571333D02*
X8624524Y-9609429D01*
X8624524Y-9609429D02*
X8615000Y-9628476D01*
X8615000Y-9628476D02*
X8605476Y-9638000D01*
X8605476Y-9638000D02*
X8586429Y-9647524D01*
X8586429Y-9647524D02*
X8567381Y-9647524D01*
X8567381Y-9647524D02*
X8548333Y-9638000D01*
X8548333Y-9638000D02*
X8538810Y-9628476D01*
X8538810Y-9628476D02*
X8529286Y-9609429D01*
X8529286Y-9609429D02*
X8519762Y-9571333D01*
X8519762Y-9571333D02*
X8519762Y-9523714D01*
X8519762Y-9523714D02*
X8529286Y-9485619D01*
X8529286Y-9485619D02*
X8538810Y-9466571D01*
X8538810Y-9466571D02*
X8548333Y-9457048D01*
X8548333Y-9457048D02*
X8567381Y-9447524D01*
X8719762Y-9647524D02*
X8719762Y-9514190D01*
X8719762Y-9533238D02*
X8729286Y-9523714D01*
X8729286Y-9523714D02*
X8748333Y-9514190D01*
X8748333Y-9514190D02*
X8776905Y-9514190D01*
X8776905Y-9514190D02*
X8795952Y-9523714D01*
X8795952Y-9523714D02*
X8805476Y-9542762D01*
X8805476Y-9542762D02*
X8805476Y-9647524D01*
X8805476Y-9542762D02*
X8815000Y-9523714D01*
X8815000Y-9523714D02*
X8834048Y-9514190D01*
X8834048Y-9514190D02*
X8862619Y-9514190D01*
X8862619Y-9514190D02*
X8881667Y-9523714D01*
X8881667Y-9523714D02*
X8891191Y-9542762D01*
X8891191Y-9542762D02*
X8891191Y-9647524D01*
X8986429Y-9647524D02*
X8986429Y-9514190D01*
X8986429Y-9533238D02*
X8995952Y-9523714D01*
X8995952Y-9523714D02*
X9015000Y-9514190D01*
X9015000Y-9514190D02*
X9043572Y-9514190D01*
X9043572Y-9514190D02*
X9062619Y-9523714D01*
X9062619Y-9523714D02*
X9072143Y-9542762D01*
X9072143Y-9542762D02*
X9072143Y-9647524D01*
X9072143Y-9542762D02*
X9081667Y-9523714D01*
X9081667Y-9523714D02*
X9100714Y-9514190D01*
X9100714Y-9514190D02*
X9129286Y-9514190D01*
X9129286Y-9514190D02*
X9148333Y-9523714D01*
X9148333Y-9523714D02*
X9157857Y-9542762D01*
X9157857Y-9542762D02*
X9157857Y-9647524D01*
X9548333Y-9438000D02*
X9376905Y-9695143D01*
X9805476Y-9447524D02*
X9824524Y-9447524D01*
X9824524Y-9447524D02*
X9843572Y-9457048D01*
X9843572Y-9457048D02*
X9853095Y-9466571D01*
X9853095Y-9466571D02*
X9862619Y-9485619D01*
X9862619Y-9485619D02*
X9872143Y-9523714D01*
X9872143Y-9523714D02*
X9872143Y-9571333D01*
X9872143Y-9571333D02*
X9862619Y-9609429D01*
X9862619Y-9609429D02*
X9853095Y-9628476D01*
X9853095Y-9628476D02*
X9843572Y-9638000D01*
X9843572Y-9638000D02*
X9824524Y-9647524D01*
X9824524Y-9647524D02*
X9805476Y-9647524D01*
X9805476Y-9647524D02*
X9786429Y-9638000D01*
X9786429Y-9638000D02*
X9776905Y-9628476D01*
X9776905Y-9628476D02*
X9767381Y-9609429D01*
X9767381Y-9609429D02*
X9757857Y-9571333D01*
X9757857Y-9571333D02*
X9757857Y-9523714D01*
X9757857Y-9523714D02*
X9767381Y-9485619D01*
X9767381Y-9485619D02*
X9776905Y-9466571D01*
X9776905Y-9466571D02*
X9786429Y-9457048D01*
X9786429Y-9457048D02*
X9805476Y-9447524D01*
X9957857Y-9628476D02*
X9967381Y-9638000D01*
X9967381Y-9638000D02*
X9957857Y-9647524D01*
X9957857Y-9647524D02*
X9948334Y-9638000D01*
X9948334Y-9638000D02*
X9957857Y-9628476D01*
X9957857Y-9628476D02*
X9957857Y-9647524D01*
X10091191Y-9447524D02*
X10110238Y-9447524D01*
X10110238Y-9447524D02*
X10129286Y-9457048D01*
X10129286Y-9457048D02*
X10138810Y-9466571D01*
X10138810Y-9466571D02*
X10148334Y-9485619D01*
X10148334Y-9485619D02*
X10157857Y-9523714D01*
X10157857Y-9523714D02*
X10157857Y-9571333D01*
X10157857Y-9571333D02*
X10148334Y-9609429D01*
X10148334Y-9609429D02*
X10138810Y-9628476D01*
X10138810Y-9628476D02*
X10129286Y-9638000D01*
X10129286Y-9638000D02*
X10110238Y-9647524D01*
X10110238Y-9647524D02*
X10091191Y-9647524D01*
X10091191Y-9647524D02*
X10072143Y-9638000D01*
X10072143Y-9638000D02*
X10062619Y-9628476D01*
X10062619Y-9628476D02*
X10053095Y-9609429D01*
X10053095Y-9609429D02*
X10043572Y-9571333D01*
X10043572Y-9571333D02*
X10043572Y-9523714D01*
X10043572Y-9523714D02*
X10053095Y-9485619D01*
X10053095Y-9485619D02*
X10062619Y-9466571D01*
X10062619Y-9466571D02*
X10072143Y-9457048D01*
X10072143Y-9457048D02*
X10091191Y-9447524D01*
X10234048Y-9466571D02*
X10243572Y-9457048D01*
X10243572Y-9457048D02*
X10262619Y-9447524D01*
X10262619Y-9447524D02*
X10310238Y-9447524D01*
X10310238Y-9447524D02*
X10329286Y-9457048D01*
X10329286Y-9457048D02*
X10338810Y-9466571D01*
X10338810Y-9466571D02*
X10348334Y-9485619D01*
X10348334Y-9485619D02*
X10348334Y-9504667D01*
X10348334Y-9504667D02*
X10338810Y-9533238D01*
X10338810Y-9533238D02*
X10224524Y-9647524D01*
X10224524Y-9647524D02*
X10348334Y-9647524D01*
X10443572Y-9647524D02*
X10481667Y-9647524D01*
X10481667Y-9647524D02*
X10500715Y-9638000D01*
X10500715Y-9638000D02*
X10510238Y-9628476D01*
X10510238Y-9628476D02*
X10529286Y-9599905D01*
X10529286Y-9599905D02*
X10538810Y-9561810D01*
X10538810Y-9561810D02*
X10538810Y-9485619D01*
X10538810Y-9485619D02*
X10529286Y-9466571D01*
X10529286Y-9466571D02*
X10519762Y-9457048D01*
X10519762Y-9457048D02*
X10500715Y-9447524D01*
X10500715Y-9447524D02*
X10462619Y-9447524D01*
X10462619Y-9447524D02*
X10443572Y-9457048D01*
X10443572Y-9457048D02*
X10434048Y-9466571D01*
X10434048Y-9466571D02*
X10424524Y-9485619D01*
X10424524Y-9485619D02*
X10424524Y-9533238D01*
X10424524Y-9533238D02*
X10434048Y-9552286D01*
X10434048Y-9552286D02*
X10443572Y-9561810D01*
X10443572Y-9561810D02*
X10462619Y-9571333D01*
X10462619Y-9571333D02*
X10500715Y-9571333D01*
X10500715Y-9571333D02*
X10519762Y-9561810D01*
X10519762Y-9561810D02*
X10529286Y-9552286D01*
X10529286Y-9552286D02*
X10538810Y-9533238D01*
X10719762Y-9447524D02*
X10624524Y-9447524D01*
X10624524Y-9447524D02*
X10615000Y-9542762D01*
X10615000Y-9542762D02*
X10624524Y-9533238D01*
X10624524Y-9533238D02*
X10643572Y-9523714D01*
X10643572Y-9523714D02*
X10691191Y-9523714D01*
X10691191Y-9523714D02*
X10710238Y-9533238D01*
X10710238Y-9533238D02*
X10719762Y-9542762D01*
X10719762Y-9542762D02*
X10729286Y-9561810D01*
X10729286Y-9561810D02*
X10729286Y-9609429D01*
X10729286Y-9609429D02*
X10719762Y-9628476D01*
X10719762Y-9628476D02*
X10710238Y-9638000D01*
X10710238Y-9638000D02*
X10691191Y-9647524D01*
X10691191Y-9647524D02*
X10643572Y-9647524D01*
X10643572Y-9647524D02*
X10624524Y-9638000D01*
X10624524Y-9638000D02*
X10615000Y-9628476D01*
X10805476Y-9447524D02*
X10805476Y-9485619D01*
X10881667Y-9447524D02*
X10881667Y-9485619D01*
X11176905Y-9723714D02*
X11167381Y-9714190D01*
X11167381Y-9714190D02*
X11148334Y-9685619D01*
X11148334Y-9685619D02*
X11138810Y-9666571D01*
X11138810Y-9666571D02*
X11129286Y-9638000D01*
X11129286Y-9638000D02*
X11119762Y-9590381D01*
X11119762Y-9590381D02*
X11119762Y-9552286D01*
X11119762Y-9552286D02*
X11129286Y-9504667D01*
X11129286Y-9504667D02*
X11138810Y-9476095D01*
X11138810Y-9476095D02*
X11148334Y-9457048D01*
X11148334Y-9457048D02*
X11167381Y-9428476D01*
X11167381Y-9428476D02*
X11176905Y-9418952D01*
X11234048Y-9447524D02*
X11357857Y-9447524D01*
X11357857Y-9447524D02*
X11291191Y-9523714D01*
X11291191Y-9523714D02*
X11319762Y-9523714D01*
X11319762Y-9523714D02*
X11338810Y-9533238D01*
X11338810Y-9533238D02*
X11348334Y-9542762D01*
X11348334Y-9542762D02*
X11357857Y-9561810D01*
X11357857Y-9561810D02*
X11357857Y-9609429D01*
X11357857Y-9609429D02*
X11348334Y-9628476D01*
X11348334Y-9628476D02*
X11338810Y-9638000D01*
X11338810Y-9638000D02*
X11319762Y-9647524D01*
X11319762Y-9647524D02*
X11262619Y-9647524D01*
X11262619Y-9647524D02*
X11243572Y-9638000D01*
X11243572Y-9638000D02*
X11234048Y-9628476D01*
X11595953Y-9647524D02*
X11595953Y-9447524D01*
X11681667Y-9647524D02*
X11681667Y-9542762D01*
X11681667Y-9542762D02*
X11672143Y-9523714D01*
X11672143Y-9523714D02*
X11653096Y-9514190D01*
X11653096Y-9514190D02*
X11624524Y-9514190D01*
X11624524Y-9514190D02*
X11605476Y-9523714D01*
X11605476Y-9523714D02*
X11595953Y-9533238D01*
X11805476Y-9647524D02*
X11786429Y-9638000D01*
X11786429Y-9638000D02*
X11776905Y-9628476D01*
X11776905Y-9628476D02*
X11767381Y-9609429D01*
X11767381Y-9609429D02*
X11767381Y-9552286D01*
X11767381Y-9552286D02*
X11776905Y-9533238D01*
X11776905Y-9533238D02*
X11786429Y-9523714D01*
X11786429Y-9523714D02*
X11805476Y-9514190D01*
X11805476Y-9514190D02*
X11834048Y-9514190D01*
X11834048Y-9514190D02*
X11853096Y-9523714D01*
X11853096Y-9523714D02*
X11862619Y-9533238D01*
X11862619Y-9533238D02*
X11872143Y-9552286D01*
X11872143Y-9552286D02*
X11872143Y-9609429D01*
X11872143Y-9609429D02*
X11862619Y-9628476D01*
X11862619Y-9628476D02*
X11853096Y-9638000D01*
X11853096Y-9638000D02*
X11834048Y-9647524D01*
X11834048Y-9647524D02*
X11805476Y-9647524D01*
X11986429Y-9647524D02*
X11967381Y-9638000D01*
X11967381Y-9638000D02*
X11957857Y-9618952D01*
X11957857Y-9618952D02*
X11957857Y-9447524D01*
X12138810Y-9638000D02*
X12119762Y-9647524D01*
X12119762Y-9647524D02*
X12081667Y-9647524D01*
X12081667Y-9647524D02*
X12062619Y-9638000D01*
X12062619Y-9638000D02*
X12053096Y-9618952D01*
X12053096Y-9618952D02*
X12053096Y-9542762D01*
X12053096Y-9542762D02*
X12062619Y-9523714D01*
X12062619Y-9523714D02*
X12081667Y-9514190D01*
X12081667Y-9514190D02*
X12119762Y-9514190D01*
X12119762Y-9514190D02*
X12138810Y-9523714D01*
X12138810Y-9523714D02*
X12148334Y-9542762D01*
X12148334Y-9542762D02*
X12148334Y-9561810D01*
X12148334Y-9561810D02*
X12053096Y-9580857D01*
X12224524Y-9638000D02*
X12243572Y-9647524D01*
X12243572Y-9647524D02*
X12281667Y-9647524D01*
X12281667Y-9647524D02*
X12300715Y-9638000D01*
X12300715Y-9638000D02*
X12310238Y-9618952D01*
X12310238Y-9618952D02*
X12310238Y-9609429D01*
X12310238Y-9609429D02*
X12300715Y-9590381D01*
X12300715Y-9590381D02*
X12281667Y-9580857D01*
X12281667Y-9580857D02*
X12253096Y-9580857D01*
X12253096Y-9580857D02*
X12234048Y-9571333D01*
X12234048Y-9571333D02*
X12224524Y-9552286D01*
X12224524Y-9552286D02*
X12224524Y-9542762D01*
X12224524Y-9542762D02*
X12234048Y-9523714D01*
X12234048Y-9523714D02*
X12253096Y-9514190D01*
X12253096Y-9514190D02*
X12281667Y-9514190D01*
X12281667Y-9514190D02*
X12300715Y-9523714D01*
X12376905Y-9723714D02*
X12386429Y-9714190D01*
X12386429Y-9714190D02*
X12405477Y-9685619D01*
X12405477Y-9685619D02*
X12415000Y-9666571D01*
X12415000Y-9666571D02*
X12424524Y-9638000D01*
X12424524Y-9638000D02*
X12434048Y-9590381D01*
X12434048Y-9590381D02*
X12434048Y-9552286D01*
X12434048Y-9552286D02*
X12424524Y-9504667D01*
X12424524Y-9504667D02*
X12415000Y-9476095D01*
X12415000Y-9476095D02*
X12405477Y-9457048D01*
X12405477Y-9457048D02*
X12386429Y-9428476D01*
X12386429Y-9428476D02*
X12376905Y-9418952D01*
D15*
X7603841Y-9845941D02*
X7603841Y-9792059D01*
X7549959Y-9792059D01*
X7549959Y-9845941D01*
X7603841Y-9845941D01*
D11*
X7900714Y-9711524D02*
X7919762Y-9711524D01*
X7919762Y-9711524D02*
X7938809Y-9721048D01*
X7938809Y-9721048D02*
X7948333Y-9730571D01*
X7948333Y-9730571D02*
X7957857Y-9749619D01*
X7957857Y-9749619D02*
X7967381Y-9787714D01*
X7967381Y-9787714D02*
X7967381Y-9835333D01*
X7967381Y-9835333D02*
X7957857Y-9873429D01*
X7957857Y-9873429D02*
X7948333Y-9892476D01*
X7948333Y-9892476D02*
X7938809Y-9902000D01*
X7938809Y-9902000D02*
X7919762Y-9911524D01*
X7919762Y-9911524D02*
X7900714Y-9911524D01*
X7900714Y-9911524D02*
X7881667Y-9902000D01*
X7881667Y-9902000D02*
X7872143Y-9892476D01*
X7872143Y-9892476D02*
X7862619Y-9873429D01*
X7862619Y-9873429D02*
X7853095Y-9835333D01*
X7853095Y-9835333D02*
X7853095Y-9787714D01*
X7853095Y-9787714D02*
X7862619Y-9749619D01*
X7862619Y-9749619D02*
X7872143Y-9730571D01*
X7872143Y-9730571D02*
X7881667Y-9721048D01*
X7881667Y-9721048D02*
X7900714Y-9711524D01*
X8053095Y-9892476D02*
X8062619Y-9902000D01*
X8062619Y-9902000D02*
X8053095Y-9911524D01*
X8053095Y-9911524D02*
X8043571Y-9902000D01*
X8043571Y-9902000D02*
X8053095Y-9892476D01*
X8053095Y-9892476D02*
X8053095Y-9911524D01*
X8129286Y-9711524D02*
X8262619Y-9711524D01*
X8262619Y-9711524D02*
X8176905Y-9911524D01*
X8424524Y-9711524D02*
X8386428Y-9711524D01*
X8386428Y-9711524D02*
X8367381Y-9721048D01*
X8367381Y-9721048D02*
X8357857Y-9730571D01*
X8357857Y-9730571D02*
X8338809Y-9759143D01*
X8338809Y-9759143D02*
X8329286Y-9797238D01*
X8329286Y-9797238D02*
X8329286Y-9873429D01*
X8329286Y-9873429D02*
X8338809Y-9892476D01*
X8338809Y-9892476D02*
X8348333Y-9902000D01*
X8348333Y-9902000D02*
X8367381Y-9911524D01*
X8367381Y-9911524D02*
X8405476Y-9911524D01*
X8405476Y-9911524D02*
X8424524Y-9902000D01*
X8424524Y-9902000D02*
X8434048Y-9892476D01*
X8434048Y-9892476D02*
X8443571Y-9873429D01*
X8443571Y-9873429D02*
X8443571Y-9825810D01*
X8443571Y-9825810D02*
X8434048Y-9806762D01*
X8434048Y-9806762D02*
X8424524Y-9797238D01*
X8424524Y-9797238D02*
X8405476Y-9787714D01*
X8405476Y-9787714D02*
X8367381Y-9787714D01*
X8367381Y-9787714D02*
X8348333Y-9797238D01*
X8348333Y-9797238D02*
X8338809Y-9806762D01*
X8338809Y-9806762D02*
X8329286Y-9825810D01*
X8519762Y-9730571D02*
X8529286Y-9721048D01*
X8529286Y-9721048D02*
X8548333Y-9711524D01*
X8548333Y-9711524D02*
X8595952Y-9711524D01*
X8595952Y-9711524D02*
X8615000Y-9721048D01*
X8615000Y-9721048D02*
X8624524Y-9730571D01*
X8624524Y-9730571D02*
X8634048Y-9749619D01*
X8634048Y-9749619D02*
X8634048Y-9768667D01*
X8634048Y-9768667D02*
X8624524Y-9797238D01*
X8624524Y-9797238D02*
X8510238Y-9911524D01*
X8510238Y-9911524D02*
X8634048Y-9911524D01*
X8719762Y-9911524D02*
X8719762Y-9778190D01*
X8719762Y-9797238D02*
X8729286Y-9787714D01*
X8729286Y-9787714D02*
X8748333Y-9778190D01*
X8748333Y-9778190D02*
X8776905Y-9778190D01*
X8776905Y-9778190D02*
X8795952Y-9787714D01*
X8795952Y-9787714D02*
X8805476Y-9806762D01*
X8805476Y-9806762D02*
X8805476Y-9911524D01*
X8805476Y-9806762D02*
X8815000Y-9787714D01*
X8815000Y-9787714D02*
X8834048Y-9778190D01*
X8834048Y-9778190D02*
X8862619Y-9778190D01*
X8862619Y-9778190D02*
X8881667Y-9787714D01*
X8881667Y-9787714D02*
X8891191Y-9806762D01*
X8891191Y-9806762D02*
X8891191Y-9911524D01*
X8986429Y-9911524D02*
X8986429Y-9778190D01*
X8986429Y-9797238D02*
X8995952Y-9787714D01*
X8995952Y-9787714D02*
X9015000Y-9778190D01*
X9015000Y-9778190D02*
X9043572Y-9778190D01*
X9043572Y-9778190D02*
X9062619Y-9787714D01*
X9062619Y-9787714D02*
X9072143Y-9806762D01*
X9072143Y-9806762D02*
X9072143Y-9911524D01*
X9072143Y-9806762D02*
X9081667Y-9787714D01*
X9081667Y-9787714D02*
X9100714Y-9778190D01*
X9100714Y-9778190D02*
X9129286Y-9778190D01*
X9129286Y-9778190D02*
X9148333Y-9787714D01*
X9148333Y-9787714D02*
X9157857Y-9806762D01*
X9157857Y-9806762D02*
X9157857Y-9911524D01*
X9548333Y-9702000D02*
X9376905Y-9959143D01*
X9805476Y-9711524D02*
X9824524Y-9711524D01*
X9824524Y-9711524D02*
X9843572Y-9721048D01*
X9843572Y-9721048D02*
X9853095Y-9730571D01*
X9853095Y-9730571D02*
X9862619Y-9749619D01*
X9862619Y-9749619D02*
X9872143Y-9787714D01*
X9872143Y-9787714D02*
X9872143Y-9835333D01*
X9872143Y-9835333D02*
X9862619Y-9873429D01*
X9862619Y-9873429D02*
X9853095Y-9892476D01*
X9853095Y-9892476D02*
X9843572Y-9902000D01*
X9843572Y-9902000D02*
X9824524Y-9911524D01*
X9824524Y-9911524D02*
X9805476Y-9911524D01*
X9805476Y-9911524D02*
X9786429Y-9902000D01*
X9786429Y-9902000D02*
X9776905Y-9892476D01*
X9776905Y-9892476D02*
X9767381Y-9873429D01*
X9767381Y-9873429D02*
X9757857Y-9835333D01*
X9757857Y-9835333D02*
X9757857Y-9787714D01*
X9757857Y-9787714D02*
X9767381Y-9749619D01*
X9767381Y-9749619D02*
X9776905Y-9730571D01*
X9776905Y-9730571D02*
X9786429Y-9721048D01*
X9786429Y-9721048D02*
X9805476Y-9711524D01*
X9957857Y-9892476D02*
X9967381Y-9902000D01*
X9967381Y-9902000D02*
X9957857Y-9911524D01*
X9957857Y-9911524D02*
X9948334Y-9902000D01*
X9948334Y-9902000D02*
X9957857Y-9892476D01*
X9957857Y-9892476D02*
X9957857Y-9911524D01*
X10091191Y-9711524D02*
X10110238Y-9711524D01*
X10110238Y-9711524D02*
X10129286Y-9721048D01*
X10129286Y-9721048D02*
X10138810Y-9730571D01*
X10138810Y-9730571D02*
X10148334Y-9749619D01*
X10148334Y-9749619D02*
X10157857Y-9787714D01*
X10157857Y-9787714D02*
X10157857Y-9835333D01*
X10157857Y-9835333D02*
X10148334Y-9873429D01*
X10148334Y-9873429D02*
X10138810Y-9892476D01*
X10138810Y-9892476D02*
X10129286Y-9902000D01*
X10129286Y-9902000D02*
X10110238Y-9911524D01*
X10110238Y-9911524D02*
X10091191Y-9911524D01*
X10091191Y-9911524D02*
X10072143Y-9902000D01*
X10072143Y-9902000D02*
X10062619Y-9892476D01*
X10062619Y-9892476D02*
X10053095Y-9873429D01*
X10053095Y-9873429D02*
X10043572Y-9835333D01*
X10043572Y-9835333D02*
X10043572Y-9787714D01*
X10043572Y-9787714D02*
X10053095Y-9749619D01*
X10053095Y-9749619D02*
X10062619Y-9730571D01*
X10062619Y-9730571D02*
X10072143Y-9721048D01*
X10072143Y-9721048D02*
X10091191Y-9711524D01*
X10224524Y-9711524D02*
X10348334Y-9711524D01*
X10348334Y-9711524D02*
X10281667Y-9787714D01*
X10281667Y-9787714D02*
X10310238Y-9787714D01*
X10310238Y-9787714D02*
X10329286Y-9797238D01*
X10329286Y-9797238D02*
X10338810Y-9806762D01*
X10338810Y-9806762D02*
X10348334Y-9825810D01*
X10348334Y-9825810D02*
X10348334Y-9873429D01*
X10348334Y-9873429D02*
X10338810Y-9892476D01*
X10338810Y-9892476D02*
X10329286Y-9902000D01*
X10329286Y-9902000D02*
X10310238Y-9911524D01*
X10310238Y-9911524D02*
X10253095Y-9911524D01*
X10253095Y-9911524D02*
X10234048Y-9902000D01*
X10234048Y-9902000D02*
X10224524Y-9892476D01*
X10472143Y-9711524D02*
X10491191Y-9711524D01*
X10491191Y-9711524D02*
X10510238Y-9721048D01*
X10510238Y-9721048D02*
X10519762Y-9730571D01*
X10519762Y-9730571D02*
X10529286Y-9749619D01*
X10529286Y-9749619D02*
X10538810Y-9787714D01*
X10538810Y-9787714D02*
X10538810Y-9835333D01*
X10538810Y-9835333D02*
X10529286Y-9873429D01*
X10529286Y-9873429D02*
X10519762Y-9892476D01*
X10519762Y-9892476D02*
X10510238Y-9902000D01*
X10510238Y-9902000D02*
X10491191Y-9911524D01*
X10491191Y-9911524D02*
X10472143Y-9911524D01*
X10472143Y-9911524D02*
X10453095Y-9902000D01*
X10453095Y-9902000D02*
X10443572Y-9892476D01*
X10443572Y-9892476D02*
X10434048Y-9873429D01*
X10434048Y-9873429D02*
X10424524Y-9835333D01*
X10424524Y-9835333D02*
X10424524Y-9787714D01*
X10424524Y-9787714D02*
X10434048Y-9749619D01*
X10434048Y-9749619D02*
X10443572Y-9730571D01*
X10443572Y-9730571D02*
X10453095Y-9721048D01*
X10453095Y-9721048D02*
X10472143Y-9711524D01*
X10662619Y-9711524D02*
X10681667Y-9711524D01*
X10681667Y-9711524D02*
X10700715Y-9721048D01*
X10700715Y-9721048D02*
X10710238Y-9730571D01*
X10710238Y-9730571D02*
X10719762Y-9749619D01*
X10719762Y-9749619D02*
X10729286Y-9787714D01*
X10729286Y-9787714D02*
X10729286Y-9835333D01*
X10729286Y-9835333D02*
X10719762Y-9873429D01*
X10719762Y-9873429D02*
X10710238Y-9892476D01*
X10710238Y-9892476D02*
X10700715Y-9902000D01*
X10700715Y-9902000D02*
X10681667Y-9911524D01*
X10681667Y-9911524D02*
X10662619Y-9911524D01*
X10662619Y-9911524D02*
X10643572Y-9902000D01*
X10643572Y-9902000D02*
X10634048Y-9892476D01*
X10634048Y-9892476D02*
X10624524Y-9873429D01*
X10624524Y-9873429D02*
X10615000Y-9835333D01*
X10615000Y-9835333D02*
X10615000Y-9787714D01*
X10615000Y-9787714D02*
X10624524Y-9749619D01*
X10624524Y-9749619D02*
X10634048Y-9730571D01*
X10634048Y-9730571D02*
X10643572Y-9721048D01*
X10643572Y-9721048D02*
X10662619Y-9711524D01*
X10805476Y-9711524D02*
X10805476Y-9749619D01*
X10881667Y-9711524D02*
X10881667Y-9749619D01*
X11176905Y-9987714D02*
X11167381Y-9978190D01*
X11167381Y-9978190D02*
X11148334Y-9949619D01*
X11148334Y-9949619D02*
X11138810Y-9930571D01*
X11138810Y-9930571D02*
X11129286Y-9902000D01*
X11129286Y-9902000D02*
X11119762Y-9854381D01*
X11119762Y-9854381D02*
X11119762Y-9816286D01*
X11119762Y-9816286D02*
X11129286Y-9768667D01*
X11129286Y-9768667D02*
X11138810Y-9740095D01*
X11138810Y-9740095D02*
X11148334Y-9721048D01*
X11148334Y-9721048D02*
X11167381Y-9692476D01*
X11167381Y-9692476D02*
X11176905Y-9682952D01*
X11234048Y-9711524D02*
X11357857Y-9711524D01*
X11357857Y-9711524D02*
X11291191Y-9787714D01*
X11291191Y-9787714D02*
X11319762Y-9787714D01*
X11319762Y-9787714D02*
X11338810Y-9797238D01*
X11338810Y-9797238D02*
X11348334Y-9806762D01*
X11348334Y-9806762D02*
X11357857Y-9825810D01*
X11357857Y-9825810D02*
X11357857Y-9873429D01*
X11357857Y-9873429D02*
X11348334Y-9892476D01*
X11348334Y-9892476D02*
X11338810Y-9902000D01*
X11338810Y-9902000D02*
X11319762Y-9911524D01*
X11319762Y-9911524D02*
X11262619Y-9911524D01*
X11262619Y-9911524D02*
X11243572Y-9902000D01*
X11243572Y-9902000D02*
X11234048Y-9892476D01*
X11595953Y-9911524D02*
X11595953Y-9711524D01*
X11681667Y-9911524D02*
X11681667Y-9806762D01*
X11681667Y-9806762D02*
X11672143Y-9787714D01*
X11672143Y-9787714D02*
X11653096Y-9778190D01*
X11653096Y-9778190D02*
X11624524Y-9778190D01*
X11624524Y-9778190D02*
X11605476Y-9787714D01*
X11605476Y-9787714D02*
X11595953Y-9797238D01*
X11805476Y-9911524D02*
X11786429Y-9902000D01*
X11786429Y-9902000D02*
X11776905Y-9892476D01*
X11776905Y-9892476D02*
X11767381Y-9873429D01*
X11767381Y-9873429D02*
X11767381Y-9816286D01*
X11767381Y-9816286D02*
X11776905Y-9797238D01*
X11776905Y-9797238D02*
X11786429Y-9787714D01*
X11786429Y-9787714D02*
X11805476Y-9778190D01*
X11805476Y-9778190D02*
X11834048Y-9778190D01*
X11834048Y-9778190D02*
X11853096Y-9787714D01*
X11853096Y-9787714D02*
X11862619Y-9797238D01*
X11862619Y-9797238D02*
X11872143Y-9816286D01*
X11872143Y-9816286D02*
X11872143Y-9873429D01*
X11872143Y-9873429D02*
X11862619Y-9892476D01*
X11862619Y-9892476D02*
X11853096Y-9902000D01*
X11853096Y-9902000D02*
X11834048Y-9911524D01*
X11834048Y-9911524D02*
X11805476Y-9911524D01*
X11986429Y-9911524D02*
X11967381Y-9902000D01*
X11967381Y-9902000D02*
X11957857Y-9882952D01*
X11957857Y-9882952D02*
X11957857Y-9711524D01*
X12138810Y-9902000D02*
X12119762Y-9911524D01*
X12119762Y-9911524D02*
X12081667Y-9911524D01*
X12081667Y-9911524D02*
X12062619Y-9902000D01*
X12062619Y-9902000D02*
X12053096Y-9882952D01*
X12053096Y-9882952D02*
X12053096Y-9806762D01*
X12053096Y-9806762D02*
X12062619Y-9787714D01*
X12062619Y-9787714D02*
X12081667Y-9778190D01*
X12081667Y-9778190D02*
X12119762Y-9778190D01*
X12119762Y-9778190D02*
X12138810Y-9787714D01*
X12138810Y-9787714D02*
X12148334Y-9806762D01*
X12148334Y-9806762D02*
X12148334Y-9825810D01*
X12148334Y-9825810D02*
X12053096Y-9844857D01*
X12224524Y-9902000D02*
X12243572Y-9911524D01*
X12243572Y-9911524D02*
X12281667Y-9911524D01*
X12281667Y-9911524D02*
X12300715Y-9902000D01*
X12300715Y-9902000D02*
X12310238Y-9882952D01*
X12310238Y-9882952D02*
X12310238Y-9873429D01*
X12310238Y-9873429D02*
X12300715Y-9854381D01*
X12300715Y-9854381D02*
X12281667Y-9844857D01*
X12281667Y-9844857D02*
X12253096Y-9844857D01*
X12253096Y-9844857D02*
X12234048Y-9835333D01*
X12234048Y-9835333D02*
X12224524Y-9816286D01*
X12224524Y-9816286D02*
X12224524Y-9806762D01*
X12224524Y-9806762D02*
X12234048Y-9787714D01*
X12234048Y-9787714D02*
X12253096Y-9778190D01*
X12253096Y-9778190D02*
X12281667Y-9778190D01*
X12281667Y-9778190D02*
X12300715Y-9787714D01*
X12376905Y-9987714D02*
X12386429Y-9978190D01*
X12386429Y-9978190D02*
X12405477Y-9949619D01*
X12405477Y-9949619D02*
X12415000Y-9930571D01*
X12415000Y-9930571D02*
X12424524Y-9902000D01*
X12424524Y-9902000D02*
X12434048Y-9854381D01*
X12434048Y-9854381D02*
X12434048Y-9816286D01*
X12434048Y-9816286D02*
X12424524Y-9768667D01*
X12424524Y-9768667D02*
X12415000Y-9740095D01*
X12415000Y-9740095D02*
X12405477Y-9721048D01*
X12405477Y-9721048D02*
X12386429Y-9692476D01*
X12386429Y-9692476D02*
X12376905Y-9682952D01*
D16*
X7575000Y-10123000D02*
X7615000Y-10083000D01*
X7575000Y-10043000D01*
X7535000Y-10083000D01*
X7575000Y-10123000D01*
D11*
X7900714Y-9975524D02*
X7919762Y-9975524D01*
X7919762Y-9975524D02*
X7938809Y-9985048D01*
X7938809Y-9985048D02*
X7948333Y-9994571D01*
X7948333Y-9994571D02*
X7957857Y-10013619D01*
X7957857Y-10013619D02*
X7967381Y-10051714D01*
X7967381Y-10051714D02*
X7967381Y-10099333D01*
X7967381Y-10099333D02*
X7957857Y-10137429D01*
X7957857Y-10137429D02*
X7948333Y-10156476D01*
X7948333Y-10156476D02*
X7938809Y-10166000D01*
X7938809Y-10166000D02*
X7919762Y-10175524D01*
X7919762Y-10175524D02*
X7900714Y-10175524D01*
X7900714Y-10175524D02*
X7881667Y-10166000D01*
X7881667Y-10166000D02*
X7872143Y-10156476D01*
X7872143Y-10156476D02*
X7862619Y-10137429D01*
X7862619Y-10137429D02*
X7853095Y-10099333D01*
X7853095Y-10099333D02*
X7853095Y-10051714D01*
X7853095Y-10051714D02*
X7862619Y-10013619D01*
X7862619Y-10013619D02*
X7872143Y-9994571D01*
X7872143Y-9994571D02*
X7881667Y-9985048D01*
X7881667Y-9985048D02*
X7900714Y-9975524D01*
X8053095Y-10156476D02*
X8062619Y-10166000D01*
X8062619Y-10166000D02*
X8053095Y-10175524D01*
X8053095Y-10175524D02*
X8043571Y-10166000D01*
X8043571Y-10166000D02*
X8053095Y-10156476D01*
X8053095Y-10156476D02*
X8053095Y-10175524D01*
X8176905Y-10061238D02*
X8157857Y-10051714D01*
X8157857Y-10051714D02*
X8148333Y-10042190D01*
X8148333Y-10042190D02*
X8138809Y-10023143D01*
X8138809Y-10023143D02*
X8138809Y-10013619D01*
X8138809Y-10013619D02*
X8148333Y-9994571D01*
X8148333Y-9994571D02*
X8157857Y-9985048D01*
X8157857Y-9985048D02*
X8176905Y-9975524D01*
X8176905Y-9975524D02*
X8215000Y-9975524D01*
X8215000Y-9975524D02*
X8234048Y-9985048D01*
X8234048Y-9985048D02*
X8243571Y-9994571D01*
X8243571Y-9994571D02*
X8253095Y-10013619D01*
X8253095Y-10013619D02*
X8253095Y-10023143D01*
X8253095Y-10023143D02*
X8243571Y-10042190D01*
X8243571Y-10042190D02*
X8234048Y-10051714D01*
X8234048Y-10051714D02*
X8215000Y-10061238D01*
X8215000Y-10061238D02*
X8176905Y-10061238D01*
X8176905Y-10061238D02*
X8157857Y-10070762D01*
X8157857Y-10070762D02*
X8148333Y-10080286D01*
X8148333Y-10080286D02*
X8138809Y-10099333D01*
X8138809Y-10099333D02*
X8138809Y-10137429D01*
X8138809Y-10137429D02*
X8148333Y-10156476D01*
X8148333Y-10156476D02*
X8157857Y-10166000D01*
X8157857Y-10166000D02*
X8176905Y-10175524D01*
X8176905Y-10175524D02*
X8215000Y-10175524D01*
X8215000Y-10175524D02*
X8234048Y-10166000D01*
X8234048Y-10166000D02*
X8243571Y-10156476D01*
X8243571Y-10156476D02*
X8253095Y-10137429D01*
X8253095Y-10137429D02*
X8253095Y-10099333D01*
X8253095Y-10099333D02*
X8243571Y-10080286D01*
X8243571Y-10080286D02*
X8234048Y-10070762D01*
X8234048Y-10070762D02*
X8215000Y-10061238D01*
X8376905Y-9975524D02*
X8395952Y-9975524D01*
X8395952Y-9975524D02*
X8415000Y-9985048D01*
X8415000Y-9985048D02*
X8424524Y-9994571D01*
X8424524Y-9994571D02*
X8434048Y-10013619D01*
X8434048Y-10013619D02*
X8443571Y-10051714D01*
X8443571Y-10051714D02*
X8443571Y-10099333D01*
X8443571Y-10099333D02*
X8434048Y-10137429D01*
X8434048Y-10137429D02*
X8424524Y-10156476D01*
X8424524Y-10156476D02*
X8415000Y-10166000D01*
X8415000Y-10166000D02*
X8395952Y-10175524D01*
X8395952Y-10175524D02*
X8376905Y-10175524D01*
X8376905Y-10175524D02*
X8357857Y-10166000D01*
X8357857Y-10166000D02*
X8348333Y-10156476D01*
X8348333Y-10156476D02*
X8338809Y-10137429D01*
X8338809Y-10137429D02*
X8329286Y-10099333D01*
X8329286Y-10099333D02*
X8329286Y-10051714D01*
X8329286Y-10051714D02*
X8338809Y-10013619D01*
X8338809Y-10013619D02*
X8348333Y-9994571D01*
X8348333Y-9994571D02*
X8357857Y-9985048D01*
X8357857Y-9985048D02*
X8376905Y-9975524D01*
X8567381Y-9975524D02*
X8586429Y-9975524D01*
X8586429Y-9975524D02*
X8605476Y-9985048D01*
X8605476Y-9985048D02*
X8615000Y-9994571D01*
X8615000Y-9994571D02*
X8624524Y-10013619D01*
X8624524Y-10013619D02*
X8634048Y-10051714D01*
X8634048Y-10051714D02*
X8634048Y-10099333D01*
X8634048Y-10099333D02*
X8624524Y-10137429D01*
X8624524Y-10137429D02*
X8615000Y-10156476D01*
X8615000Y-10156476D02*
X8605476Y-10166000D01*
X8605476Y-10166000D02*
X8586429Y-10175524D01*
X8586429Y-10175524D02*
X8567381Y-10175524D01*
X8567381Y-10175524D02*
X8548333Y-10166000D01*
X8548333Y-10166000D02*
X8538810Y-10156476D01*
X8538810Y-10156476D02*
X8529286Y-10137429D01*
X8529286Y-10137429D02*
X8519762Y-10099333D01*
X8519762Y-10099333D02*
X8519762Y-10051714D01*
X8519762Y-10051714D02*
X8529286Y-10013619D01*
X8529286Y-10013619D02*
X8538810Y-9994571D01*
X8538810Y-9994571D02*
X8548333Y-9985048D01*
X8548333Y-9985048D02*
X8567381Y-9975524D01*
X8719762Y-10175524D02*
X8719762Y-10042190D01*
X8719762Y-10061238D02*
X8729286Y-10051714D01*
X8729286Y-10051714D02*
X8748333Y-10042190D01*
X8748333Y-10042190D02*
X8776905Y-10042190D01*
X8776905Y-10042190D02*
X8795952Y-10051714D01*
X8795952Y-10051714D02*
X8805476Y-10070762D01*
X8805476Y-10070762D02*
X8805476Y-10175524D01*
X8805476Y-10070762D02*
X8815000Y-10051714D01*
X8815000Y-10051714D02*
X8834048Y-10042190D01*
X8834048Y-10042190D02*
X8862619Y-10042190D01*
X8862619Y-10042190D02*
X8881667Y-10051714D01*
X8881667Y-10051714D02*
X8891191Y-10070762D01*
X8891191Y-10070762D02*
X8891191Y-10175524D01*
X8986429Y-10175524D02*
X8986429Y-10042190D01*
X8986429Y-10061238D02*
X8995952Y-10051714D01*
X8995952Y-10051714D02*
X9015000Y-10042190D01*
X9015000Y-10042190D02*
X9043572Y-10042190D01*
X9043572Y-10042190D02*
X9062619Y-10051714D01*
X9062619Y-10051714D02*
X9072143Y-10070762D01*
X9072143Y-10070762D02*
X9072143Y-10175524D01*
X9072143Y-10070762D02*
X9081667Y-10051714D01*
X9081667Y-10051714D02*
X9100714Y-10042190D01*
X9100714Y-10042190D02*
X9129286Y-10042190D01*
X9129286Y-10042190D02*
X9148333Y-10051714D01*
X9148333Y-10051714D02*
X9157857Y-10070762D01*
X9157857Y-10070762D02*
X9157857Y-10175524D01*
X9548333Y-9966000D02*
X9376905Y-10223143D01*
X9805476Y-9975524D02*
X9824524Y-9975524D01*
X9824524Y-9975524D02*
X9843572Y-9985048D01*
X9843572Y-9985048D02*
X9853095Y-9994571D01*
X9853095Y-9994571D02*
X9862619Y-10013619D01*
X9862619Y-10013619D02*
X9872143Y-10051714D01*
X9872143Y-10051714D02*
X9872143Y-10099333D01*
X9872143Y-10099333D02*
X9862619Y-10137429D01*
X9862619Y-10137429D02*
X9853095Y-10156476D01*
X9853095Y-10156476D02*
X9843572Y-10166000D01*
X9843572Y-10166000D02*
X9824524Y-10175524D01*
X9824524Y-10175524D02*
X9805476Y-10175524D01*
X9805476Y-10175524D02*
X9786429Y-10166000D01*
X9786429Y-10166000D02*
X9776905Y-10156476D01*
X9776905Y-10156476D02*
X9767381Y-10137429D01*
X9767381Y-10137429D02*
X9757857Y-10099333D01*
X9757857Y-10099333D02*
X9757857Y-10051714D01*
X9757857Y-10051714D02*
X9767381Y-10013619D01*
X9767381Y-10013619D02*
X9776905Y-9994571D01*
X9776905Y-9994571D02*
X9786429Y-9985048D01*
X9786429Y-9985048D02*
X9805476Y-9975524D01*
X9957857Y-10156476D02*
X9967381Y-10166000D01*
X9967381Y-10166000D02*
X9957857Y-10175524D01*
X9957857Y-10175524D02*
X9948334Y-10166000D01*
X9948334Y-10166000D02*
X9957857Y-10156476D01*
X9957857Y-10156476D02*
X9957857Y-10175524D01*
X10091191Y-9975524D02*
X10110238Y-9975524D01*
X10110238Y-9975524D02*
X10129286Y-9985048D01*
X10129286Y-9985048D02*
X10138810Y-9994571D01*
X10138810Y-9994571D02*
X10148334Y-10013619D01*
X10148334Y-10013619D02*
X10157857Y-10051714D01*
X10157857Y-10051714D02*
X10157857Y-10099333D01*
X10157857Y-10099333D02*
X10148334Y-10137429D01*
X10148334Y-10137429D02*
X10138810Y-10156476D01*
X10138810Y-10156476D02*
X10129286Y-10166000D01*
X10129286Y-10166000D02*
X10110238Y-10175524D01*
X10110238Y-10175524D02*
X10091191Y-10175524D01*
X10091191Y-10175524D02*
X10072143Y-10166000D01*
X10072143Y-10166000D02*
X10062619Y-10156476D01*
X10062619Y-10156476D02*
X10053095Y-10137429D01*
X10053095Y-10137429D02*
X10043572Y-10099333D01*
X10043572Y-10099333D02*
X10043572Y-10051714D01*
X10043572Y-10051714D02*
X10053095Y-10013619D01*
X10053095Y-10013619D02*
X10062619Y-9994571D01*
X10062619Y-9994571D02*
X10072143Y-9985048D01*
X10072143Y-9985048D02*
X10091191Y-9975524D01*
X10224524Y-9975524D02*
X10348334Y-9975524D01*
X10348334Y-9975524D02*
X10281667Y-10051714D01*
X10281667Y-10051714D02*
X10310238Y-10051714D01*
X10310238Y-10051714D02*
X10329286Y-10061238D01*
X10329286Y-10061238D02*
X10338810Y-10070762D01*
X10338810Y-10070762D02*
X10348334Y-10089810D01*
X10348334Y-10089810D02*
X10348334Y-10137429D01*
X10348334Y-10137429D02*
X10338810Y-10156476D01*
X10338810Y-10156476D02*
X10329286Y-10166000D01*
X10329286Y-10166000D02*
X10310238Y-10175524D01*
X10310238Y-10175524D02*
X10253095Y-10175524D01*
X10253095Y-10175524D02*
X10234048Y-10166000D01*
X10234048Y-10166000D02*
X10224524Y-10156476D01*
X10538810Y-10175524D02*
X10424524Y-10175524D01*
X10481667Y-10175524D02*
X10481667Y-9975524D01*
X10481667Y-9975524D02*
X10462619Y-10004095D01*
X10462619Y-10004095D02*
X10443572Y-10023143D01*
X10443572Y-10023143D02*
X10424524Y-10032667D01*
X10719762Y-9975524D02*
X10624524Y-9975524D01*
X10624524Y-9975524D02*
X10615000Y-10070762D01*
X10615000Y-10070762D02*
X10624524Y-10061238D01*
X10624524Y-10061238D02*
X10643572Y-10051714D01*
X10643572Y-10051714D02*
X10691191Y-10051714D01*
X10691191Y-10051714D02*
X10710238Y-10061238D01*
X10710238Y-10061238D02*
X10719762Y-10070762D01*
X10719762Y-10070762D02*
X10729286Y-10089810D01*
X10729286Y-10089810D02*
X10729286Y-10137429D01*
X10729286Y-10137429D02*
X10719762Y-10156476D01*
X10719762Y-10156476D02*
X10710238Y-10166000D01*
X10710238Y-10166000D02*
X10691191Y-10175524D01*
X10691191Y-10175524D02*
X10643572Y-10175524D01*
X10643572Y-10175524D02*
X10624524Y-10166000D01*
X10624524Y-10166000D02*
X10615000Y-10156476D01*
X10805476Y-9975524D02*
X10805476Y-10013619D01*
X10881667Y-9975524D02*
X10881667Y-10013619D01*
X11176905Y-10251714D02*
X11167381Y-10242190D01*
X11167381Y-10242190D02*
X11148334Y-10213619D01*
X11148334Y-10213619D02*
X11138810Y-10194571D01*
X11138810Y-10194571D02*
X11129286Y-10166000D01*
X11129286Y-10166000D02*
X11119762Y-10118381D01*
X11119762Y-10118381D02*
X11119762Y-10080286D01*
X11119762Y-10080286D02*
X11129286Y-10032667D01*
X11129286Y-10032667D02*
X11138810Y-10004095D01*
X11138810Y-10004095D02*
X11148334Y-9985048D01*
X11148334Y-9985048D02*
X11167381Y-9956476D01*
X11167381Y-9956476D02*
X11176905Y-9946952D01*
X11338810Y-9975524D02*
X11300714Y-9975524D01*
X11300714Y-9975524D02*
X11281667Y-9985048D01*
X11281667Y-9985048D02*
X11272143Y-9994571D01*
X11272143Y-9994571D02*
X11253095Y-10023143D01*
X11253095Y-10023143D02*
X11243572Y-10061238D01*
X11243572Y-10061238D02*
X11243572Y-10137429D01*
X11243572Y-10137429D02*
X11253095Y-10156476D01*
X11253095Y-10156476D02*
X11262619Y-10166000D01*
X11262619Y-10166000D02*
X11281667Y-10175524D01*
X11281667Y-10175524D02*
X11319762Y-10175524D01*
X11319762Y-10175524D02*
X11338810Y-10166000D01*
X11338810Y-10166000D02*
X11348334Y-10156476D01*
X11348334Y-10156476D02*
X11357857Y-10137429D01*
X11357857Y-10137429D02*
X11357857Y-10089810D01*
X11357857Y-10089810D02*
X11348334Y-10070762D01*
X11348334Y-10070762D02*
X11338810Y-10061238D01*
X11338810Y-10061238D02*
X11319762Y-10051714D01*
X11319762Y-10051714D02*
X11281667Y-10051714D01*
X11281667Y-10051714D02*
X11262619Y-10061238D01*
X11262619Y-10061238D02*
X11253095Y-10070762D01*
X11253095Y-10070762D02*
X11243572Y-10089810D01*
X11595953Y-10175524D02*
X11595953Y-9975524D01*
X11681667Y-10175524D02*
X11681667Y-10070762D01*
X11681667Y-10070762D02*
X11672143Y-10051714D01*
X11672143Y-10051714D02*
X11653096Y-10042190D01*
X11653096Y-10042190D02*
X11624524Y-10042190D01*
X11624524Y-10042190D02*
X11605476Y-10051714D01*
X11605476Y-10051714D02*
X11595953Y-10061238D01*
X11805476Y-10175524D02*
X11786429Y-10166000D01*
X11786429Y-10166000D02*
X11776905Y-10156476D01*
X11776905Y-10156476D02*
X11767381Y-10137429D01*
X11767381Y-10137429D02*
X11767381Y-10080286D01*
X11767381Y-10080286D02*
X11776905Y-10061238D01*
X11776905Y-10061238D02*
X11786429Y-10051714D01*
X11786429Y-10051714D02*
X11805476Y-10042190D01*
X11805476Y-10042190D02*
X11834048Y-10042190D01*
X11834048Y-10042190D02*
X11853096Y-10051714D01*
X11853096Y-10051714D02*
X11862619Y-10061238D01*
X11862619Y-10061238D02*
X11872143Y-10080286D01*
X11872143Y-10080286D02*
X11872143Y-10137429D01*
X11872143Y-10137429D02*
X11862619Y-10156476D01*
X11862619Y-10156476D02*
X11853096Y-10166000D01*
X11853096Y-10166000D02*
X11834048Y-10175524D01*
X11834048Y-10175524D02*
X11805476Y-10175524D01*
X11986429Y-10175524D02*
X11967381Y-10166000D01*
X11967381Y-10166000D02*
X11957857Y-10146952D01*
X11957857Y-10146952D02*
X11957857Y-9975524D01*
X12138810Y-10166000D02*
X12119762Y-10175524D01*
X12119762Y-10175524D02*
X12081667Y-10175524D01*
X12081667Y-10175524D02*
X12062619Y-10166000D01*
X12062619Y-10166000D02*
X12053096Y-10146952D01*
X12053096Y-10146952D02*
X12053096Y-10070762D01*
X12053096Y-10070762D02*
X12062619Y-10051714D01*
X12062619Y-10051714D02*
X12081667Y-10042190D01*
X12081667Y-10042190D02*
X12119762Y-10042190D01*
X12119762Y-10042190D02*
X12138810Y-10051714D01*
X12138810Y-10051714D02*
X12148334Y-10070762D01*
X12148334Y-10070762D02*
X12148334Y-10089810D01*
X12148334Y-10089810D02*
X12053096Y-10108857D01*
X12224524Y-10166000D02*
X12243572Y-10175524D01*
X12243572Y-10175524D02*
X12281667Y-10175524D01*
X12281667Y-10175524D02*
X12300715Y-10166000D01*
X12300715Y-10166000D02*
X12310238Y-10146952D01*
X12310238Y-10146952D02*
X12310238Y-10137429D01*
X12310238Y-10137429D02*
X12300715Y-10118381D01*
X12300715Y-10118381D02*
X12281667Y-10108857D01*
X12281667Y-10108857D02*
X12253096Y-10108857D01*
X12253096Y-10108857D02*
X12234048Y-10099333D01*
X12234048Y-10099333D02*
X12224524Y-10080286D01*
X12224524Y-10080286D02*
X12224524Y-10070762D01*
X12224524Y-10070762D02*
X12234048Y-10051714D01*
X12234048Y-10051714D02*
X12253096Y-10042190D01*
X12253096Y-10042190D02*
X12281667Y-10042190D01*
X12281667Y-10042190D02*
X12300715Y-10051714D01*
X12376905Y-10251714D02*
X12386429Y-10242190D01*
X12386429Y-10242190D02*
X12405477Y-10213619D01*
X12405477Y-10213619D02*
X12415000Y-10194571D01*
X12415000Y-10194571D02*
X12424524Y-10166000D01*
X12424524Y-10166000D02*
X12434048Y-10118381D01*
X12434048Y-10118381D02*
X12434048Y-10080286D01*
X12434048Y-10080286D02*
X12424524Y-10032667D01*
X12424524Y-10032667D02*
X12415000Y-10004095D01*
X12415000Y-10004095D02*
X12405477Y-9985048D01*
X12405477Y-9985048D02*
X12386429Y-9956476D01*
X12386429Y-9956476D02*
X12376905Y-9946952D01*
D16*
X7535000Y-10307000D02*
X7615000Y-10387000D01*
X7615000Y-10307000D02*
X7535000Y-10387000D01*
X7615000Y-10347000D02*
G75*
G03*
X7615000Y-10347000I-40000J0D01*
G01*
D11*
X7900714Y-10239524D02*
X7919762Y-10239524D01*
X7919762Y-10239524D02*
X7938809Y-10249048D01*
X7938809Y-10249048D02*
X7948333Y-10258571D01*
X7948333Y-10258571D02*
X7957857Y-10277619D01*
X7957857Y-10277619D02*
X7967381Y-10315714D01*
X7967381Y-10315714D02*
X7967381Y-10363333D01*
X7967381Y-10363333D02*
X7957857Y-10401429D01*
X7957857Y-10401429D02*
X7948333Y-10420476D01*
X7948333Y-10420476D02*
X7938809Y-10430000D01*
X7938809Y-10430000D02*
X7919762Y-10439524D01*
X7919762Y-10439524D02*
X7900714Y-10439524D01*
X7900714Y-10439524D02*
X7881667Y-10430000D01*
X7881667Y-10430000D02*
X7872143Y-10420476D01*
X7872143Y-10420476D02*
X7862619Y-10401429D01*
X7862619Y-10401429D02*
X7853095Y-10363333D01*
X7853095Y-10363333D02*
X7853095Y-10315714D01*
X7853095Y-10315714D02*
X7862619Y-10277619D01*
X7862619Y-10277619D02*
X7872143Y-10258571D01*
X7872143Y-10258571D02*
X7881667Y-10249048D01*
X7881667Y-10249048D02*
X7900714Y-10239524D01*
X8053095Y-10420476D02*
X8062619Y-10430000D01*
X8062619Y-10430000D02*
X8053095Y-10439524D01*
X8053095Y-10439524D02*
X8043571Y-10430000D01*
X8043571Y-10430000D02*
X8053095Y-10420476D01*
X8053095Y-10420476D02*
X8053095Y-10439524D01*
X8176905Y-10325238D02*
X8157857Y-10315714D01*
X8157857Y-10315714D02*
X8148333Y-10306190D01*
X8148333Y-10306190D02*
X8138809Y-10287143D01*
X8138809Y-10287143D02*
X8138809Y-10277619D01*
X8138809Y-10277619D02*
X8148333Y-10258571D01*
X8148333Y-10258571D02*
X8157857Y-10249048D01*
X8157857Y-10249048D02*
X8176905Y-10239524D01*
X8176905Y-10239524D02*
X8215000Y-10239524D01*
X8215000Y-10239524D02*
X8234048Y-10249048D01*
X8234048Y-10249048D02*
X8243571Y-10258571D01*
X8243571Y-10258571D02*
X8253095Y-10277619D01*
X8253095Y-10277619D02*
X8253095Y-10287143D01*
X8253095Y-10287143D02*
X8243571Y-10306190D01*
X8243571Y-10306190D02*
X8234048Y-10315714D01*
X8234048Y-10315714D02*
X8215000Y-10325238D01*
X8215000Y-10325238D02*
X8176905Y-10325238D01*
X8176905Y-10325238D02*
X8157857Y-10334762D01*
X8157857Y-10334762D02*
X8148333Y-10344286D01*
X8148333Y-10344286D02*
X8138809Y-10363333D01*
X8138809Y-10363333D02*
X8138809Y-10401429D01*
X8138809Y-10401429D02*
X8148333Y-10420476D01*
X8148333Y-10420476D02*
X8157857Y-10430000D01*
X8157857Y-10430000D02*
X8176905Y-10439524D01*
X8176905Y-10439524D02*
X8215000Y-10439524D01*
X8215000Y-10439524D02*
X8234048Y-10430000D01*
X8234048Y-10430000D02*
X8243571Y-10420476D01*
X8243571Y-10420476D02*
X8253095Y-10401429D01*
X8253095Y-10401429D02*
X8253095Y-10363333D01*
X8253095Y-10363333D02*
X8243571Y-10344286D01*
X8243571Y-10344286D02*
X8234048Y-10334762D01*
X8234048Y-10334762D02*
X8215000Y-10325238D01*
X8376905Y-10239524D02*
X8395952Y-10239524D01*
X8395952Y-10239524D02*
X8415000Y-10249048D01*
X8415000Y-10249048D02*
X8424524Y-10258571D01*
X8424524Y-10258571D02*
X8434048Y-10277619D01*
X8434048Y-10277619D02*
X8443571Y-10315714D01*
X8443571Y-10315714D02*
X8443571Y-10363333D01*
X8443571Y-10363333D02*
X8434048Y-10401429D01*
X8434048Y-10401429D02*
X8424524Y-10420476D01*
X8424524Y-10420476D02*
X8415000Y-10430000D01*
X8415000Y-10430000D02*
X8395952Y-10439524D01*
X8395952Y-10439524D02*
X8376905Y-10439524D01*
X8376905Y-10439524D02*
X8357857Y-10430000D01*
X8357857Y-10430000D02*
X8348333Y-10420476D01*
X8348333Y-10420476D02*
X8338809Y-10401429D01*
X8338809Y-10401429D02*
X8329286Y-10363333D01*
X8329286Y-10363333D02*
X8329286Y-10315714D01*
X8329286Y-10315714D02*
X8338809Y-10277619D01*
X8338809Y-10277619D02*
X8348333Y-10258571D01*
X8348333Y-10258571D02*
X8357857Y-10249048D01*
X8357857Y-10249048D02*
X8376905Y-10239524D01*
X8567381Y-10239524D02*
X8586429Y-10239524D01*
X8586429Y-10239524D02*
X8605476Y-10249048D01*
X8605476Y-10249048D02*
X8615000Y-10258571D01*
X8615000Y-10258571D02*
X8624524Y-10277619D01*
X8624524Y-10277619D02*
X8634048Y-10315714D01*
X8634048Y-10315714D02*
X8634048Y-10363333D01*
X8634048Y-10363333D02*
X8624524Y-10401429D01*
X8624524Y-10401429D02*
X8615000Y-10420476D01*
X8615000Y-10420476D02*
X8605476Y-10430000D01*
X8605476Y-10430000D02*
X8586429Y-10439524D01*
X8586429Y-10439524D02*
X8567381Y-10439524D01*
X8567381Y-10439524D02*
X8548333Y-10430000D01*
X8548333Y-10430000D02*
X8538810Y-10420476D01*
X8538810Y-10420476D02*
X8529286Y-10401429D01*
X8529286Y-10401429D02*
X8519762Y-10363333D01*
X8519762Y-10363333D02*
X8519762Y-10315714D01*
X8519762Y-10315714D02*
X8529286Y-10277619D01*
X8529286Y-10277619D02*
X8538810Y-10258571D01*
X8538810Y-10258571D02*
X8548333Y-10249048D01*
X8548333Y-10249048D02*
X8567381Y-10239524D01*
X8719762Y-10439524D02*
X8719762Y-10306190D01*
X8719762Y-10325238D02*
X8729286Y-10315714D01*
X8729286Y-10315714D02*
X8748333Y-10306190D01*
X8748333Y-10306190D02*
X8776905Y-10306190D01*
X8776905Y-10306190D02*
X8795952Y-10315714D01*
X8795952Y-10315714D02*
X8805476Y-10334762D01*
X8805476Y-10334762D02*
X8805476Y-10439524D01*
X8805476Y-10334762D02*
X8815000Y-10315714D01*
X8815000Y-10315714D02*
X8834048Y-10306190D01*
X8834048Y-10306190D02*
X8862619Y-10306190D01*
X8862619Y-10306190D02*
X8881667Y-10315714D01*
X8881667Y-10315714D02*
X8891191Y-10334762D01*
X8891191Y-10334762D02*
X8891191Y-10439524D01*
X8986429Y-10439524D02*
X8986429Y-10306190D01*
X8986429Y-10325238D02*
X8995952Y-10315714D01*
X8995952Y-10315714D02*
X9015000Y-10306190D01*
X9015000Y-10306190D02*
X9043572Y-10306190D01*
X9043572Y-10306190D02*
X9062619Y-10315714D01*
X9062619Y-10315714D02*
X9072143Y-10334762D01*
X9072143Y-10334762D02*
X9072143Y-10439524D01*
X9072143Y-10334762D02*
X9081667Y-10315714D01*
X9081667Y-10315714D02*
X9100714Y-10306190D01*
X9100714Y-10306190D02*
X9129286Y-10306190D01*
X9129286Y-10306190D02*
X9148333Y-10315714D01*
X9148333Y-10315714D02*
X9157857Y-10334762D01*
X9157857Y-10334762D02*
X9157857Y-10439524D01*
X9548333Y-10230000D02*
X9376905Y-10487143D01*
X9805476Y-10239524D02*
X9824524Y-10239524D01*
X9824524Y-10239524D02*
X9843572Y-10249048D01*
X9843572Y-10249048D02*
X9853095Y-10258571D01*
X9853095Y-10258571D02*
X9862619Y-10277619D01*
X9862619Y-10277619D02*
X9872143Y-10315714D01*
X9872143Y-10315714D02*
X9872143Y-10363333D01*
X9872143Y-10363333D02*
X9862619Y-10401429D01*
X9862619Y-10401429D02*
X9853095Y-10420476D01*
X9853095Y-10420476D02*
X9843572Y-10430000D01*
X9843572Y-10430000D02*
X9824524Y-10439524D01*
X9824524Y-10439524D02*
X9805476Y-10439524D01*
X9805476Y-10439524D02*
X9786429Y-10430000D01*
X9786429Y-10430000D02*
X9776905Y-10420476D01*
X9776905Y-10420476D02*
X9767381Y-10401429D01*
X9767381Y-10401429D02*
X9757857Y-10363333D01*
X9757857Y-10363333D02*
X9757857Y-10315714D01*
X9757857Y-10315714D02*
X9767381Y-10277619D01*
X9767381Y-10277619D02*
X9776905Y-10258571D01*
X9776905Y-10258571D02*
X9786429Y-10249048D01*
X9786429Y-10249048D02*
X9805476Y-10239524D01*
X9957857Y-10420476D02*
X9967381Y-10430000D01*
X9967381Y-10430000D02*
X9957857Y-10439524D01*
X9957857Y-10439524D02*
X9948334Y-10430000D01*
X9948334Y-10430000D02*
X9957857Y-10420476D01*
X9957857Y-10420476D02*
X9957857Y-10439524D01*
X10091191Y-10239524D02*
X10110238Y-10239524D01*
X10110238Y-10239524D02*
X10129286Y-10249048D01*
X10129286Y-10249048D02*
X10138810Y-10258571D01*
X10138810Y-10258571D02*
X10148334Y-10277619D01*
X10148334Y-10277619D02*
X10157857Y-10315714D01*
X10157857Y-10315714D02*
X10157857Y-10363333D01*
X10157857Y-10363333D02*
X10148334Y-10401429D01*
X10148334Y-10401429D02*
X10138810Y-10420476D01*
X10138810Y-10420476D02*
X10129286Y-10430000D01*
X10129286Y-10430000D02*
X10110238Y-10439524D01*
X10110238Y-10439524D02*
X10091191Y-10439524D01*
X10091191Y-10439524D02*
X10072143Y-10430000D01*
X10072143Y-10430000D02*
X10062619Y-10420476D01*
X10062619Y-10420476D02*
X10053095Y-10401429D01*
X10053095Y-10401429D02*
X10043572Y-10363333D01*
X10043572Y-10363333D02*
X10043572Y-10315714D01*
X10043572Y-10315714D02*
X10053095Y-10277619D01*
X10053095Y-10277619D02*
X10062619Y-10258571D01*
X10062619Y-10258571D02*
X10072143Y-10249048D01*
X10072143Y-10249048D02*
X10091191Y-10239524D01*
X10224524Y-10239524D02*
X10348334Y-10239524D01*
X10348334Y-10239524D02*
X10281667Y-10315714D01*
X10281667Y-10315714D02*
X10310238Y-10315714D01*
X10310238Y-10315714D02*
X10329286Y-10325238D01*
X10329286Y-10325238D02*
X10338810Y-10334762D01*
X10338810Y-10334762D02*
X10348334Y-10353810D01*
X10348334Y-10353810D02*
X10348334Y-10401429D01*
X10348334Y-10401429D02*
X10338810Y-10420476D01*
X10338810Y-10420476D02*
X10329286Y-10430000D01*
X10329286Y-10430000D02*
X10310238Y-10439524D01*
X10310238Y-10439524D02*
X10253095Y-10439524D01*
X10253095Y-10439524D02*
X10234048Y-10430000D01*
X10234048Y-10430000D02*
X10224524Y-10420476D01*
X10538810Y-10439524D02*
X10424524Y-10439524D01*
X10481667Y-10439524D02*
X10481667Y-10239524D01*
X10481667Y-10239524D02*
X10462619Y-10268095D01*
X10462619Y-10268095D02*
X10443572Y-10287143D01*
X10443572Y-10287143D02*
X10424524Y-10296667D01*
X10719762Y-10239524D02*
X10624524Y-10239524D01*
X10624524Y-10239524D02*
X10615000Y-10334762D01*
X10615000Y-10334762D02*
X10624524Y-10325238D01*
X10624524Y-10325238D02*
X10643572Y-10315714D01*
X10643572Y-10315714D02*
X10691191Y-10315714D01*
X10691191Y-10315714D02*
X10710238Y-10325238D01*
X10710238Y-10325238D02*
X10719762Y-10334762D01*
X10719762Y-10334762D02*
X10729286Y-10353810D01*
X10729286Y-10353810D02*
X10729286Y-10401429D01*
X10729286Y-10401429D02*
X10719762Y-10420476D01*
X10719762Y-10420476D02*
X10710238Y-10430000D01*
X10710238Y-10430000D02*
X10691191Y-10439524D01*
X10691191Y-10439524D02*
X10643572Y-10439524D01*
X10643572Y-10439524D02*
X10624524Y-10430000D01*
X10624524Y-10430000D02*
X10615000Y-10420476D01*
X10805476Y-10239524D02*
X10805476Y-10277619D01*
X10881667Y-10239524D02*
X10881667Y-10277619D01*
X11176905Y-10515714D02*
X11167381Y-10506190D01*
X11167381Y-10506190D02*
X11148334Y-10477619D01*
X11148334Y-10477619D02*
X11138810Y-10458571D01*
X11138810Y-10458571D02*
X11129286Y-10430000D01*
X11129286Y-10430000D02*
X11119762Y-10382381D01*
X11119762Y-10382381D02*
X11119762Y-10344286D01*
X11119762Y-10344286D02*
X11129286Y-10296667D01*
X11129286Y-10296667D02*
X11138810Y-10268095D01*
X11138810Y-10268095D02*
X11148334Y-10249048D01*
X11148334Y-10249048D02*
X11167381Y-10220476D01*
X11167381Y-10220476D02*
X11176905Y-10210952D01*
X11338810Y-10239524D02*
X11300714Y-10239524D01*
X11300714Y-10239524D02*
X11281667Y-10249048D01*
X11281667Y-10249048D02*
X11272143Y-10258571D01*
X11272143Y-10258571D02*
X11253095Y-10287143D01*
X11253095Y-10287143D02*
X11243572Y-10325238D01*
X11243572Y-10325238D02*
X11243572Y-10401429D01*
X11243572Y-10401429D02*
X11253095Y-10420476D01*
X11253095Y-10420476D02*
X11262619Y-10430000D01*
X11262619Y-10430000D02*
X11281667Y-10439524D01*
X11281667Y-10439524D02*
X11319762Y-10439524D01*
X11319762Y-10439524D02*
X11338810Y-10430000D01*
X11338810Y-10430000D02*
X11348334Y-10420476D01*
X11348334Y-10420476D02*
X11357857Y-10401429D01*
X11357857Y-10401429D02*
X11357857Y-10353810D01*
X11357857Y-10353810D02*
X11348334Y-10334762D01*
X11348334Y-10334762D02*
X11338810Y-10325238D01*
X11338810Y-10325238D02*
X11319762Y-10315714D01*
X11319762Y-10315714D02*
X11281667Y-10315714D01*
X11281667Y-10315714D02*
X11262619Y-10325238D01*
X11262619Y-10325238D02*
X11253095Y-10334762D01*
X11253095Y-10334762D02*
X11243572Y-10353810D01*
X11434048Y-10258571D02*
X11443572Y-10249048D01*
X11443572Y-10249048D02*
X11462619Y-10239524D01*
X11462619Y-10239524D02*
X11510238Y-10239524D01*
X11510238Y-10239524D02*
X11529286Y-10249048D01*
X11529286Y-10249048D02*
X11538810Y-10258571D01*
X11538810Y-10258571D02*
X11548334Y-10277619D01*
X11548334Y-10277619D02*
X11548334Y-10296667D01*
X11548334Y-10296667D02*
X11538810Y-10325238D01*
X11538810Y-10325238D02*
X11424524Y-10439524D01*
X11424524Y-10439524D02*
X11548334Y-10439524D01*
X11786429Y-10439524D02*
X11786429Y-10239524D01*
X11872143Y-10439524D02*
X11872143Y-10334762D01*
X11872143Y-10334762D02*
X11862619Y-10315714D01*
X11862619Y-10315714D02*
X11843572Y-10306190D01*
X11843572Y-10306190D02*
X11815000Y-10306190D01*
X11815000Y-10306190D02*
X11795953Y-10315714D01*
X11795953Y-10315714D02*
X11786429Y-10325238D01*
X11995953Y-10439524D02*
X11976905Y-10430000D01*
X11976905Y-10430000D02*
X11967381Y-10420476D01*
X11967381Y-10420476D02*
X11957857Y-10401429D01*
X11957857Y-10401429D02*
X11957857Y-10344286D01*
X11957857Y-10344286D02*
X11967381Y-10325238D01*
X11967381Y-10325238D02*
X11976905Y-10315714D01*
X11976905Y-10315714D02*
X11995953Y-10306190D01*
X11995953Y-10306190D02*
X12024524Y-10306190D01*
X12024524Y-10306190D02*
X12043572Y-10315714D01*
X12043572Y-10315714D02*
X12053096Y-10325238D01*
X12053096Y-10325238D02*
X12062619Y-10344286D01*
X12062619Y-10344286D02*
X12062619Y-10401429D01*
X12062619Y-10401429D02*
X12053096Y-10420476D01*
X12053096Y-10420476D02*
X12043572Y-10430000D01*
X12043572Y-10430000D02*
X12024524Y-10439524D01*
X12024524Y-10439524D02*
X11995953Y-10439524D01*
X12176905Y-10439524D02*
X12157857Y-10430000D01*
X12157857Y-10430000D02*
X12148334Y-10410952D01*
X12148334Y-10410952D02*
X12148334Y-10239524D01*
X12329286Y-10430000D02*
X12310238Y-10439524D01*
X12310238Y-10439524D02*
X12272143Y-10439524D01*
X12272143Y-10439524D02*
X12253096Y-10430000D01*
X12253096Y-10430000D02*
X12243572Y-10410952D01*
X12243572Y-10410952D02*
X12243572Y-10334762D01*
X12243572Y-10334762D02*
X12253096Y-10315714D01*
X12253096Y-10315714D02*
X12272143Y-10306190D01*
X12272143Y-10306190D02*
X12310238Y-10306190D01*
X12310238Y-10306190D02*
X12329286Y-10315714D01*
X12329286Y-10315714D02*
X12338810Y-10334762D01*
X12338810Y-10334762D02*
X12338810Y-10353810D01*
X12338810Y-10353810D02*
X12243572Y-10372857D01*
X12415000Y-10430000D02*
X12434048Y-10439524D01*
X12434048Y-10439524D02*
X12472143Y-10439524D01*
X12472143Y-10439524D02*
X12491191Y-10430000D01*
X12491191Y-10430000D02*
X12500715Y-10410952D01*
X12500715Y-10410952D02*
X12500715Y-10401429D01*
X12500715Y-10401429D02*
X12491191Y-10382381D01*
X12491191Y-10382381D02*
X12472143Y-10372857D01*
X12472143Y-10372857D02*
X12443572Y-10372857D01*
X12443572Y-10372857D02*
X12424524Y-10363333D01*
X12424524Y-10363333D02*
X12415000Y-10344286D01*
X12415000Y-10344286D02*
X12415000Y-10334762D01*
X12415000Y-10334762D02*
X12424524Y-10315714D01*
X12424524Y-10315714D02*
X12443572Y-10306190D01*
X12443572Y-10306190D02*
X12472143Y-10306190D01*
X12472143Y-10306190D02*
X12491191Y-10315714D01*
X12567381Y-10515714D02*
X12576905Y-10506190D01*
X12576905Y-10506190D02*
X12595953Y-10477619D01*
X12595953Y-10477619D02*
X12605477Y-10458571D01*
X12605477Y-10458571D02*
X12615000Y-10430000D01*
X12615000Y-10430000D02*
X12624524Y-10382381D01*
X12624524Y-10382381D02*
X12624524Y-10344286D01*
X12624524Y-10344286D02*
X12615000Y-10296667D01*
X12615000Y-10296667D02*
X12605477Y-10268095D01*
X12605477Y-10268095D02*
X12595953Y-10249048D01*
X12595953Y-10249048D02*
X12576905Y-10220476D01*
X12576905Y-10220476D02*
X12567381Y-10210952D01*
D17*
X7525000Y-10566000D02*
X7615000Y-10656000D01*
X7615000Y-10566000D02*
X7525000Y-10656000D01*
X7570000Y-10566000D02*
X7570000Y-10656000D01*
X7525000Y-10611000D02*
X7615000Y-10611000D01*
D11*
X7900714Y-10503524D02*
X7919762Y-10503524D01*
X7919762Y-10503524D02*
X7938809Y-10513048D01*
X7938809Y-10513048D02*
X7948333Y-10522571D01*
X7948333Y-10522571D02*
X7957857Y-10541619D01*
X7957857Y-10541619D02*
X7967381Y-10579714D01*
X7967381Y-10579714D02*
X7967381Y-10627333D01*
X7967381Y-10627333D02*
X7957857Y-10665429D01*
X7957857Y-10665429D02*
X7948333Y-10684476D01*
X7948333Y-10684476D02*
X7938809Y-10694000D01*
X7938809Y-10694000D02*
X7919762Y-10703524D01*
X7919762Y-10703524D02*
X7900714Y-10703524D01*
X7900714Y-10703524D02*
X7881667Y-10694000D01*
X7881667Y-10694000D02*
X7872143Y-10684476D01*
X7872143Y-10684476D02*
X7862619Y-10665429D01*
X7862619Y-10665429D02*
X7853095Y-10627333D01*
X7853095Y-10627333D02*
X7853095Y-10579714D01*
X7853095Y-10579714D02*
X7862619Y-10541619D01*
X7862619Y-10541619D02*
X7872143Y-10522571D01*
X7872143Y-10522571D02*
X7881667Y-10513048D01*
X7881667Y-10513048D02*
X7900714Y-10503524D01*
X8053095Y-10684476D02*
X8062619Y-10694000D01*
X8062619Y-10694000D02*
X8053095Y-10703524D01*
X8053095Y-10703524D02*
X8043571Y-10694000D01*
X8043571Y-10694000D02*
X8053095Y-10684476D01*
X8053095Y-10684476D02*
X8053095Y-10703524D01*
X8157857Y-10703524D02*
X8195952Y-10703524D01*
X8195952Y-10703524D02*
X8215000Y-10694000D01*
X8215000Y-10694000D02*
X8224524Y-10684476D01*
X8224524Y-10684476D02*
X8243571Y-10655905D01*
X8243571Y-10655905D02*
X8253095Y-10617810D01*
X8253095Y-10617810D02*
X8253095Y-10541619D01*
X8253095Y-10541619D02*
X8243571Y-10522571D01*
X8243571Y-10522571D02*
X8234048Y-10513048D01*
X8234048Y-10513048D02*
X8215000Y-10503524D01*
X8215000Y-10503524D02*
X8176905Y-10503524D01*
X8176905Y-10503524D02*
X8157857Y-10513048D01*
X8157857Y-10513048D02*
X8148333Y-10522571D01*
X8148333Y-10522571D02*
X8138809Y-10541619D01*
X8138809Y-10541619D02*
X8138809Y-10589238D01*
X8138809Y-10589238D02*
X8148333Y-10608286D01*
X8148333Y-10608286D02*
X8157857Y-10617810D01*
X8157857Y-10617810D02*
X8176905Y-10627333D01*
X8176905Y-10627333D02*
X8215000Y-10627333D01*
X8215000Y-10627333D02*
X8234048Y-10617810D01*
X8234048Y-10617810D02*
X8243571Y-10608286D01*
X8243571Y-10608286D02*
X8253095Y-10589238D01*
X8376905Y-10503524D02*
X8395952Y-10503524D01*
X8395952Y-10503524D02*
X8415000Y-10513048D01*
X8415000Y-10513048D02*
X8424524Y-10522571D01*
X8424524Y-10522571D02*
X8434048Y-10541619D01*
X8434048Y-10541619D02*
X8443571Y-10579714D01*
X8443571Y-10579714D02*
X8443571Y-10627333D01*
X8443571Y-10627333D02*
X8434048Y-10665429D01*
X8434048Y-10665429D02*
X8424524Y-10684476D01*
X8424524Y-10684476D02*
X8415000Y-10694000D01*
X8415000Y-10694000D02*
X8395952Y-10703524D01*
X8395952Y-10703524D02*
X8376905Y-10703524D01*
X8376905Y-10703524D02*
X8357857Y-10694000D01*
X8357857Y-10694000D02*
X8348333Y-10684476D01*
X8348333Y-10684476D02*
X8338809Y-10665429D01*
X8338809Y-10665429D02*
X8329286Y-10627333D01*
X8329286Y-10627333D02*
X8329286Y-10579714D01*
X8329286Y-10579714D02*
X8338809Y-10541619D01*
X8338809Y-10541619D02*
X8348333Y-10522571D01*
X8348333Y-10522571D02*
X8357857Y-10513048D01*
X8357857Y-10513048D02*
X8376905Y-10503524D01*
X8567381Y-10503524D02*
X8586429Y-10503524D01*
X8586429Y-10503524D02*
X8605476Y-10513048D01*
X8605476Y-10513048D02*
X8615000Y-10522571D01*
X8615000Y-10522571D02*
X8624524Y-10541619D01*
X8624524Y-10541619D02*
X8634048Y-10579714D01*
X8634048Y-10579714D02*
X8634048Y-10627333D01*
X8634048Y-10627333D02*
X8624524Y-10665429D01*
X8624524Y-10665429D02*
X8615000Y-10684476D01*
X8615000Y-10684476D02*
X8605476Y-10694000D01*
X8605476Y-10694000D02*
X8586429Y-10703524D01*
X8586429Y-10703524D02*
X8567381Y-10703524D01*
X8567381Y-10703524D02*
X8548333Y-10694000D01*
X8548333Y-10694000D02*
X8538810Y-10684476D01*
X8538810Y-10684476D02*
X8529286Y-10665429D01*
X8529286Y-10665429D02*
X8519762Y-10627333D01*
X8519762Y-10627333D02*
X8519762Y-10579714D01*
X8519762Y-10579714D02*
X8529286Y-10541619D01*
X8529286Y-10541619D02*
X8538810Y-10522571D01*
X8538810Y-10522571D02*
X8548333Y-10513048D01*
X8548333Y-10513048D02*
X8567381Y-10503524D01*
X8719762Y-10703524D02*
X8719762Y-10570190D01*
X8719762Y-10589238D02*
X8729286Y-10579714D01*
X8729286Y-10579714D02*
X8748333Y-10570190D01*
X8748333Y-10570190D02*
X8776905Y-10570190D01*
X8776905Y-10570190D02*
X8795952Y-10579714D01*
X8795952Y-10579714D02*
X8805476Y-10598762D01*
X8805476Y-10598762D02*
X8805476Y-10703524D01*
X8805476Y-10598762D02*
X8815000Y-10579714D01*
X8815000Y-10579714D02*
X8834048Y-10570190D01*
X8834048Y-10570190D02*
X8862619Y-10570190D01*
X8862619Y-10570190D02*
X8881667Y-10579714D01*
X8881667Y-10579714D02*
X8891191Y-10598762D01*
X8891191Y-10598762D02*
X8891191Y-10703524D01*
X8986429Y-10703524D02*
X8986429Y-10570190D01*
X8986429Y-10589238D02*
X8995952Y-10579714D01*
X8995952Y-10579714D02*
X9015000Y-10570190D01*
X9015000Y-10570190D02*
X9043572Y-10570190D01*
X9043572Y-10570190D02*
X9062619Y-10579714D01*
X9062619Y-10579714D02*
X9072143Y-10598762D01*
X9072143Y-10598762D02*
X9072143Y-10703524D01*
X9072143Y-10598762D02*
X9081667Y-10579714D01*
X9081667Y-10579714D02*
X9100714Y-10570190D01*
X9100714Y-10570190D02*
X9129286Y-10570190D01*
X9129286Y-10570190D02*
X9148333Y-10579714D01*
X9148333Y-10579714D02*
X9157857Y-10598762D01*
X9157857Y-10598762D02*
X9157857Y-10703524D01*
X9548333Y-10494000D02*
X9376905Y-10751143D01*
X9805476Y-10503524D02*
X9824524Y-10503524D01*
X9824524Y-10503524D02*
X9843572Y-10513048D01*
X9843572Y-10513048D02*
X9853095Y-10522571D01*
X9853095Y-10522571D02*
X9862619Y-10541619D01*
X9862619Y-10541619D02*
X9872143Y-10579714D01*
X9872143Y-10579714D02*
X9872143Y-10627333D01*
X9872143Y-10627333D02*
X9862619Y-10665429D01*
X9862619Y-10665429D02*
X9853095Y-10684476D01*
X9853095Y-10684476D02*
X9843572Y-10694000D01*
X9843572Y-10694000D02*
X9824524Y-10703524D01*
X9824524Y-10703524D02*
X9805476Y-10703524D01*
X9805476Y-10703524D02*
X9786429Y-10694000D01*
X9786429Y-10694000D02*
X9776905Y-10684476D01*
X9776905Y-10684476D02*
X9767381Y-10665429D01*
X9767381Y-10665429D02*
X9757857Y-10627333D01*
X9757857Y-10627333D02*
X9757857Y-10579714D01*
X9757857Y-10579714D02*
X9767381Y-10541619D01*
X9767381Y-10541619D02*
X9776905Y-10522571D01*
X9776905Y-10522571D02*
X9786429Y-10513048D01*
X9786429Y-10513048D02*
X9805476Y-10503524D01*
X9957857Y-10684476D02*
X9967381Y-10694000D01*
X9967381Y-10694000D02*
X9957857Y-10703524D01*
X9957857Y-10703524D02*
X9948334Y-10694000D01*
X9948334Y-10694000D02*
X9957857Y-10684476D01*
X9957857Y-10684476D02*
X9957857Y-10703524D01*
X10091191Y-10503524D02*
X10110238Y-10503524D01*
X10110238Y-10503524D02*
X10129286Y-10513048D01*
X10129286Y-10513048D02*
X10138810Y-10522571D01*
X10138810Y-10522571D02*
X10148334Y-10541619D01*
X10148334Y-10541619D02*
X10157857Y-10579714D01*
X10157857Y-10579714D02*
X10157857Y-10627333D01*
X10157857Y-10627333D02*
X10148334Y-10665429D01*
X10148334Y-10665429D02*
X10138810Y-10684476D01*
X10138810Y-10684476D02*
X10129286Y-10694000D01*
X10129286Y-10694000D02*
X10110238Y-10703524D01*
X10110238Y-10703524D02*
X10091191Y-10703524D01*
X10091191Y-10703524D02*
X10072143Y-10694000D01*
X10072143Y-10694000D02*
X10062619Y-10684476D01*
X10062619Y-10684476D02*
X10053095Y-10665429D01*
X10053095Y-10665429D02*
X10043572Y-10627333D01*
X10043572Y-10627333D02*
X10043572Y-10579714D01*
X10043572Y-10579714D02*
X10053095Y-10541619D01*
X10053095Y-10541619D02*
X10062619Y-10522571D01*
X10062619Y-10522571D02*
X10072143Y-10513048D01*
X10072143Y-10513048D02*
X10091191Y-10503524D01*
X10224524Y-10503524D02*
X10348334Y-10503524D01*
X10348334Y-10503524D02*
X10281667Y-10579714D01*
X10281667Y-10579714D02*
X10310238Y-10579714D01*
X10310238Y-10579714D02*
X10329286Y-10589238D01*
X10329286Y-10589238D02*
X10338810Y-10598762D01*
X10338810Y-10598762D02*
X10348334Y-10617810D01*
X10348334Y-10617810D02*
X10348334Y-10665429D01*
X10348334Y-10665429D02*
X10338810Y-10684476D01*
X10338810Y-10684476D02*
X10329286Y-10694000D01*
X10329286Y-10694000D02*
X10310238Y-10703524D01*
X10310238Y-10703524D02*
X10253095Y-10703524D01*
X10253095Y-10703524D02*
X10234048Y-10694000D01*
X10234048Y-10694000D02*
X10224524Y-10684476D01*
X10529286Y-10503524D02*
X10434048Y-10503524D01*
X10434048Y-10503524D02*
X10424524Y-10598762D01*
X10424524Y-10598762D02*
X10434048Y-10589238D01*
X10434048Y-10589238D02*
X10453095Y-10579714D01*
X10453095Y-10579714D02*
X10500715Y-10579714D01*
X10500715Y-10579714D02*
X10519762Y-10589238D01*
X10519762Y-10589238D02*
X10529286Y-10598762D01*
X10529286Y-10598762D02*
X10538810Y-10617810D01*
X10538810Y-10617810D02*
X10538810Y-10665429D01*
X10538810Y-10665429D02*
X10529286Y-10684476D01*
X10529286Y-10684476D02*
X10519762Y-10694000D01*
X10519762Y-10694000D02*
X10500715Y-10703524D01*
X10500715Y-10703524D02*
X10453095Y-10703524D01*
X10453095Y-10703524D02*
X10434048Y-10694000D01*
X10434048Y-10694000D02*
X10424524Y-10684476D01*
X10710238Y-10570190D02*
X10710238Y-10703524D01*
X10662619Y-10494000D02*
X10615000Y-10636857D01*
X10615000Y-10636857D02*
X10738810Y-10636857D01*
X10805476Y-10503524D02*
X10805476Y-10541619D01*
X10881667Y-10503524D02*
X10881667Y-10541619D01*
X11176905Y-10779714D02*
X11167381Y-10770190D01*
X11167381Y-10770190D02*
X11148334Y-10741619D01*
X11148334Y-10741619D02*
X11138810Y-10722571D01*
X11138810Y-10722571D02*
X11129286Y-10694000D01*
X11129286Y-10694000D02*
X11119762Y-10646381D01*
X11119762Y-10646381D02*
X11119762Y-10608286D01*
X11119762Y-10608286D02*
X11129286Y-10560667D01*
X11129286Y-10560667D02*
X11138810Y-10532095D01*
X11138810Y-10532095D02*
X11148334Y-10513048D01*
X11148334Y-10513048D02*
X11167381Y-10484476D01*
X11167381Y-10484476D02*
X11176905Y-10474952D01*
X11281667Y-10589238D02*
X11262619Y-10579714D01*
X11262619Y-10579714D02*
X11253095Y-10570190D01*
X11253095Y-10570190D02*
X11243572Y-10551143D01*
X11243572Y-10551143D02*
X11243572Y-10541619D01*
X11243572Y-10541619D02*
X11253095Y-10522571D01*
X11253095Y-10522571D02*
X11262619Y-10513048D01*
X11262619Y-10513048D02*
X11281667Y-10503524D01*
X11281667Y-10503524D02*
X11319762Y-10503524D01*
X11319762Y-10503524D02*
X11338810Y-10513048D01*
X11338810Y-10513048D02*
X11348334Y-10522571D01*
X11348334Y-10522571D02*
X11357857Y-10541619D01*
X11357857Y-10541619D02*
X11357857Y-10551143D01*
X11357857Y-10551143D02*
X11348334Y-10570190D01*
X11348334Y-10570190D02*
X11338810Y-10579714D01*
X11338810Y-10579714D02*
X11319762Y-10589238D01*
X11319762Y-10589238D02*
X11281667Y-10589238D01*
X11281667Y-10589238D02*
X11262619Y-10598762D01*
X11262619Y-10598762D02*
X11253095Y-10608286D01*
X11253095Y-10608286D02*
X11243572Y-10627333D01*
X11243572Y-10627333D02*
X11243572Y-10665429D01*
X11243572Y-10665429D02*
X11253095Y-10684476D01*
X11253095Y-10684476D02*
X11262619Y-10694000D01*
X11262619Y-10694000D02*
X11281667Y-10703524D01*
X11281667Y-10703524D02*
X11319762Y-10703524D01*
X11319762Y-10703524D02*
X11338810Y-10694000D01*
X11338810Y-10694000D02*
X11348334Y-10684476D01*
X11348334Y-10684476D02*
X11357857Y-10665429D01*
X11357857Y-10665429D02*
X11357857Y-10627333D01*
X11357857Y-10627333D02*
X11348334Y-10608286D01*
X11348334Y-10608286D02*
X11338810Y-10598762D01*
X11338810Y-10598762D02*
X11319762Y-10589238D01*
X11595953Y-10703524D02*
X11595953Y-10503524D01*
X11681667Y-10703524D02*
X11681667Y-10598762D01*
X11681667Y-10598762D02*
X11672143Y-10579714D01*
X11672143Y-10579714D02*
X11653096Y-10570190D01*
X11653096Y-10570190D02*
X11624524Y-10570190D01*
X11624524Y-10570190D02*
X11605476Y-10579714D01*
X11605476Y-10579714D02*
X11595953Y-10589238D01*
X11805476Y-10703524D02*
X11786429Y-10694000D01*
X11786429Y-10694000D02*
X11776905Y-10684476D01*
X11776905Y-10684476D02*
X11767381Y-10665429D01*
X11767381Y-10665429D02*
X11767381Y-10608286D01*
X11767381Y-10608286D02*
X11776905Y-10589238D01*
X11776905Y-10589238D02*
X11786429Y-10579714D01*
X11786429Y-10579714D02*
X11805476Y-10570190D01*
X11805476Y-10570190D02*
X11834048Y-10570190D01*
X11834048Y-10570190D02*
X11853096Y-10579714D01*
X11853096Y-10579714D02*
X11862619Y-10589238D01*
X11862619Y-10589238D02*
X11872143Y-10608286D01*
X11872143Y-10608286D02*
X11872143Y-10665429D01*
X11872143Y-10665429D02*
X11862619Y-10684476D01*
X11862619Y-10684476D02*
X11853096Y-10694000D01*
X11853096Y-10694000D02*
X11834048Y-10703524D01*
X11834048Y-10703524D02*
X11805476Y-10703524D01*
X11986429Y-10703524D02*
X11967381Y-10694000D01*
X11967381Y-10694000D02*
X11957857Y-10674952D01*
X11957857Y-10674952D02*
X11957857Y-10503524D01*
X12138810Y-10694000D02*
X12119762Y-10703524D01*
X12119762Y-10703524D02*
X12081667Y-10703524D01*
X12081667Y-10703524D02*
X12062619Y-10694000D01*
X12062619Y-10694000D02*
X12053096Y-10674952D01*
X12053096Y-10674952D02*
X12053096Y-10598762D01*
X12053096Y-10598762D02*
X12062619Y-10579714D01*
X12062619Y-10579714D02*
X12081667Y-10570190D01*
X12081667Y-10570190D02*
X12119762Y-10570190D01*
X12119762Y-10570190D02*
X12138810Y-10579714D01*
X12138810Y-10579714D02*
X12148334Y-10598762D01*
X12148334Y-10598762D02*
X12148334Y-10617810D01*
X12148334Y-10617810D02*
X12053096Y-10636857D01*
X12224524Y-10694000D02*
X12243572Y-10703524D01*
X12243572Y-10703524D02*
X12281667Y-10703524D01*
X12281667Y-10703524D02*
X12300715Y-10694000D01*
X12300715Y-10694000D02*
X12310238Y-10674952D01*
X12310238Y-10674952D02*
X12310238Y-10665429D01*
X12310238Y-10665429D02*
X12300715Y-10646381D01*
X12300715Y-10646381D02*
X12281667Y-10636857D01*
X12281667Y-10636857D02*
X12253096Y-10636857D01*
X12253096Y-10636857D02*
X12234048Y-10627333D01*
X12234048Y-10627333D02*
X12224524Y-10608286D01*
X12224524Y-10608286D02*
X12224524Y-10598762D01*
X12224524Y-10598762D02*
X12234048Y-10579714D01*
X12234048Y-10579714D02*
X12253096Y-10570190D01*
X12253096Y-10570190D02*
X12281667Y-10570190D01*
X12281667Y-10570190D02*
X12300715Y-10579714D01*
X12376905Y-10779714D02*
X12386429Y-10770190D01*
X12386429Y-10770190D02*
X12405477Y-10741619D01*
X12405477Y-10741619D02*
X12415000Y-10722571D01*
X12415000Y-10722571D02*
X12424524Y-10694000D01*
X12424524Y-10694000D02*
X12434048Y-10646381D01*
X12434048Y-10646381D02*
X12434048Y-10608286D01*
X12434048Y-10608286D02*
X12424524Y-10560667D01*
X12424524Y-10560667D02*
X12415000Y-10532095D01*
X12415000Y-10532095D02*
X12405477Y-10513048D01*
X12405477Y-10513048D02*
X12386429Y-10484476D01*
X12386429Y-10484476D02*
X12376905Y-10474952D01*
D18*
X7523000Y-10829000D02*
X7615000Y-10921000D01*
X7615000Y-10829000D02*
X7523000Y-10921000D01*
X7601527Y-10907527D02*
X7601527Y-10842473D01*
X7536473Y-10842473D01*
X7536473Y-10907527D01*
X7601527Y-10907527D01*
D11*
X7900714Y-10767524D02*
X7919762Y-10767524D01*
X7919762Y-10767524D02*
X7938809Y-10777048D01*
X7938809Y-10777048D02*
X7948333Y-10786571D01*
X7948333Y-10786571D02*
X7957857Y-10805619D01*
X7957857Y-10805619D02*
X7967381Y-10843714D01*
X7967381Y-10843714D02*
X7967381Y-10891333D01*
X7967381Y-10891333D02*
X7957857Y-10929429D01*
X7957857Y-10929429D02*
X7948333Y-10948476D01*
X7948333Y-10948476D02*
X7938809Y-10958000D01*
X7938809Y-10958000D02*
X7919762Y-10967524D01*
X7919762Y-10967524D02*
X7900714Y-10967524D01*
X7900714Y-10967524D02*
X7881667Y-10958000D01*
X7881667Y-10958000D02*
X7872143Y-10948476D01*
X7872143Y-10948476D02*
X7862619Y-10929429D01*
X7862619Y-10929429D02*
X7853095Y-10891333D01*
X7853095Y-10891333D02*
X7853095Y-10843714D01*
X7853095Y-10843714D02*
X7862619Y-10805619D01*
X7862619Y-10805619D02*
X7872143Y-10786571D01*
X7872143Y-10786571D02*
X7881667Y-10777048D01*
X7881667Y-10777048D02*
X7900714Y-10767524D01*
X8053095Y-10948476D02*
X8062619Y-10958000D01*
X8062619Y-10958000D02*
X8053095Y-10967524D01*
X8053095Y-10967524D02*
X8043571Y-10958000D01*
X8043571Y-10958000D02*
X8053095Y-10948476D01*
X8053095Y-10948476D02*
X8053095Y-10967524D01*
X8157857Y-10967524D02*
X8195952Y-10967524D01*
X8195952Y-10967524D02*
X8215000Y-10958000D01*
X8215000Y-10958000D02*
X8224524Y-10948476D01*
X8224524Y-10948476D02*
X8243571Y-10919905D01*
X8243571Y-10919905D02*
X8253095Y-10881810D01*
X8253095Y-10881810D02*
X8253095Y-10805619D01*
X8253095Y-10805619D02*
X8243571Y-10786571D01*
X8243571Y-10786571D02*
X8234048Y-10777048D01*
X8234048Y-10777048D02*
X8215000Y-10767524D01*
X8215000Y-10767524D02*
X8176905Y-10767524D01*
X8176905Y-10767524D02*
X8157857Y-10777048D01*
X8157857Y-10777048D02*
X8148333Y-10786571D01*
X8148333Y-10786571D02*
X8138809Y-10805619D01*
X8138809Y-10805619D02*
X8138809Y-10853238D01*
X8138809Y-10853238D02*
X8148333Y-10872286D01*
X8148333Y-10872286D02*
X8157857Y-10881810D01*
X8157857Y-10881810D02*
X8176905Y-10891333D01*
X8176905Y-10891333D02*
X8215000Y-10891333D01*
X8215000Y-10891333D02*
X8234048Y-10881810D01*
X8234048Y-10881810D02*
X8243571Y-10872286D01*
X8243571Y-10872286D02*
X8253095Y-10853238D01*
X8329286Y-10786571D02*
X8338809Y-10777048D01*
X8338809Y-10777048D02*
X8357857Y-10767524D01*
X8357857Y-10767524D02*
X8405476Y-10767524D01*
X8405476Y-10767524D02*
X8424524Y-10777048D01*
X8424524Y-10777048D02*
X8434048Y-10786571D01*
X8434048Y-10786571D02*
X8443571Y-10805619D01*
X8443571Y-10805619D02*
X8443571Y-10824667D01*
X8443571Y-10824667D02*
X8434048Y-10853238D01*
X8434048Y-10853238D02*
X8319762Y-10967524D01*
X8319762Y-10967524D02*
X8443571Y-10967524D01*
X8567381Y-10767524D02*
X8586429Y-10767524D01*
X8586429Y-10767524D02*
X8605476Y-10777048D01*
X8605476Y-10777048D02*
X8615000Y-10786571D01*
X8615000Y-10786571D02*
X8624524Y-10805619D01*
X8624524Y-10805619D02*
X8634048Y-10843714D01*
X8634048Y-10843714D02*
X8634048Y-10891333D01*
X8634048Y-10891333D02*
X8624524Y-10929429D01*
X8624524Y-10929429D02*
X8615000Y-10948476D01*
X8615000Y-10948476D02*
X8605476Y-10958000D01*
X8605476Y-10958000D02*
X8586429Y-10967524D01*
X8586429Y-10967524D02*
X8567381Y-10967524D01*
X8567381Y-10967524D02*
X8548333Y-10958000D01*
X8548333Y-10958000D02*
X8538810Y-10948476D01*
X8538810Y-10948476D02*
X8529286Y-10929429D01*
X8529286Y-10929429D02*
X8519762Y-10891333D01*
X8519762Y-10891333D02*
X8519762Y-10843714D01*
X8519762Y-10843714D02*
X8529286Y-10805619D01*
X8529286Y-10805619D02*
X8538810Y-10786571D01*
X8538810Y-10786571D02*
X8548333Y-10777048D01*
X8548333Y-10777048D02*
X8567381Y-10767524D01*
X8719762Y-10967524D02*
X8719762Y-10834190D01*
X8719762Y-10853238D02*
X8729286Y-10843714D01*
X8729286Y-10843714D02*
X8748333Y-10834190D01*
X8748333Y-10834190D02*
X8776905Y-10834190D01*
X8776905Y-10834190D02*
X8795952Y-10843714D01*
X8795952Y-10843714D02*
X8805476Y-10862762D01*
X8805476Y-10862762D02*
X8805476Y-10967524D01*
X8805476Y-10862762D02*
X8815000Y-10843714D01*
X8815000Y-10843714D02*
X8834048Y-10834190D01*
X8834048Y-10834190D02*
X8862619Y-10834190D01*
X8862619Y-10834190D02*
X8881667Y-10843714D01*
X8881667Y-10843714D02*
X8891191Y-10862762D01*
X8891191Y-10862762D02*
X8891191Y-10967524D01*
X8986429Y-10967524D02*
X8986429Y-10834190D01*
X8986429Y-10853238D02*
X8995952Y-10843714D01*
X8995952Y-10843714D02*
X9015000Y-10834190D01*
X9015000Y-10834190D02*
X9043572Y-10834190D01*
X9043572Y-10834190D02*
X9062619Y-10843714D01*
X9062619Y-10843714D02*
X9072143Y-10862762D01*
X9072143Y-10862762D02*
X9072143Y-10967524D01*
X9072143Y-10862762D02*
X9081667Y-10843714D01*
X9081667Y-10843714D02*
X9100714Y-10834190D01*
X9100714Y-10834190D02*
X9129286Y-10834190D01*
X9129286Y-10834190D02*
X9148333Y-10843714D01*
X9148333Y-10843714D02*
X9157857Y-10862762D01*
X9157857Y-10862762D02*
X9157857Y-10967524D01*
X9548333Y-10758000D02*
X9376905Y-11015143D01*
X9805476Y-10767524D02*
X9824524Y-10767524D01*
X9824524Y-10767524D02*
X9843572Y-10777048D01*
X9843572Y-10777048D02*
X9853095Y-10786571D01*
X9853095Y-10786571D02*
X9862619Y-10805619D01*
X9862619Y-10805619D02*
X9872143Y-10843714D01*
X9872143Y-10843714D02*
X9872143Y-10891333D01*
X9872143Y-10891333D02*
X9862619Y-10929429D01*
X9862619Y-10929429D02*
X9853095Y-10948476D01*
X9853095Y-10948476D02*
X9843572Y-10958000D01*
X9843572Y-10958000D02*
X9824524Y-10967524D01*
X9824524Y-10967524D02*
X9805476Y-10967524D01*
X9805476Y-10967524D02*
X9786429Y-10958000D01*
X9786429Y-10958000D02*
X9776905Y-10948476D01*
X9776905Y-10948476D02*
X9767381Y-10929429D01*
X9767381Y-10929429D02*
X9757857Y-10891333D01*
X9757857Y-10891333D02*
X9757857Y-10843714D01*
X9757857Y-10843714D02*
X9767381Y-10805619D01*
X9767381Y-10805619D02*
X9776905Y-10786571D01*
X9776905Y-10786571D02*
X9786429Y-10777048D01*
X9786429Y-10777048D02*
X9805476Y-10767524D01*
X9957857Y-10948476D02*
X9967381Y-10958000D01*
X9967381Y-10958000D02*
X9957857Y-10967524D01*
X9957857Y-10967524D02*
X9948334Y-10958000D01*
X9948334Y-10958000D02*
X9957857Y-10948476D01*
X9957857Y-10948476D02*
X9957857Y-10967524D01*
X10091191Y-10767524D02*
X10110238Y-10767524D01*
X10110238Y-10767524D02*
X10129286Y-10777048D01*
X10129286Y-10777048D02*
X10138810Y-10786571D01*
X10138810Y-10786571D02*
X10148334Y-10805619D01*
X10148334Y-10805619D02*
X10157857Y-10843714D01*
X10157857Y-10843714D02*
X10157857Y-10891333D01*
X10157857Y-10891333D02*
X10148334Y-10929429D01*
X10148334Y-10929429D02*
X10138810Y-10948476D01*
X10138810Y-10948476D02*
X10129286Y-10958000D01*
X10129286Y-10958000D02*
X10110238Y-10967524D01*
X10110238Y-10967524D02*
X10091191Y-10967524D01*
X10091191Y-10967524D02*
X10072143Y-10958000D01*
X10072143Y-10958000D02*
X10062619Y-10948476D01*
X10062619Y-10948476D02*
X10053095Y-10929429D01*
X10053095Y-10929429D02*
X10043572Y-10891333D01*
X10043572Y-10891333D02*
X10043572Y-10843714D01*
X10043572Y-10843714D02*
X10053095Y-10805619D01*
X10053095Y-10805619D02*
X10062619Y-10786571D01*
X10062619Y-10786571D02*
X10072143Y-10777048D01*
X10072143Y-10777048D02*
X10091191Y-10767524D01*
X10224524Y-10767524D02*
X10348334Y-10767524D01*
X10348334Y-10767524D02*
X10281667Y-10843714D01*
X10281667Y-10843714D02*
X10310238Y-10843714D01*
X10310238Y-10843714D02*
X10329286Y-10853238D01*
X10329286Y-10853238D02*
X10338810Y-10862762D01*
X10338810Y-10862762D02*
X10348334Y-10881810D01*
X10348334Y-10881810D02*
X10348334Y-10929429D01*
X10348334Y-10929429D02*
X10338810Y-10948476D01*
X10338810Y-10948476D02*
X10329286Y-10958000D01*
X10329286Y-10958000D02*
X10310238Y-10967524D01*
X10310238Y-10967524D02*
X10253095Y-10967524D01*
X10253095Y-10967524D02*
X10234048Y-10958000D01*
X10234048Y-10958000D02*
X10224524Y-10948476D01*
X10519762Y-10767524D02*
X10481667Y-10767524D01*
X10481667Y-10767524D02*
X10462619Y-10777048D01*
X10462619Y-10777048D02*
X10453095Y-10786571D01*
X10453095Y-10786571D02*
X10434048Y-10815143D01*
X10434048Y-10815143D02*
X10424524Y-10853238D01*
X10424524Y-10853238D02*
X10424524Y-10929429D01*
X10424524Y-10929429D02*
X10434048Y-10948476D01*
X10434048Y-10948476D02*
X10443572Y-10958000D01*
X10443572Y-10958000D02*
X10462619Y-10967524D01*
X10462619Y-10967524D02*
X10500715Y-10967524D01*
X10500715Y-10967524D02*
X10519762Y-10958000D01*
X10519762Y-10958000D02*
X10529286Y-10948476D01*
X10529286Y-10948476D02*
X10538810Y-10929429D01*
X10538810Y-10929429D02*
X10538810Y-10881810D01*
X10538810Y-10881810D02*
X10529286Y-10862762D01*
X10529286Y-10862762D02*
X10519762Y-10853238D01*
X10519762Y-10853238D02*
X10500715Y-10843714D01*
X10500715Y-10843714D02*
X10462619Y-10843714D01*
X10462619Y-10843714D02*
X10443572Y-10853238D01*
X10443572Y-10853238D02*
X10434048Y-10862762D01*
X10434048Y-10862762D02*
X10424524Y-10881810D01*
X10615000Y-10786571D02*
X10624524Y-10777048D01*
X10624524Y-10777048D02*
X10643572Y-10767524D01*
X10643572Y-10767524D02*
X10691191Y-10767524D01*
X10691191Y-10767524D02*
X10710238Y-10777048D01*
X10710238Y-10777048D02*
X10719762Y-10786571D01*
X10719762Y-10786571D02*
X10729286Y-10805619D01*
X10729286Y-10805619D02*
X10729286Y-10824667D01*
X10729286Y-10824667D02*
X10719762Y-10853238D01*
X10719762Y-10853238D02*
X10605476Y-10967524D01*
X10605476Y-10967524D02*
X10729286Y-10967524D01*
X10805476Y-10767524D02*
X10805476Y-10805619D01*
X10881667Y-10767524D02*
X10881667Y-10805619D01*
X11176905Y-11043714D02*
X11167381Y-11034190D01*
X11167381Y-11034190D02*
X11148334Y-11005619D01*
X11148334Y-11005619D02*
X11138810Y-10986571D01*
X11138810Y-10986571D02*
X11129286Y-10958000D01*
X11129286Y-10958000D02*
X11119762Y-10910381D01*
X11119762Y-10910381D02*
X11119762Y-10872286D01*
X11119762Y-10872286D02*
X11129286Y-10824667D01*
X11129286Y-10824667D02*
X11138810Y-10796095D01*
X11138810Y-10796095D02*
X11148334Y-10777048D01*
X11148334Y-10777048D02*
X11167381Y-10748476D01*
X11167381Y-10748476D02*
X11176905Y-10738952D01*
X11338810Y-10834190D02*
X11338810Y-10967524D01*
X11291191Y-10758000D02*
X11243572Y-10900857D01*
X11243572Y-10900857D02*
X11367381Y-10900857D01*
X11595953Y-10967524D02*
X11595953Y-10767524D01*
X11681667Y-10967524D02*
X11681667Y-10862762D01*
X11681667Y-10862762D02*
X11672143Y-10843714D01*
X11672143Y-10843714D02*
X11653096Y-10834190D01*
X11653096Y-10834190D02*
X11624524Y-10834190D01*
X11624524Y-10834190D02*
X11605476Y-10843714D01*
X11605476Y-10843714D02*
X11595953Y-10853238D01*
X11805476Y-10967524D02*
X11786429Y-10958000D01*
X11786429Y-10958000D02*
X11776905Y-10948476D01*
X11776905Y-10948476D02*
X11767381Y-10929429D01*
X11767381Y-10929429D02*
X11767381Y-10872286D01*
X11767381Y-10872286D02*
X11776905Y-10853238D01*
X11776905Y-10853238D02*
X11786429Y-10843714D01*
X11786429Y-10843714D02*
X11805476Y-10834190D01*
X11805476Y-10834190D02*
X11834048Y-10834190D01*
X11834048Y-10834190D02*
X11853096Y-10843714D01*
X11853096Y-10843714D02*
X11862619Y-10853238D01*
X11862619Y-10853238D02*
X11872143Y-10872286D01*
X11872143Y-10872286D02*
X11872143Y-10929429D01*
X11872143Y-10929429D02*
X11862619Y-10948476D01*
X11862619Y-10948476D02*
X11853096Y-10958000D01*
X11853096Y-10958000D02*
X11834048Y-10967524D01*
X11834048Y-10967524D02*
X11805476Y-10967524D01*
X11986429Y-10967524D02*
X11967381Y-10958000D01*
X11967381Y-10958000D02*
X11957857Y-10938952D01*
X11957857Y-10938952D02*
X11957857Y-10767524D01*
X12138810Y-10958000D02*
X12119762Y-10967524D01*
X12119762Y-10967524D02*
X12081667Y-10967524D01*
X12081667Y-10967524D02*
X12062619Y-10958000D01*
X12062619Y-10958000D02*
X12053096Y-10938952D01*
X12053096Y-10938952D02*
X12053096Y-10862762D01*
X12053096Y-10862762D02*
X12062619Y-10843714D01*
X12062619Y-10843714D02*
X12081667Y-10834190D01*
X12081667Y-10834190D02*
X12119762Y-10834190D01*
X12119762Y-10834190D02*
X12138810Y-10843714D01*
X12138810Y-10843714D02*
X12148334Y-10862762D01*
X12148334Y-10862762D02*
X12148334Y-10881810D01*
X12148334Y-10881810D02*
X12053096Y-10900857D01*
X12224524Y-10958000D02*
X12243572Y-10967524D01*
X12243572Y-10967524D02*
X12281667Y-10967524D01*
X12281667Y-10967524D02*
X12300715Y-10958000D01*
X12300715Y-10958000D02*
X12310238Y-10938952D01*
X12310238Y-10938952D02*
X12310238Y-10929429D01*
X12310238Y-10929429D02*
X12300715Y-10910381D01*
X12300715Y-10910381D02*
X12281667Y-10900857D01*
X12281667Y-10900857D02*
X12253096Y-10900857D01*
X12253096Y-10900857D02*
X12234048Y-10891333D01*
X12234048Y-10891333D02*
X12224524Y-10872286D01*
X12224524Y-10872286D02*
X12224524Y-10862762D01*
X12224524Y-10862762D02*
X12234048Y-10843714D01*
X12234048Y-10843714D02*
X12253096Y-10834190D01*
X12253096Y-10834190D02*
X12281667Y-10834190D01*
X12281667Y-10834190D02*
X12300715Y-10843714D01*
X12376905Y-11043714D02*
X12386429Y-11034190D01*
X12386429Y-11034190D02*
X12405477Y-11005619D01*
X12405477Y-11005619D02*
X12415000Y-10986571D01*
X12415000Y-10986571D02*
X12424524Y-10958000D01*
X12424524Y-10958000D02*
X12434048Y-10910381D01*
X12434048Y-10910381D02*
X12434048Y-10872286D01*
X12434048Y-10872286D02*
X12424524Y-10824667D01*
X12424524Y-10824667D02*
X12415000Y-10796095D01*
X12415000Y-10796095D02*
X12405477Y-10777048D01*
X12405477Y-10777048D02*
X12386429Y-10748476D01*
X12386429Y-10748476D02*
X12376905Y-10738952D01*
D10*
X7515000Y-11089000D02*
X7615000Y-11189000D01*
X7615000Y-11089000D02*
X7515000Y-11189000D01*
X7565000Y-11189000D02*
X7615000Y-11139000D01*
X7565000Y-11089000D01*
X7515000Y-11139000D01*
X7565000Y-11189000D01*
D11*
X7967381Y-11231524D02*
X7853095Y-11231524D01*
X7910238Y-11231524D02*
X7910238Y-11031524D01*
X7910238Y-11031524D02*
X7891190Y-11060095D01*
X7891190Y-11060095D02*
X7872143Y-11079143D01*
X7872143Y-11079143D02*
X7853095Y-11088667D01*
X8053095Y-11212476D02*
X8062619Y-11222000D01*
X8062619Y-11222000D02*
X8053095Y-11231524D01*
X8053095Y-11231524D02*
X8043571Y-11222000D01*
X8043571Y-11222000D02*
X8053095Y-11212476D01*
X8053095Y-11212476D02*
X8053095Y-11231524D01*
X8186428Y-11031524D02*
X8205476Y-11031524D01*
X8205476Y-11031524D02*
X8224524Y-11041048D01*
X8224524Y-11041048D02*
X8234048Y-11050571D01*
X8234048Y-11050571D02*
X8243571Y-11069619D01*
X8243571Y-11069619D02*
X8253095Y-11107714D01*
X8253095Y-11107714D02*
X8253095Y-11155333D01*
X8253095Y-11155333D02*
X8243571Y-11193428D01*
X8243571Y-11193428D02*
X8234048Y-11212476D01*
X8234048Y-11212476D02*
X8224524Y-11222000D01*
X8224524Y-11222000D02*
X8205476Y-11231524D01*
X8205476Y-11231524D02*
X8186428Y-11231524D01*
X8186428Y-11231524D02*
X8167381Y-11222000D01*
X8167381Y-11222000D02*
X8157857Y-11212476D01*
X8157857Y-11212476D02*
X8148333Y-11193428D01*
X8148333Y-11193428D02*
X8138809Y-11155333D01*
X8138809Y-11155333D02*
X8138809Y-11107714D01*
X8138809Y-11107714D02*
X8148333Y-11069619D01*
X8148333Y-11069619D02*
X8157857Y-11050571D01*
X8157857Y-11050571D02*
X8167381Y-11041048D01*
X8167381Y-11041048D02*
X8186428Y-11031524D01*
X8376905Y-11031524D02*
X8395952Y-11031524D01*
X8395952Y-11031524D02*
X8415000Y-11041048D01*
X8415000Y-11041048D02*
X8424524Y-11050571D01*
X8424524Y-11050571D02*
X8434048Y-11069619D01*
X8434048Y-11069619D02*
X8443571Y-11107714D01*
X8443571Y-11107714D02*
X8443571Y-11155333D01*
X8443571Y-11155333D02*
X8434048Y-11193428D01*
X8434048Y-11193428D02*
X8424524Y-11212476D01*
X8424524Y-11212476D02*
X8415000Y-11222000D01*
X8415000Y-11222000D02*
X8395952Y-11231524D01*
X8395952Y-11231524D02*
X8376905Y-11231524D01*
X8376905Y-11231524D02*
X8357857Y-11222000D01*
X8357857Y-11222000D02*
X8348333Y-11212476D01*
X8348333Y-11212476D02*
X8338809Y-11193428D01*
X8338809Y-11193428D02*
X8329286Y-11155333D01*
X8329286Y-11155333D02*
X8329286Y-11107714D01*
X8329286Y-11107714D02*
X8338809Y-11069619D01*
X8338809Y-11069619D02*
X8348333Y-11050571D01*
X8348333Y-11050571D02*
X8357857Y-11041048D01*
X8357857Y-11041048D02*
X8376905Y-11031524D01*
X8567381Y-11031524D02*
X8586429Y-11031524D01*
X8586429Y-11031524D02*
X8605476Y-11041048D01*
X8605476Y-11041048D02*
X8615000Y-11050571D01*
X8615000Y-11050571D02*
X8624524Y-11069619D01*
X8624524Y-11069619D02*
X8634048Y-11107714D01*
X8634048Y-11107714D02*
X8634048Y-11155333D01*
X8634048Y-11155333D02*
X8624524Y-11193428D01*
X8624524Y-11193428D02*
X8615000Y-11212476D01*
X8615000Y-11212476D02*
X8605476Y-11222000D01*
X8605476Y-11222000D02*
X8586429Y-11231524D01*
X8586429Y-11231524D02*
X8567381Y-11231524D01*
X8567381Y-11231524D02*
X8548333Y-11222000D01*
X8548333Y-11222000D02*
X8538810Y-11212476D01*
X8538810Y-11212476D02*
X8529286Y-11193428D01*
X8529286Y-11193428D02*
X8519762Y-11155333D01*
X8519762Y-11155333D02*
X8519762Y-11107714D01*
X8519762Y-11107714D02*
X8529286Y-11069619D01*
X8529286Y-11069619D02*
X8538810Y-11050571D01*
X8538810Y-11050571D02*
X8548333Y-11041048D01*
X8548333Y-11041048D02*
X8567381Y-11031524D01*
X8719762Y-11231524D02*
X8719762Y-11098190D01*
X8719762Y-11117238D02*
X8729286Y-11107714D01*
X8729286Y-11107714D02*
X8748333Y-11098190D01*
X8748333Y-11098190D02*
X8776905Y-11098190D01*
X8776905Y-11098190D02*
X8795952Y-11107714D01*
X8795952Y-11107714D02*
X8805476Y-11126762D01*
X8805476Y-11126762D02*
X8805476Y-11231524D01*
X8805476Y-11126762D02*
X8815000Y-11107714D01*
X8815000Y-11107714D02*
X8834048Y-11098190D01*
X8834048Y-11098190D02*
X8862619Y-11098190D01*
X8862619Y-11098190D02*
X8881667Y-11107714D01*
X8881667Y-11107714D02*
X8891191Y-11126762D01*
X8891191Y-11126762D02*
X8891191Y-11231524D01*
X8986429Y-11231524D02*
X8986429Y-11098190D01*
X8986429Y-11117238D02*
X8995952Y-11107714D01*
X8995952Y-11107714D02*
X9015000Y-11098190D01*
X9015000Y-11098190D02*
X9043572Y-11098190D01*
X9043572Y-11098190D02*
X9062619Y-11107714D01*
X9062619Y-11107714D02*
X9072143Y-11126762D01*
X9072143Y-11126762D02*
X9072143Y-11231524D01*
X9072143Y-11126762D02*
X9081667Y-11107714D01*
X9081667Y-11107714D02*
X9100714Y-11098190D01*
X9100714Y-11098190D02*
X9129286Y-11098190D01*
X9129286Y-11098190D02*
X9148333Y-11107714D01*
X9148333Y-11107714D02*
X9157857Y-11126762D01*
X9157857Y-11126762D02*
X9157857Y-11231524D01*
X9548333Y-11022000D02*
X9376905Y-11279143D01*
X9805476Y-11031524D02*
X9824524Y-11031524D01*
X9824524Y-11031524D02*
X9843572Y-11041048D01*
X9843572Y-11041048D02*
X9853095Y-11050571D01*
X9853095Y-11050571D02*
X9862619Y-11069619D01*
X9862619Y-11069619D02*
X9872143Y-11107714D01*
X9872143Y-11107714D02*
X9872143Y-11155333D01*
X9872143Y-11155333D02*
X9862619Y-11193428D01*
X9862619Y-11193428D02*
X9853095Y-11212476D01*
X9853095Y-11212476D02*
X9843572Y-11222000D01*
X9843572Y-11222000D02*
X9824524Y-11231524D01*
X9824524Y-11231524D02*
X9805476Y-11231524D01*
X9805476Y-11231524D02*
X9786429Y-11222000D01*
X9786429Y-11222000D02*
X9776905Y-11212476D01*
X9776905Y-11212476D02*
X9767381Y-11193428D01*
X9767381Y-11193428D02*
X9757857Y-11155333D01*
X9757857Y-11155333D02*
X9757857Y-11107714D01*
X9757857Y-11107714D02*
X9767381Y-11069619D01*
X9767381Y-11069619D02*
X9776905Y-11050571D01*
X9776905Y-11050571D02*
X9786429Y-11041048D01*
X9786429Y-11041048D02*
X9805476Y-11031524D01*
X9957857Y-11212476D02*
X9967381Y-11222000D01*
X9967381Y-11222000D02*
X9957857Y-11231524D01*
X9957857Y-11231524D02*
X9948334Y-11222000D01*
X9948334Y-11222000D02*
X9957857Y-11212476D01*
X9957857Y-11212476D02*
X9957857Y-11231524D01*
X10091191Y-11031524D02*
X10110238Y-11031524D01*
X10110238Y-11031524D02*
X10129286Y-11041048D01*
X10129286Y-11041048D02*
X10138810Y-11050571D01*
X10138810Y-11050571D02*
X10148334Y-11069619D01*
X10148334Y-11069619D02*
X10157857Y-11107714D01*
X10157857Y-11107714D02*
X10157857Y-11155333D01*
X10157857Y-11155333D02*
X10148334Y-11193428D01*
X10148334Y-11193428D02*
X10138810Y-11212476D01*
X10138810Y-11212476D02*
X10129286Y-11222000D01*
X10129286Y-11222000D02*
X10110238Y-11231524D01*
X10110238Y-11231524D02*
X10091191Y-11231524D01*
X10091191Y-11231524D02*
X10072143Y-11222000D01*
X10072143Y-11222000D02*
X10062619Y-11212476D01*
X10062619Y-11212476D02*
X10053095Y-11193428D01*
X10053095Y-11193428D02*
X10043572Y-11155333D01*
X10043572Y-11155333D02*
X10043572Y-11107714D01*
X10043572Y-11107714D02*
X10053095Y-11069619D01*
X10053095Y-11069619D02*
X10062619Y-11050571D01*
X10062619Y-11050571D02*
X10072143Y-11041048D01*
X10072143Y-11041048D02*
X10091191Y-11031524D01*
X10224524Y-11031524D02*
X10348334Y-11031524D01*
X10348334Y-11031524D02*
X10281667Y-11107714D01*
X10281667Y-11107714D02*
X10310238Y-11107714D01*
X10310238Y-11107714D02*
X10329286Y-11117238D01*
X10329286Y-11117238D02*
X10338810Y-11126762D01*
X10338810Y-11126762D02*
X10348334Y-11145810D01*
X10348334Y-11145810D02*
X10348334Y-11193428D01*
X10348334Y-11193428D02*
X10338810Y-11212476D01*
X10338810Y-11212476D02*
X10329286Y-11222000D01*
X10329286Y-11222000D02*
X10310238Y-11231524D01*
X10310238Y-11231524D02*
X10253095Y-11231524D01*
X10253095Y-11231524D02*
X10234048Y-11222000D01*
X10234048Y-11222000D02*
X10224524Y-11212476D01*
X10443572Y-11231524D02*
X10481667Y-11231524D01*
X10481667Y-11231524D02*
X10500715Y-11222000D01*
X10500715Y-11222000D02*
X10510238Y-11212476D01*
X10510238Y-11212476D02*
X10529286Y-11183905D01*
X10529286Y-11183905D02*
X10538810Y-11145810D01*
X10538810Y-11145810D02*
X10538810Y-11069619D01*
X10538810Y-11069619D02*
X10529286Y-11050571D01*
X10529286Y-11050571D02*
X10519762Y-11041048D01*
X10519762Y-11041048D02*
X10500715Y-11031524D01*
X10500715Y-11031524D02*
X10462619Y-11031524D01*
X10462619Y-11031524D02*
X10443572Y-11041048D01*
X10443572Y-11041048D02*
X10434048Y-11050571D01*
X10434048Y-11050571D02*
X10424524Y-11069619D01*
X10424524Y-11069619D02*
X10424524Y-11117238D01*
X10424524Y-11117238D02*
X10434048Y-11136286D01*
X10434048Y-11136286D02*
X10443572Y-11145810D01*
X10443572Y-11145810D02*
X10462619Y-11155333D01*
X10462619Y-11155333D02*
X10500715Y-11155333D01*
X10500715Y-11155333D02*
X10519762Y-11145810D01*
X10519762Y-11145810D02*
X10529286Y-11136286D01*
X10529286Y-11136286D02*
X10538810Y-11117238D01*
X10710238Y-11098190D02*
X10710238Y-11231524D01*
X10662619Y-11022000D02*
X10615000Y-11164857D01*
X10615000Y-11164857D02*
X10738810Y-11164857D01*
X10805476Y-11031524D02*
X10805476Y-11069619D01*
X10881667Y-11031524D02*
X10881667Y-11069619D01*
X11176905Y-11307714D02*
X11167381Y-11298190D01*
X11167381Y-11298190D02*
X11148334Y-11269619D01*
X11148334Y-11269619D02*
X11138810Y-11250571D01*
X11138810Y-11250571D02*
X11129286Y-11222000D01*
X11129286Y-11222000D02*
X11119762Y-11174381D01*
X11119762Y-11174381D02*
X11119762Y-11136286D01*
X11119762Y-11136286D02*
X11129286Y-11088667D01*
X11129286Y-11088667D02*
X11138810Y-11060095D01*
X11138810Y-11060095D02*
X11148334Y-11041048D01*
X11148334Y-11041048D02*
X11167381Y-11012476D01*
X11167381Y-11012476D02*
X11176905Y-11002952D01*
X11348334Y-11031524D02*
X11253095Y-11031524D01*
X11253095Y-11031524D02*
X11243572Y-11126762D01*
X11243572Y-11126762D02*
X11253095Y-11117238D01*
X11253095Y-11117238D02*
X11272143Y-11107714D01*
X11272143Y-11107714D02*
X11319762Y-11107714D01*
X11319762Y-11107714D02*
X11338810Y-11117238D01*
X11338810Y-11117238D02*
X11348334Y-11126762D01*
X11348334Y-11126762D02*
X11357857Y-11145810D01*
X11357857Y-11145810D02*
X11357857Y-11193428D01*
X11357857Y-11193428D02*
X11348334Y-11212476D01*
X11348334Y-11212476D02*
X11338810Y-11222000D01*
X11338810Y-11222000D02*
X11319762Y-11231524D01*
X11319762Y-11231524D02*
X11272143Y-11231524D01*
X11272143Y-11231524D02*
X11253095Y-11222000D01*
X11253095Y-11222000D02*
X11243572Y-11212476D01*
X11538810Y-11031524D02*
X11443572Y-11031524D01*
X11443572Y-11031524D02*
X11434048Y-11126762D01*
X11434048Y-11126762D02*
X11443572Y-11117238D01*
X11443572Y-11117238D02*
X11462619Y-11107714D01*
X11462619Y-11107714D02*
X11510238Y-11107714D01*
X11510238Y-11107714D02*
X11529286Y-11117238D01*
X11529286Y-11117238D02*
X11538810Y-11126762D01*
X11538810Y-11126762D02*
X11548334Y-11145810D01*
X11548334Y-11145810D02*
X11548334Y-11193428D01*
X11548334Y-11193428D02*
X11538810Y-11212476D01*
X11538810Y-11212476D02*
X11529286Y-11222000D01*
X11529286Y-11222000D02*
X11510238Y-11231524D01*
X11510238Y-11231524D02*
X11462619Y-11231524D01*
X11462619Y-11231524D02*
X11443572Y-11222000D01*
X11443572Y-11222000D02*
X11434048Y-11212476D01*
X11786429Y-11231524D02*
X11786429Y-11031524D01*
X11872143Y-11231524D02*
X11872143Y-11126762D01*
X11872143Y-11126762D02*
X11862619Y-11107714D01*
X11862619Y-11107714D02*
X11843572Y-11098190D01*
X11843572Y-11098190D02*
X11815000Y-11098190D01*
X11815000Y-11098190D02*
X11795953Y-11107714D01*
X11795953Y-11107714D02*
X11786429Y-11117238D01*
X11995953Y-11231524D02*
X11976905Y-11222000D01*
X11976905Y-11222000D02*
X11967381Y-11212476D01*
X11967381Y-11212476D02*
X11957857Y-11193428D01*
X11957857Y-11193428D02*
X11957857Y-11136286D01*
X11957857Y-11136286D02*
X11967381Y-11117238D01*
X11967381Y-11117238D02*
X11976905Y-11107714D01*
X11976905Y-11107714D02*
X11995953Y-11098190D01*
X11995953Y-11098190D02*
X12024524Y-11098190D01*
X12024524Y-11098190D02*
X12043572Y-11107714D01*
X12043572Y-11107714D02*
X12053096Y-11117238D01*
X12053096Y-11117238D02*
X12062619Y-11136286D01*
X12062619Y-11136286D02*
X12062619Y-11193428D01*
X12062619Y-11193428D02*
X12053096Y-11212476D01*
X12053096Y-11212476D02*
X12043572Y-11222000D01*
X12043572Y-11222000D02*
X12024524Y-11231524D01*
X12024524Y-11231524D02*
X11995953Y-11231524D01*
X12176905Y-11231524D02*
X12157857Y-11222000D01*
X12157857Y-11222000D02*
X12148334Y-11202952D01*
X12148334Y-11202952D02*
X12148334Y-11031524D01*
X12329286Y-11222000D02*
X12310238Y-11231524D01*
X12310238Y-11231524D02*
X12272143Y-11231524D01*
X12272143Y-11231524D02*
X12253096Y-11222000D01*
X12253096Y-11222000D02*
X12243572Y-11202952D01*
X12243572Y-11202952D02*
X12243572Y-11126762D01*
X12243572Y-11126762D02*
X12253096Y-11107714D01*
X12253096Y-11107714D02*
X12272143Y-11098190D01*
X12272143Y-11098190D02*
X12310238Y-11098190D01*
X12310238Y-11098190D02*
X12329286Y-11107714D01*
X12329286Y-11107714D02*
X12338810Y-11126762D01*
X12338810Y-11126762D02*
X12338810Y-11145810D01*
X12338810Y-11145810D02*
X12243572Y-11164857D01*
X12415000Y-11222000D02*
X12434048Y-11231524D01*
X12434048Y-11231524D02*
X12472143Y-11231524D01*
X12472143Y-11231524D02*
X12491191Y-11222000D01*
X12491191Y-11222000D02*
X12500715Y-11202952D01*
X12500715Y-11202952D02*
X12500715Y-11193428D01*
X12500715Y-11193428D02*
X12491191Y-11174381D01*
X12491191Y-11174381D02*
X12472143Y-11164857D01*
X12472143Y-11164857D02*
X12443572Y-11164857D01*
X12443572Y-11164857D02*
X12424524Y-11155333D01*
X12424524Y-11155333D02*
X12415000Y-11136286D01*
X12415000Y-11136286D02*
X12415000Y-11126762D01*
X12415000Y-11126762D02*
X12424524Y-11107714D01*
X12424524Y-11107714D02*
X12443572Y-11098190D01*
X12443572Y-11098190D02*
X12472143Y-11098190D01*
X12472143Y-11098190D02*
X12491191Y-11107714D01*
X12738810Y-11155333D02*
X12891191Y-11155333D01*
X12815000Y-11231524D02*
X12815000Y-11079143D01*
X13119762Y-11031524D02*
X13243572Y-11031524D01*
X13243572Y-11031524D02*
X13176905Y-11107714D01*
X13176905Y-11107714D02*
X13205477Y-11107714D01*
X13205477Y-11107714D02*
X13224524Y-11117238D01*
X13224524Y-11117238D02*
X13234048Y-11126762D01*
X13234048Y-11126762D02*
X13243572Y-11145810D01*
X13243572Y-11145810D02*
X13243572Y-11193428D01*
X13243572Y-11193428D02*
X13234048Y-11212476D01*
X13234048Y-11212476D02*
X13224524Y-11222000D01*
X13224524Y-11222000D02*
X13205477Y-11231524D01*
X13205477Y-11231524D02*
X13148334Y-11231524D01*
X13148334Y-11231524D02*
X13129286Y-11222000D01*
X13129286Y-11222000D02*
X13119762Y-11212476D01*
X13472143Y-11222000D02*
X13491191Y-11231524D01*
X13491191Y-11231524D02*
X13529286Y-11231524D01*
X13529286Y-11231524D02*
X13548334Y-11222000D01*
X13548334Y-11222000D02*
X13557858Y-11202952D01*
X13557858Y-11202952D02*
X13557858Y-11193428D01*
X13557858Y-11193428D02*
X13548334Y-11174381D01*
X13548334Y-11174381D02*
X13529286Y-11164857D01*
X13529286Y-11164857D02*
X13500715Y-11164857D01*
X13500715Y-11164857D02*
X13481667Y-11155333D01*
X13481667Y-11155333D02*
X13472143Y-11136286D01*
X13472143Y-11136286D02*
X13472143Y-11126762D01*
X13472143Y-11126762D02*
X13481667Y-11107714D01*
X13481667Y-11107714D02*
X13500715Y-11098190D01*
X13500715Y-11098190D02*
X13529286Y-11098190D01*
X13529286Y-11098190D02*
X13548334Y-11107714D01*
X13672143Y-11231524D02*
X13653096Y-11222000D01*
X13653096Y-11222000D02*
X13643572Y-11202952D01*
X13643572Y-11202952D02*
X13643572Y-11031524D01*
X13776905Y-11231524D02*
X13757858Y-11222000D01*
X13757858Y-11222000D02*
X13748334Y-11212476D01*
X13748334Y-11212476D02*
X13738810Y-11193428D01*
X13738810Y-11193428D02*
X13738810Y-11136286D01*
X13738810Y-11136286D02*
X13748334Y-11117238D01*
X13748334Y-11117238D02*
X13757858Y-11107714D01*
X13757858Y-11107714D02*
X13776905Y-11098190D01*
X13776905Y-11098190D02*
X13805477Y-11098190D01*
X13805477Y-11098190D02*
X13824524Y-11107714D01*
X13824524Y-11107714D02*
X13834048Y-11117238D01*
X13834048Y-11117238D02*
X13843572Y-11136286D01*
X13843572Y-11136286D02*
X13843572Y-11193428D01*
X13843572Y-11193428D02*
X13834048Y-11212476D01*
X13834048Y-11212476D02*
X13824524Y-11222000D01*
X13824524Y-11222000D02*
X13805477Y-11231524D01*
X13805477Y-11231524D02*
X13776905Y-11231524D01*
X13900715Y-11098190D02*
X13976905Y-11098190D01*
X13929286Y-11031524D02*
X13929286Y-11202952D01*
X13929286Y-11202952D02*
X13938810Y-11222000D01*
X13938810Y-11222000D02*
X13957858Y-11231524D01*
X13957858Y-11231524D02*
X13976905Y-11231524D01*
X14034048Y-11222000D02*
X14053096Y-11231524D01*
X14053096Y-11231524D02*
X14091191Y-11231524D01*
X14091191Y-11231524D02*
X14110239Y-11222000D01*
X14110239Y-11222000D02*
X14119762Y-11202952D01*
X14119762Y-11202952D02*
X14119762Y-11193428D01*
X14119762Y-11193428D02*
X14110239Y-11174381D01*
X14110239Y-11174381D02*
X14091191Y-11164857D01*
X14091191Y-11164857D02*
X14062620Y-11164857D01*
X14062620Y-11164857D02*
X14043572Y-11155333D01*
X14043572Y-11155333D02*
X14034048Y-11136286D01*
X14034048Y-11136286D02*
X14034048Y-11126762D01*
X14034048Y-11126762D02*
X14043572Y-11107714D01*
X14043572Y-11107714D02*
X14062620Y-11098190D01*
X14062620Y-11098190D02*
X14091191Y-11098190D01*
X14091191Y-11098190D02*
X14110239Y-11107714D01*
X14186429Y-11307714D02*
X14195953Y-11298190D01*
X14195953Y-11298190D02*
X14215001Y-11269619D01*
X14215001Y-11269619D02*
X14224524Y-11250571D01*
X14224524Y-11250571D02*
X14234048Y-11222000D01*
X14234048Y-11222000D02*
X14243572Y-11174381D01*
X14243572Y-11174381D02*
X14243572Y-11136286D01*
X14243572Y-11136286D02*
X14234048Y-11088667D01*
X14234048Y-11088667D02*
X14224524Y-11060095D01*
X14224524Y-11060095D02*
X14215001Y-11041048D01*
X14215001Y-11041048D02*
X14195953Y-11012476D01*
X14195953Y-11012476D02*
X14186429Y-11002952D01*
D19*
X7560000Y-11348000D02*
X7560000Y-11458000D01*
X7505000Y-11403000D02*
X7615000Y-11403000D01*
X7615000Y-11403000D02*
G75*
G03*
X7615000Y-11403000I-55000J0D01*
G01*
D11*
X7967381Y-11495524D02*
X7853095Y-11495524D01*
X7910238Y-11495524D02*
X7910238Y-11295524D01*
X7910238Y-11295524D02*
X7891190Y-11324095D01*
X7891190Y-11324095D02*
X7872143Y-11343143D01*
X7872143Y-11343143D02*
X7853095Y-11352667D01*
X8053095Y-11476476D02*
X8062619Y-11486000D01*
X8062619Y-11486000D02*
X8053095Y-11495524D01*
X8053095Y-11495524D02*
X8043571Y-11486000D01*
X8043571Y-11486000D02*
X8053095Y-11476476D01*
X8053095Y-11476476D02*
X8053095Y-11495524D01*
X8253095Y-11495524D02*
X8138809Y-11495524D01*
X8195952Y-11495524D02*
X8195952Y-11295524D01*
X8195952Y-11295524D02*
X8176905Y-11324095D01*
X8176905Y-11324095D02*
X8157857Y-11343143D01*
X8157857Y-11343143D02*
X8138809Y-11352667D01*
X8376905Y-11295524D02*
X8395952Y-11295524D01*
X8395952Y-11295524D02*
X8415000Y-11305048D01*
X8415000Y-11305048D02*
X8424524Y-11314571D01*
X8424524Y-11314571D02*
X8434048Y-11333619D01*
X8434048Y-11333619D02*
X8443571Y-11371714D01*
X8443571Y-11371714D02*
X8443571Y-11419333D01*
X8443571Y-11419333D02*
X8434048Y-11457428D01*
X8434048Y-11457428D02*
X8424524Y-11476476D01*
X8424524Y-11476476D02*
X8415000Y-11486000D01*
X8415000Y-11486000D02*
X8395952Y-11495524D01*
X8395952Y-11495524D02*
X8376905Y-11495524D01*
X8376905Y-11495524D02*
X8357857Y-11486000D01*
X8357857Y-11486000D02*
X8348333Y-11476476D01*
X8348333Y-11476476D02*
X8338809Y-11457428D01*
X8338809Y-11457428D02*
X8329286Y-11419333D01*
X8329286Y-11419333D02*
X8329286Y-11371714D01*
X8329286Y-11371714D02*
X8338809Y-11333619D01*
X8338809Y-11333619D02*
X8348333Y-11314571D01*
X8348333Y-11314571D02*
X8357857Y-11305048D01*
X8357857Y-11305048D02*
X8376905Y-11295524D01*
X8567381Y-11295524D02*
X8586429Y-11295524D01*
X8586429Y-11295524D02*
X8605476Y-11305048D01*
X8605476Y-11305048D02*
X8615000Y-11314571D01*
X8615000Y-11314571D02*
X8624524Y-11333619D01*
X8624524Y-11333619D02*
X8634048Y-11371714D01*
X8634048Y-11371714D02*
X8634048Y-11419333D01*
X8634048Y-11419333D02*
X8624524Y-11457428D01*
X8624524Y-11457428D02*
X8615000Y-11476476D01*
X8615000Y-11476476D02*
X8605476Y-11486000D01*
X8605476Y-11486000D02*
X8586429Y-11495524D01*
X8586429Y-11495524D02*
X8567381Y-11495524D01*
X8567381Y-11495524D02*
X8548333Y-11486000D01*
X8548333Y-11486000D02*
X8538810Y-11476476D01*
X8538810Y-11476476D02*
X8529286Y-11457428D01*
X8529286Y-11457428D02*
X8519762Y-11419333D01*
X8519762Y-11419333D02*
X8519762Y-11371714D01*
X8519762Y-11371714D02*
X8529286Y-11333619D01*
X8529286Y-11333619D02*
X8538810Y-11314571D01*
X8538810Y-11314571D02*
X8548333Y-11305048D01*
X8548333Y-11305048D02*
X8567381Y-11295524D01*
X8719762Y-11495524D02*
X8719762Y-11362190D01*
X8719762Y-11381238D02*
X8729286Y-11371714D01*
X8729286Y-11371714D02*
X8748333Y-11362190D01*
X8748333Y-11362190D02*
X8776905Y-11362190D01*
X8776905Y-11362190D02*
X8795952Y-11371714D01*
X8795952Y-11371714D02*
X8805476Y-11390762D01*
X8805476Y-11390762D02*
X8805476Y-11495524D01*
X8805476Y-11390762D02*
X8815000Y-11371714D01*
X8815000Y-11371714D02*
X8834048Y-11362190D01*
X8834048Y-11362190D02*
X8862619Y-11362190D01*
X8862619Y-11362190D02*
X8881667Y-11371714D01*
X8881667Y-11371714D02*
X8891191Y-11390762D01*
X8891191Y-11390762D02*
X8891191Y-11495524D01*
X8986429Y-11495524D02*
X8986429Y-11362190D01*
X8986429Y-11381238D02*
X8995952Y-11371714D01*
X8995952Y-11371714D02*
X9015000Y-11362190D01*
X9015000Y-11362190D02*
X9043572Y-11362190D01*
X9043572Y-11362190D02*
X9062619Y-11371714D01*
X9062619Y-11371714D02*
X9072143Y-11390762D01*
X9072143Y-11390762D02*
X9072143Y-11495524D01*
X9072143Y-11390762D02*
X9081667Y-11371714D01*
X9081667Y-11371714D02*
X9100714Y-11362190D01*
X9100714Y-11362190D02*
X9129286Y-11362190D01*
X9129286Y-11362190D02*
X9148333Y-11371714D01*
X9148333Y-11371714D02*
X9157857Y-11390762D01*
X9157857Y-11390762D02*
X9157857Y-11495524D01*
X9548333Y-11286000D02*
X9376905Y-11543143D01*
X9805476Y-11295524D02*
X9824524Y-11295524D01*
X9824524Y-11295524D02*
X9843572Y-11305048D01*
X9843572Y-11305048D02*
X9853095Y-11314571D01*
X9853095Y-11314571D02*
X9862619Y-11333619D01*
X9862619Y-11333619D02*
X9872143Y-11371714D01*
X9872143Y-11371714D02*
X9872143Y-11419333D01*
X9872143Y-11419333D02*
X9862619Y-11457428D01*
X9862619Y-11457428D02*
X9853095Y-11476476D01*
X9853095Y-11476476D02*
X9843572Y-11486000D01*
X9843572Y-11486000D02*
X9824524Y-11495524D01*
X9824524Y-11495524D02*
X9805476Y-11495524D01*
X9805476Y-11495524D02*
X9786429Y-11486000D01*
X9786429Y-11486000D02*
X9776905Y-11476476D01*
X9776905Y-11476476D02*
X9767381Y-11457428D01*
X9767381Y-11457428D02*
X9757857Y-11419333D01*
X9757857Y-11419333D02*
X9757857Y-11371714D01*
X9757857Y-11371714D02*
X9767381Y-11333619D01*
X9767381Y-11333619D02*
X9776905Y-11314571D01*
X9776905Y-11314571D02*
X9786429Y-11305048D01*
X9786429Y-11305048D02*
X9805476Y-11295524D01*
X9957857Y-11476476D02*
X9967381Y-11486000D01*
X9967381Y-11486000D02*
X9957857Y-11495524D01*
X9957857Y-11495524D02*
X9948334Y-11486000D01*
X9948334Y-11486000D02*
X9957857Y-11476476D01*
X9957857Y-11476476D02*
X9957857Y-11495524D01*
X10091191Y-11295524D02*
X10110238Y-11295524D01*
X10110238Y-11295524D02*
X10129286Y-11305048D01*
X10129286Y-11305048D02*
X10138810Y-11314571D01*
X10138810Y-11314571D02*
X10148334Y-11333619D01*
X10148334Y-11333619D02*
X10157857Y-11371714D01*
X10157857Y-11371714D02*
X10157857Y-11419333D01*
X10157857Y-11419333D02*
X10148334Y-11457428D01*
X10148334Y-11457428D02*
X10138810Y-11476476D01*
X10138810Y-11476476D02*
X10129286Y-11486000D01*
X10129286Y-11486000D02*
X10110238Y-11495524D01*
X10110238Y-11495524D02*
X10091191Y-11495524D01*
X10091191Y-11495524D02*
X10072143Y-11486000D01*
X10072143Y-11486000D02*
X10062619Y-11476476D01*
X10062619Y-11476476D02*
X10053095Y-11457428D01*
X10053095Y-11457428D02*
X10043572Y-11419333D01*
X10043572Y-11419333D02*
X10043572Y-11371714D01*
X10043572Y-11371714D02*
X10053095Y-11333619D01*
X10053095Y-11333619D02*
X10062619Y-11314571D01*
X10062619Y-11314571D02*
X10072143Y-11305048D01*
X10072143Y-11305048D02*
X10091191Y-11295524D01*
X10329286Y-11362190D02*
X10329286Y-11495524D01*
X10281667Y-11286000D02*
X10234048Y-11428857D01*
X10234048Y-11428857D02*
X10357857Y-11428857D01*
X10415000Y-11295524D02*
X10538810Y-11295524D01*
X10538810Y-11295524D02*
X10472143Y-11371714D01*
X10472143Y-11371714D02*
X10500715Y-11371714D01*
X10500715Y-11371714D02*
X10519762Y-11381238D01*
X10519762Y-11381238D02*
X10529286Y-11390762D01*
X10529286Y-11390762D02*
X10538810Y-11409809D01*
X10538810Y-11409809D02*
X10538810Y-11457428D01*
X10538810Y-11457428D02*
X10529286Y-11476476D01*
X10529286Y-11476476D02*
X10519762Y-11486000D01*
X10519762Y-11486000D02*
X10500715Y-11495524D01*
X10500715Y-11495524D02*
X10443572Y-11495524D01*
X10443572Y-11495524D02*
X10424524Y-11486000D01*
X10424524Y-11486000D02*
X10415000Y-11476476D01*
X10605476Y-11295524D02*
X10729286Y-11295524D01*
X10729286Y-11295524D02*
X10662619Y-11371714D01*
X10662619Y-11371714D02*
X10691191Y-11371714D01*
X10691191Y-11371714D02*
X10710238Y-11381238D01*
X10710238Y-11381238D02*
X10719762Y-11390762D01*
X10719762Y-11390762D02*
X10729286Y-11409809D01*
X10729286Y-11409809D02*
X10729286Y-11457428D01*
X10729286Y-11457428D02*
X10719762Y-11476476D01*
X10719762Y-11476476D02*
X10710238Y-11486000D01*
X10710238Y-11486000D02*
X10691191Y-11495524D01*
X10691191Y-11495524D02*
X10634048Y-11495524D01*
X10634048Y-11495524D02*
X10615000Y-11486000D01*
X10615000Y-11486000D02*
X10605476Y-11476476D01*
X10805476Y-11295524D02*
X10805476Y-11333619D01*
X10881667Y-11295524D02*
X10881667Y-11333619D01*
X11176905Y-11571714D02*
X11167381Y-11562190D01*
X11167381Y-11562190D02*
X11148334Y-11533619D01*
X11148334Y-11533619D02*
X11138810Y-11514571D01*
X11138810Y-11514571D02*
X11129286Y-11486000D01*
X11129286Y-11486000D02*
X11119762Y-11438381D01*
X11119762Y-11438381D02*
X11119762Y-11400286D01*
X11119762Y-11400286D02*
X11129286Y-11352667D01*
X11129286Y-11352667D02*
X11138810Y-11324095D01*
X11138810Y-11324095D02*
X11148334Y-11305048D01*
X11148334Y-11305048D02*
X11167381Y-11276476D01*
X11167381Y-11276476D02*
X11176905Y-11266952D01*
X11338810Y-11295524D02*
X11300714Y-11295524D01*
X11300714Y-11295524D02*
X11281667Y-11305048D01*
X11281667Y-11305048D02*
X11272143Y-11314571D01*
X11272143Y-11314571D02*
X11253095Y-11343143D01*
X11253095Y-11343143D02*
X11243572Y-11381238D01*
X11243572Y-11381238D02*
X11243572Y-11457428D01*
X11243572Y-11457428D02*
X11253095Y-11476476D01*
X11253095Y-11476476D02*
X11262619Y-11486000D01*
X11262619Y-11486000D02*
X11281667Y-11495524D01*
X11281667Y-11495524D02*
X11319762Y-11495524D01*
X11319762Y-11495524D02*
X11338810Y-11486000D01*
X11338810Y-11486000D02*
X11348334Y-11476476D01*
X11348334Y-11476476D02*
X11357857Y-11457428D01*
X11357857Y-11457428D02*
X11357857Y-11409809D01*
X11357857Y-11409809D02*
X11348334Y-11390762D01*
X11348334Y-11390762D02*
X11338810Y-11381238D01*
X11338810Y-11381238D02*
X11319762Y-11371714D01*
X11319762Y-11371714D02*
X11281667Y-11371714D01*
X11281667Y-11371714D02*
X11262619Y-11381238D01*
X11262619Y-11381238D02*
X11253095Y-11390762D01*
X11253095Y-11390762D02*
X11243572Y-11409809D01*
X11595953Y-11495524D02*
X11595953Y-11295524D01*
X11681667Y-11495524D02*
X11681667Y-11390762D01*
X11681667Y-11390762D02*
X11672143Y-11371714D01*
X11672143Y-11371714D02*
X11653096Y-11362190D01*
X11653096Y-11362190D02*
X11624524Y-11362190D01*
X11624524Y-11362190D02*
X11605476Y-11371714D01*
X11605476Y-11371714D02*
X11595953Y-11381238D01*
X11805476Y-11495524D02*
X11786429Y-11486000D01*
X11786429Y-11486000D02*
X11776905Y-11476476D01*
X11776905Y-11476476D02*
X11767381Y-11457428D01*
X11767381Y-11457428D02*
X11767381Y-11400286D01*
X11767381Y-11400286D02*
X11776905Y-11381238D01*
X11776905Y-11381238D02*
X11786429Y-11371714D01*
X11786429Y-11371714D02*
X11805476Y-11362190D01*
X11805476Y-11362190D02*
X11834048Y-11362190D01*
X11834048Y-11362190D02*
X11853096Y-11371714D01*
X11853096Y-11371714D02*
X11862619Y-11381238D01*
X11862619Y-11381238D02*
X11872143Y-11400286D01*
X11872143Y-11400286D02*
X11872143Y-11457428D01*
X11872143Y-11457428D02*
X11862619Y-11476476D01*
X11862619Y-11476476D02*
X11853096Y-11486000D01*
X11853096Y-11486000D02*
X11834048Y-11495524D01*
X11834048Y-11495524D02*
X11805476Y-11495524D01*
X11986429Y-11495524D02*
X11967381Y-11486000D01*
X11967381Y-11486000D02*
X11957857Y-11466952D01*
X11957857Y-11466952D02*
X11957857Y-11295524D01*
X12138810Y-11486000D02*
X12119762Y-11495524D01*
X12119762Y-11495524D02*
X12081667Y-11495524D01*
X12081667Y-11495524D02*
X12062619Y-11486000D01*
X12062619Y-11486000D02*
X12053096Y-11466952D01*
X12053096Y-11466952D02*
X12053096Y-11390762D01*
X12053096Y-11390762D02*
X12062619Y-11371714D01*
X12062619Y-11371714D02*
X12081667Y-11362190D01*
X12081667Y-11362190D02*
X12119762Y-11362190D01*
X12119762Y-11362190D02*
X12138810Y-11371714D01*
X12138810Y-11371714D02*
X12148334Y-11390762D01*
X12148334Y-11390762D02*
X12148334Y-11409809D01*
X12148334Y-11409809D02*
X12053096Y-11428857D01*
X12224524Y-11486000D02*
X12243572Y-11495524D01*
X12243572Y-11495524D02*
X12281667Y-11495524D01*
X12281667Y-11495524D02*
X12300715Y-11486000D01*
X12300715Y-11486000D02*
X12310238Y-11466952D01*
X12310238Y-11466952D02*
X12310238Y-11457428D01*
X12310238Y-11457428D02*
X12300715Y-11438381D01*
X12300715Y-11438381D02*
X12281667Y-11428857D01*
X12281667Y-11428857D02*
X12253096Y-11428857D01*
X12253096Y-11428857D02*
X12234048Y-11419333D01*
X12234048Y-11419333D02*
X12224524Y-11400286D01*
X12224524Y-11400286D02*
X12224524Y-11390762D01*
X12224524Y-11390762D02*
X12234048Y-11371714D01*
X12234048Y-11371714D02*
X12253096Y-11362190D01*
X12253096Y-11362190D02*
X12281667Y-11362190D01*
X12281667Y-11362190D02*
X12300715Y-11371714D01*
X12376905Y-11571714D02*
X12386429Y-11562190D01*
X12386429Y-11562190D02*
X12405477Y-11533619D01*
X12405477Y-11533619D02*
X12415000Y-11514571D01*
X12415000Y-11514571D02*
X12424524Y-11486000D01*
X12424524Y-11486000D02*
X12434048Y-11438381D01*
X12434048Y-11438381D02*
X12434048Y-11400286D01*
X12434048Y-11400286D02*
X12424524Y-11352667D01*
X12424524Y-11352667D02*
X12415000Y-11324095D01*
X12415000Y-11324095D02*
X12405477Y-11305048D01*
X12405477Y-11305048D02*
X12386429Y-11276476D01*
X12386429Y-11276476D02*
X12376905Y-11266952D01*
X7585711Y-11737711D02*
X7585711Y-11596289D01*
X7444289Y-11596289D01*
X7444289Y-11737711D01*
X7585711Y-11737711D01*
X7615000Y-11667000D02*
G75*
G03*
X7615000Y-11667000I-100000J0D01*
G01*
X7853095Y-11578571D02*
X7862619Y-11569048D01*
X7862619Y-11569048D02*
X7881667Y-11559524D01*
X7881667Y-11559524D02*
X7929286Y-11559524D01*
X7929286Y-11559524D02*
X7948333Y-11569048D01*
X7948333Y-11569048D02*
X7957857Y-11578571D01*
X7957857Y-11578571D02*
X7967381Y-11597619D01*
X7967381Y-11597619D02*
X7967381Y-11616667D01*
X7967381Y-11616667D02*
X7957857Y-11645238D01*
X7957857Y-11645238D02*
X7843571Y-11759524D01*
X7843571Y-11759524D02*
X7967381Y-11759524D01*
X8053095Y-11740476D02*
X8062619Y-11750000D01*
X8062619Y-11750000D02*
X8053095Y-11759524D01*
X8053095Y-11759524D02*
X8043571Y-11750000D01*
X8043571Y-11750000D02*
X8053095Y-11740476D01*
X8053095Y-11740476D02*
X8053095Y-11759524D01*
X8129286Y-11559524D02*
X8253095Y-11559524D01*
X8253095Y-11559524D02*
X8186428Y-11635714D01*
X8186428Y-11635714D02*
X8215000Y-11635714D01*
X8215000Y-11635714D02*
X8234048Y-11645238D01*
X8234048Y-11645238D02*
X8243571Y-11654762D01*
X8243571Y-11654762D02*
X8253095Y-11673809D01*
X8253095Y-11673809D02*
X8253095Y-11721428D01*
X8253095Y-11721428D02*
X8243571Y-11740476D01*
X8243571Y-11740476D02*
X8234048Y-11750000D01*
X8234048Y-11750000D02*
X8215000Y-11759524D01*
X8215000Y-11759524D02*
X8157857Y-11759524D01*
X8157857Y-11759524D02*
X8138809Y-11750000D01*
X8138809Y-11750000D02*
X8129286Y-11740476D01*
X8319762Y-11559524D02*
X8443571Y-11559524D01*
X8443571Y-11559524D02*
X8376905Y-11635714D01*
X8376905Y-11635714D02*
X8405476Y-11635714D01*
X8405476Y-11635714D02*
X8424524Y-11645238D01*
X8424524Y-11645238D02*
X8434048Y-11654762D01*
X8434048Y-11654762D02*
X8443571Y-11673809D01*
X8443571Y-11673809D02*
X8443571Y-11721428D01*
X8443571Y-11721428D02*
X8434048Y-11740476D01*
X8434048Y-11740476D02*
X8424524Y-11750000D01*
X8424524Y-11750000D02*
X8405476Y-11759524D01*
X8405476Y-11759524D02*
X8348333Y-11759524D01*
X8348333Y-11759524D02*
X8329286Y-11750000D01*
X8329286Y-11750000D02*
X8319762Y-11740476D01*
X8567381Y-11559524D02*
X8586429Y-11559524D01*
X8586429Y-11559524D02*
X8605476Y-11569048D01*
X8605476Y-11569048D02*
X8615000Y-11578571D01*
X8615000Y-11578571D02*
X8624524Y-11597619D01*
X8624524Y-11597619D02*
X8634048Y-11635714D01*
X8634048Y-11635714D02*
X8634048Y-11683333D01*
X8634048Y-11683333D02*
X8624524Y-11721428D01*
X8624524Y-11721428D02*
X8615000Y-11740476D01*
X8615000Y-11740476D02*
X8605476Y-11750000D01*
X8605476Y-11750000D02*
X8586429Y-11759524D01*
X8586429Y-11759524D02*
X8567381Y-11759524D01*
X8567381Y-11759524D02*
X8548333Y-11750000D01*
X8548333Y-11750000D02*
X8538810Y-11740476D01*
X8538810Y-11740476D02*
X8529286Y-11721428D01*
X8529286Y-11721428D02*
X8519762Y-11683333D01*
X8519762Y-11683333D02*
X8519762Y-11635714D01*
X8519762Y-11635714D02*
X8529286Y-11597619D01*
X8529286Y-11597619D02*
X8538810Y-11578571D01*
X8538810Y-11578571D02*
X8548333Y-11569048D01*
X8548333Y-11569048D02*
X8567381Y-11559524D01*
X8719762Y-11759524D02*
X8719762Y-11626190D01*
X8719762Y-11645238D02*
X8729286Y-11635714D01*
X8729286Y-11635714D02*
X8748333Y-11626190D01*
X8748333Y-11626190D02*
X8776905Y-11626190D01*
X8776905Y-11626190D02*
X8795952Y-11635714D01*
X8795952Y-11635714D02*
X8805476Y-11654762D01*
X8805476Y-11654762D02*
X8805476Y-11759524D01*
X8805476Y-11654762D02*
X8815000Y-11635714D01*
X8815000Y-11635714D02*
X8834048Y-11626190D01*
X8834048Y-11626190D02*
X8862619Y-11626190D01*
X8862619Y-11626190D02*
X8881667Y-11635714D01*
X8881667Y-11635714D02*
X8891191Y-11654762D01*
X8891191Y-11654762D02*
X8891191Y-11759524D01*
X8986429Y-11759524D02*
X8986429Y-11626190D01*
X8986429Y-11645238D02*
X8995952Y-11635714D01*
X8995952Y-11635714D02*
X9015000Y-11626190D01*
X9015000Y-11626190D02*
X9043572Y-11626190D01*
X9043572Y-11626190D02*
X9062619Y-11635714D01*
X9062619Y-11635714D02*
X9072143Y-11654762D01*
X9072143Y-11654762D02*
X9072143Y-11759524D01*
X9072143Y-11654762D02*
X9081667Y-11635714D01*
X9081667Y-11635714D02*
X9100714Y-11626190D01*
X9100714Y-11626190D02*
X9129286Y-11626190D01*
X9129286Y-11626190D02*
X9148333Y-11635714D01*
X9148333Y-11635714D02*
X9157857Y-11654762D01*
X9157857Y-11654762D02*
X9157857Y-11759524D01*
X9548333Y-11550000D02*
X9376905Y-11807143D01*
X9805476Y-11559524D02*
X9824524Y-11559524D01*
X9824524Y-11559524D02*
X9843572Y-11569048D01*
X9843572Y-11569048D02*
X9853095Y-11578571D01*
X9853095Y-11578571D02*
X9862619Y-11597619D01*
X9862619Y-11597619D02*
X9872143Y-11635714D01*
X9872143Y-11635714D02*
X9872143Y-11683333D01*
X9872143Y-11683333D02*
X9862619Y-11721428D01*
X9862619Y-11721428D02*
X9853095Y-11740476D01*
X9853095Y-11740476D02*
X9843572Y-11750000D01*
X9843572Y-11750000D02*
X9824524Y-11759524D01*
X9824524Y-11759524D02*
X9805476Y-11759524D01*
X9805476Y-11759524D02*
X9786429Y-11750000D01*
X9786429Y-11750000D02*
X9776905Y-11740476D01*
X9776905Y-11740476D02*
X9767381Y-11721428D01*
X9767381Y-11721428D02*
X9757857Y-11683333D01*
X9757857Y-11683333D02*
X9757857Y-11635714D01*
X9757857Y-11635714D02*
X9767381Y-11597619D01*
X9767381Y-11597619D02*
X9776905Y-11578571D01*
X9776905Y-11578571D02*
X9786429Y-11569048D01*
X9786429Y-11569048D02*
X9805476Y-11559524D01*
X9957857Y-11740476D02*
X9967381Y-11750000D01*
X9967381Y-11750000D02*
X9957857Y-11759524D01*
X9957857Y-11759524D02*
X9948334Y-11750000D01*
X9948334Y-11750000D02*
X9957857Y-11740476D01*
X9957857Y-11740476D02*
X9957857Y-11759524D01*
X10091191Y-11559524D02*
X10110238Y-11559524D01*
X10110238Y-11559524D02*
X10129286Y-11569048D01*
X10129286Y-11569048D02*
X10138810Y-11578571D01*
X10138810Y-11578571D02*
X10148334Y-11597619D01*
X10148334Y-11597619D02*
X10157857Y-11635714D01*
X10157857Y-11635714D02*
X10157857Y-11683333D01*
X10157857Y-11683333D02*
X10148334Y-11721428D01*
X10148334Y-11721428D02*
X10138810Y-11740476D01*
X10138810Y-11740476D02*
X10129286Y-11750000D01*
X10129286Y-11750000D02*
X10110238Y-11759524D01*
X10110238Y-11759524D02*
X10091191Y-11759524D01*
X10091191Y-11759524D02*
X10072143Y-11750000D01*
X10072143Y-11750000D02*
X10062619Y-11740476D01*
X10062619Y-11740476D02*
X10053095Y-11721428D01*
X10053095Y-11721428D02*
X10043572Y-11683333D01*
X10043572Y-11683333D02*
X10043572Y-11635714D01*
X10043572Y-11635714D02*
X10053095Y-11597619D01*
X10053095Y-11597619D02*
X10062619Y-11578571D01*
X10062619Y-11578571D02*
X10072143Y-11569048D01*
X10072143Y-11569048D02*
X10091191Y-11559524D01*
X10253095Y-11759524D02*
X10291191Y-11759524D01*
X10291191Y-11759524D02*
X10310238Y-11750000D01*
X10310238Y-11750000D02*
X10319762Y-11740476D01*
X10319762Y-11740476D02*
X10338810Y-11711905D01*
X10338810Y-11711905D02*
X10348334Y-11673809D01*
X10348334Y-11673809D02*
X10348334Y-11597619D01*
X10348334Y-11597619D02*
X10338810Y-11578571D01*
X10338810Y-11578571D02*
X10329286Y-11569048D01*
X10329286Y-11569048D02*
X10310238Y-11559524D01*
X10310238Y-11559524D02*
X10272143Y-11559524D01*
X10272143Y-11559524D02*
X10253095Y-11569048D01*
X10253095Y-11569048D02*
X10243572Y-11578571D01*
X10243572Y-11578571D02*
X10234048Y-11597619D01*
X10234048Y-11597619D02*
X10234048Y-11645238D01*
X10234048Y-11645238D02*
X10243572Y-11664286D01*
X10243572Y-11664286D02*
X10253095Y-11673809D01*
X10253095Y-11673809D02*
X10272143Y-11683333D01*
X10272143Y-11683333D02*
X10310238Y-11683333D01*
X10310238Y-11683333D02*
X10329286Y-11673809D01*
X10329286Y-11673809D02*
X10338810Y-11664286D01*
X10338810Y-11664286D02*
X10348334Y-11645238D01*
X10538810Y-11759524D02*
X10424524Y-11759524D01*
X10481667Y-11759524D02*
X10481667Y-11559524D01*
X10481667Y-11559524D02*
X10462619Y-11588095D01*
X10462619Y-11588095D02*
X10443572Y-11607143D01*
X10443572Y-11607143D02*
X10424524Y-11616667D01*
X10605476Y-11559524D02*
X10738810Y-11559524D01*
X10738810Y-11559524D02*
X10653095Y-11759524D01*
X10805476Y-11559524D02*
X10805476Y-11597619D01*
X10881667Y-11559524D02*
X10881667Y-11597619D01*
X11176905Y-11835714D02*
X11167381Y-11826190D01*
X11167381Y-11826190D02*
X11148334Y-11797619D01*
X11148334Y-11797619D02*
X11138810Y-11778571D01*
X11138810Y-11778571D02*
X11129286Y-11750000D01*
X11129286Y-11750000D02*
X11119762Y-11702381D01*
X11119762Y-11702381D02*
X11119762Y-11664286D01*
X11119762Y-11664286D02*
X11129286Y-11616667D01*
X11129286Y-11616667D02*
X11138810Y-11588095D01*
X11138810Y-11588095D02*
X11148334Y-11569048D01*
X11148334Y-11569048D02*
X11167381Y-11540476D01*
X11167381Y-11540476D02*
X11176905Y-11530952D01*
X11243572Y-11578571D02*
X11253095Y-11569048D01*
X11253095Y-11569048D02*
X11272143Y-11559524D01*
X11272143Y-11559524D02*
X11319762Y-11559524D01*
X11319762Y-11559524D02*
X11338810Y-11569048D01*
X11338810Y-11569048D02*
X11348334Y-11578571D01*
X11348334Y-11578571D02*
X11357857Y-11597619D01*
X11357857Y-11597619D02*
X11357857Y-11616667D01*
X11357857Y-11616667D02*
X11348334Y-11645238D01*
X11348334Y-11645238D02*
X11234048Y-11759524D01*
X11234048Y-11759524D02*
X11357857Y-11759524D01*
X11595953Y-11759524D02*
X11595953Y-11559524D01*
X11681667Y-11759524D02*
X11681667Y-11654762D01*
X11681667Y-11654762D02*
X11672143Y-11635714D01*
X11672143Y-11635714D02*
X11653096Y-11626190D01*
X11653096Y-11626190D02*
X11624524Y-11626190D01*
X11624524Y-11626190D02*
X11605476Y-11635714D01*
X11605476Y-11635714D02*
X11595953Y-11645238D01*
X11805476Y-11759524D02*
X11786429Y-11750000D01*
X11786429Y-11750000D02*
X11776905Y-11740476D01*
X11776905Y-11740476D02*
X11767381Y-11721428D01*
X11767381Y-11721428D02*
X11767381Y-11664286D01*
X11767381Y-11664286D02*
X11776905Y-11645238D01*
X11776905Y-11645238D02*
X11786429Y-11635714D01*
X11786429Y-11635714D02*
X11805476Y-11626190D01*
X11805476Y-11626190D02*
X11834048Y-11626190D01*
X11834048Y-11626190D02*
X11853096Y-11635714D01*
X11853096Y-11635714D02*
X11862619Y-11645238D01*
X11862619Y-11645238D02*
X11872143Y-11664286D01*
X11872143Y-11664286D02*
X11872143Y-11721428D01*
X11872143Y-11721428D02*
X11862619Y-11740476D01*
X11862619Y-11740476D02*
X11853096Y-11750000D01*
X11853096Y-11750000D02*
X11834048Y-11759524D01*
X11834048Y-11759524D02*
X11805476Y-11759524D01*
X11986429Y-11759524D02*
X11967381Y-11750000D01*
X11967381Y-11750000D02*
X11957857Y-11730952D01*
X11957857Y-11730952D02*
X11957857Y-11559524D01*
X12138810Y-11750000D02*
X12119762Y-11759524D01*
X12119762Y-11759524D02*
X12081667Y-11759524D01*
X12081667Y-11759524D02*
X12062619Y-11750000D01*
X12062619Y-11750000D02*
X12053096Y-11730952D01*
X12053096Y-11730952D02*
X12053096Y-11654762D01*
X12053096Y-11654762D02*
X12062619Y-11635714D01*
X12062619Y-11635714D02*
X12081667Y-11626190D01*
X12081667Y-11626190D02*
X12119762Y-11626190D01*
X12119762Y-11626190D02*
X12138810Y-11635714D01*
X12138810Y-11635714D02*
X12148334Y-11654762D01*
X12148334Y-11654762D02*
X12148334Y-11673809D01*
X12148334Y-11673809D02*
X12053096Y-11692857D01*
X12224524Y-11750000D02*
X12243572Y-11759524D01*
X12243572Y-11759524D02*
X12281667Y-11759524D01*
X12281667Y-11759524D02*
X12300715Y-11750000D01*
X12300715Y-11750000D02*
X12310238Y-11730952D01*
X12310238Y-11730952D02*
X12310238Y-11721428D01*
X12310238Y-11721428D02*
X12300715Y-11702381D01*
X12300715Y-11702381D02*
X12281667Y-11692857D01*
X12281667Y-11692857D02*
X12253096Y-11692857D01*
X12253096Y-11692857D02*
X12234048Y-11683333D01*
X12234048Y-11683333D02*
X12224524Y-11664286D01*
X12224524Y-11664286D02*
X12224524Y-11654762D01*
X12224524Y-11654762D02*
X12234048Y-11635714D01*
X12234048Y-11635714D02*
X12253096Y-11626190D01*
X12253096Y-11626190D02*
X12281667Y-11626190D01*
X12281667Y-11626190D02*
X12300715Y-11635714D01*
X12376905Y-11835714D02*
X12386429Y-11826190D01*
X12386429Y-11826190D02*
X12405477Y-11797619D01*
X12405477Y-11797619D02*
X12415000Y-11778571D01*
X12415000Y-11778571D02*
X12424524Y-11750000D01*
X12424524Y-11750000D02*
X12434048Y-11702381D01*
X12434048Y-11702381D02*
X12434048Y-11664286D01*
X12434048Y-11664286D02*
X12424524Y-11616667D01*
X12424524Y-11616667D02*
X12415000Y-11588095D01*
X12415000Y-11588095D02*
X12405477Y-11569048D01*
X12405477Y-11569048D02*
X12386429Y-11540476D01*
X12386429Y-11540476D02*
X12376905Y-11530952D01*
M02*
